<?xml version="1.0" encoding="UTF-8"?><svg id="_イヤー_1" xmlns="http://www.w3.org/2000/svg" viewBox="0 0 100 80"><defs><style>.cls-1{fill:none;stroke:#fff;stroke-miterlimit:10;stroke-width:1.54px;}.cls-2{fill:#fff;}</style></defs><path class="cls-2" d="M10.14,47.77c.07,.53,.11,1.11,.09,1.72h-1.59c0-.42-.02-.79-.05-1.17-1.27,.37-2.55,.44-3.45-.3-.76-.63-1.18-1.62-1.07-2.62,.09-.91,.59-1.68,1.33-2.06,.95-.49,1.9-.47,2.7,0,.62,.36,1.34,1.16,1.77,2.82l.54-.28c.3-.15,.63-.33,.88-.51l.87,1.35c-.23,.12-.61,.37-1.13,.64-.27,.14-.57,.29-.9,.42Zm-1.78-1.05c-.31-1.42-.87-1.9-1.05-2.03-.36-.19-.74-.17-1.17,.06-.23,.12-.46,.44-.46,.84-.04,.19-.04,.74,.49,1.2,.4,.34,1.24,.25,2.19-.08Zm1.72-5.27c-.95,.15-2.04,.2-3.1-.02l.32-1.54c.67,.13,1.35,.12,2.01,.07l-.86-1.65,1.42-.74,1.07,2.05c1.01-.27,1.69-.62,1.69-.62l.74,1.42c-.07,.04-.7,.37-1.66,.66l.6,1.15-1.42,.74-.79-1.53Zm3.25,6.25l-.46-3.1,1.58-.27,.49,3.14-1.6,.23Z"/><path class="cls-2" d="M18.15,58.56c-.89,.84-2.16,1.2-3.43,1-1.83-.32-3.32-1.74-4.12-3.85-.5-1.37-.1-2.94,.96-3.69,.86-.6,1.93-.5,2.82,.26,1.45,1.2,1.58,3.11,.35,4.8l-1.29-.92c.36-.51,1.04-1.71-.06-2.66-.53-.45-.8-.25-.89-.17-.41,.28-.67,1.05-.36,1.81,.55,1.58,1.63,2.61,2.88,2.83,.8,.14,1.53-.09,2.05-.58l.17-.16c1.17-1.42,.18-3.14,.16-3.23l-.47-.77,2.87-1.24c-.81-.91-2.12-2.4-2.12-2.4l1.21-1.04,3.52,4.06s-2.42,1.03-3.27,1.41c.35,.97,.62,2.66-.66,4.22l-.31,.29Z"/><path class="cls-2" d="M25.06,65.9l-.47,1.51c-.49-.13-4.72-1.51-4.43-4.39,.16-1.82,2.02-2.9,3.98-3.5l.05-4.71,1.61,.03-.04,4.27c1.58-.35,2.97-.42,3.31-.48l.06,1.62c-2.32,.1-7.16,1-7.36,2.94-.14,1.35,2.4,2.42,3.29,2.71Z"/><path class="cls-2" d="M40.78,65.79l-3.4-1.1c-.99,2.32-2.52,5.1-4.75,6.82l-.98-1.27c1.88-1.51,3.27-3.94,4.14-6.06l-2.54-.82-.51,1.59-1.55-.5,.51-1.59-1.35-.43,.5-1.55,1.35,.43,.58-1.81,1.55,.5-.58,1.81,2.65,.85c.48-1.25,.7-2.17,.7-2.17l1.59,.38c-.04,.12-.24,1.01-.69,2.3l3.29,1.06-.5,1.55Z"/><path class="cls-2" d="M49.03,66.82l-.18,6.83-1.63-.04,.14-5.35c-1.37,1.03-2.99,2.02-4.94,2.73l-.57-1.54c5.61-2.06,8.58-6.74,8.63-6.77l1.38,.83c-.08,.12-1.03,1.62-2.83,3.32Z"/><path class="cls-2" d="M62.21,71.41l-.76,1.47c-3.24-1.68-6.53-4.68-6.68-4.8l-.44-.44,.27-.53,3.2-6.3,1.46,.71-2.91,5.74c1.01,.86,3.48,2.95,5.87,4.16Z"/><path class="cls-2" d="M73.08,63.42c.55,1.09,.53,2.41-.03,3.57-.83,1.66-2.62,2.68-4.87,2.84-1.46,.09-2.85-.75-3.26-1.97-.33-.99,.07-1.99,1.06-2.63,2.06-1.53,5.65-1.28,6.93,.52l-.51,1.28c-1.54-1.54-4.61-1.54-5.53-.49-.53,.46-.47,.7-.41,.8,.15,.47,.81,.94,1.63,.87,1.67-.07,2.97-.81,3.54-1.95,.37-.73,.36-1.49,.04-2.13l-.1-.2c-1.02-1.53-2.96-1.07-3.05-1.08l-.87,.23-.37-3.1c-1.1,.52-2.9,1.34-2.9,1.34l-.65-1.46,4.9-2.21s.29,2.61,.42,3.54c1.03-.06,2.72,.16,3.86,1.84l.19,.38Z"/><path class="cls-2" d="M83.51,59.94l-1.47,.31c-.51-2.25-1.27-3.53-2.12-3.67-1.49-.23-3.81,2.87-4.72,4.42l-1.31-.76c.33-.55,3.32-5.62,6.27-5.16,1.59,.23,2.69,1.81,3.35,4.86Z"/><path class="cls-2" d="M89.72,48.81l1.49,.52c-.15,.49-1.68,4.66-4.55,4.26-1.82-.23-2.83-2.12-3.35-4.1l-4.7-.22,.08-1.6,4.26,.19c-.3-1.59-.32-2.98-.36-3.33h1.62c.02,2.32,.74,7.19,2.67,7.46,1.35,.19,2.5-2.31,2.83-3.19Z"/><polygon class="cls-2" points="83.97 38.34 95.37 43.36 94.7 44.89 83.3 39.87 83.97 38.34"/><path class="cls-2" d="M74.57,32.09c-2.06-2.06-4.79-3.19-7.7-3.19-.69,0-1.38,.07-2.03,.2-.28,.05-.55,.12-.82,.19-.27,.07-.54,.16-.77,.26l-3.63-7.56-1.56-3.27h3.27c.34,0,.62,.06,.88,.19,.36,.19,.64,.48,.84,.86,.2,.38,.32,.87,.32,1.35,0,.33-.05,.63-.15,.89-.08,.25-.22,.47-.38,.66l1.54,1.52c.07-.07,.12-.16,.19-.24,.05-.06,.11-.13,.16-.19,.12-.16,.22-.33,.32-.51,.04-.07,.07-.15,.11-.22,.04-.09,.1-.18,.13-.28,.18-.5,.27-1.05,.27-1.63s-.09-1.14-.27-1.65c-.16-.5-.42-.99-.75-1.41-.36-.47-.83-.85-1.35-1.1-.2-.1-.42-.19-.67-.26-.35-.11-.75-.17-1.18-.17h-7.55l-.9,.02,.02,2.16h2.75l1.35,2.78,.57,1.2h-16.08l-.9-1.85-.28-.59,4.8-.6,.02-3.29v-.04h0v-.02l-11.91,.02h-.04l.05,4.27v.49h0v.02l4.79-.59,.63,1.32,.97,2.03-1.6,3.57-1.04,2.35c-.26-.09-.53-.16-.8-.24-.28-.07-.55-.12-.83-.17-.57-.1-1.17-.16-1.8-.16-2.91,0-5.64,1.13-7.69,3.19-2.06,2.06-3.2,4.8-3.2,7.7,0,1.75,.41,3.43,1.22,4.99,.51,1,1.18,1.9,1.98,2.7,.8,.8,1.71,1.47,2.71,1.99,1.52,.79,3.22,1.2,4.94,1.2h.08c2.9,0,5.62-1.13,7.66-3.19,1.37-1.36,2.35-3.08,2.84-4.98,.07-.27,.13-.54,.18-.82,.05-.27,.09-.54,.1-.81h4.23c.07,0,.15,0,.23-.02,.08-.02,.15-.05,.3-.12,.06-.03,.11-.06,.21-.15,.06-.06,.12-.12,.17-.2l6.27-9.76,3.28-5.09,2.21,4.59c-.24,.14-.47,.29-.69,.45-.23,.16-.45,.33-.67,.52-.25,.2-.5,.42-.75,.67-2.05,2.06-3.18,4.79-3.18,7.7s1.13,5.64,3.18,7.69c2.06,2.06,4.79,3.19,7.7,3.19s5.65-1.13,7.7-3.19c2.06-2.05,3.19-4.78,3.19-7.69s-1.13-5.65-3.19-7.7Zm-2.46,12.95c-1.39,1.39-3.26,2.17-5.24,2.17-1.99,0-3.85-.78-5.24-2.17-1.4-1.41-2.17-3.27-2.17-5.24s.72-3.72,2.04-5.1c.04-.05,.08-.09,.13-.14,.16-.16,.32-.31,.49-.44,.21-.18,.42-.34,.65-.5l.36,.74,2.98,6.23c.18,.39,.56,.63,.98,.63,.15,0,.32-.04,.48-.11,.27-.13,.46-.35,.56-.63,.1-.27,.08-.57-.05-.83l-2.97-6.22-.32-.64-.05-.1c.27-.08,.55-.15,.82-.19,.26-.05,.54-.09,.85-.11,.16,0,.31-.02,.47-.02,1.98,0,3.84,.77,5.24,2.17,1.4,1.4,2.17,3.26,2.17,5.24,0,1.98-.77,3.84-2.17,5.24Zm-28.98-10.11c-.49-.91-1.13-1.76-1.88-2.51-.31-.31-.62-.59-.93-.82-.21-.18-.44-.35-.67-.5-.23-.16-.47-.3-.7-.41l1.9-4.23,3.53,7.36,1.76,3.66,.74,1.56-2.5,.02c-.02-.28-.07-.55-.12-.82-.05-.28-.11-.55-.18-.82-.14-.55-.31-1.05-.53-1.56-.13-.31-.28-.62-.44-.91Zm-6.28,4.11h-1.66l2-4.44,.33-.74c.23,.15,.46,.31,.66,.47,.22,.17,.43,.35,.64,.58,.72,.72,1.27,1.56,1.62,2.49,.12,.27,.2,.55,.27,.82,.06,.22,.11,.44,.16,.66,0,.05,.02,.09,.03,.14l-4.06,.02Zm-1.31-6.08l-.34,.75-2.58,5.75c-.03,.06-.05,.13-.07,.19l-.06,.21c-.08,.32,0,.67,.21,.93,.21,.26,.52,.41,.86,.41l6.4-.02h.94c-.04,.28-.1,.56-.17,.82-.07,.28-.15,.55-.26,.82-.36,.94-.92,1.79-1.67,2.54-1.39,1.39-3.25,2.17-5.23,2.17-1.99,0-3.85-.78-5.24-2.17-1.4-1.4-2.17-3.26-2.17-5.24s.77-3.84,2.17-5.24c1.41-1.4,3.27-2.17,5.24-2.17,.11,0,.2,0,.31,0,.28,0,.56,.04,.86,.09,.23,.03,.45,.08,.66,.12,.05,.01,.1,.02,.14,.03Zm13.21,4.94l-1.05-2.19-5.18-10.84,9.46-.02h5.16l-1.79,2.76-.72,1.13-3.87,6.03-2.02,3.13Z"/><path class="cls-1" d="M72.4,66.01c3.33,1.54,3.59,4.23,1.54,6.41-1.87,1.98-6.17,3.42-7.43,3.84-5.83,1.95-10.18,2.18-16.91,2.18C22.71,78.43,.91,61.23,.91,40S22.71,1.57,49.59,1.57s48.68,17.21,48.68,38.43"/><circle class="cls-2" cx="98.06" cy="42.05" r="1.02"/><circle class="cls-2" cx="97.3" cy="45.12" r="1.02"/></svg>