<svg width="239" height="74" viewBox="0 0 239 74" fill="none" xmlns="http://www.w3.org/2000/svg">
<g clip-path="url(#clip0_12_647)">
<path d="M57.6115 50.246C57.3501 52.5574 55.5917 55.1533 53.3105 55.9475C48.9026 57.4765 45.5284 50.8743 46.6452 46.856C47.4769 43.8927 50.6373 41.4746 53.6907 42.6481C57.0768 43.952 57.861 47.8872 57.5996 50.246H57.6115ZM68.6965 44.4616C67.1876 42.0317 63.4213 40.8938 61.3184 43.1459C58.7045 45.9433 58.9659 50.5542 60.7362 53.399C64.7164 59.7761 73.2113 51.704 68.6965 44.4735V44.4616ZM40.1938 60.3806C40.7522 65.6197 46.0155 66.9592 48.0115 64.8374C51.2907 61.3407 50.5779 54.1458 44.5185 54.2525C41.4888 54.3117 40.0037 58.5433 40.2057 60.3687L40.1938 60.3806ZM70.8589 54.8333C67.948 54.6318 66.0946 57.8796 66.2253 60.6177C66.6411 69.5313 78.3677 65.6079 75.1836 58.413C74.7083 57.3462 73.2232 54.9992 70.8589 54.8333ZM53.5363 62.3838C52.9897 63.4032 51.5878 64.8493 50.6491 65.5842C49.0096 66.8525 47.4175 68.0971 47.6076 70.4322C48.0472 75.7187 55.6273 72.6013 58.4431 72.6962C60.5936 72.7673 64.8827 74.9246 67.1995 73.5377C68.2926 72.8858 69.9559 71.1552 68.5302 68.8794C67.5916 67.374 65.9163 65.4419 65.1322 64.3514C63.3619 61.9097 62.5065 57.9744 59.2154 57.6069C55.259 57.1684 54.5699 60.4517 53.5363 62.3838Z" fill="#FF3B61"/>
<path d="M113.785 70.9419C113.785 71.2382 113.488 71.4634 113.144 71.4634H100.847C100.633 71.4634 100.419 71.3923 100.336 71.2382C100.336 71.2382 94.419 60.5228 92.9338 58.8041C92.8863 59.1716 92.8863 59.5509 92.8863 59.9183C92.8863 62.3364 93.017 70.8589 93.017 70.8944C93.017 71.0485 92.9338 71.1908 92.8031 71.3093C92.72 71.416 92.5536 71.4634 92.3754 71.4634H83.2626C82.9181 71.4634 82.6686 71.2382 82.6211 70.9419C82.6211 64.2448 82.3953 57.8084 82.4072 56.2794C82.5379 48.3969 82.7161 41.5813 82.7517 41.5102C82.7993 41.2138 83.0488 41.0242 83.3933 41.0242H92.0784C92.2923 41.0242 92.4586 41.0953 92.5893 41.2138C92.5893 41.2138 97.1635 52.4744 98.7318 54.0746C98.6011 52.2848 98.4823 41.5813 98.4823 41.5813C98.4823 41.4272 98.5298 41.285 98.6486 41.1664C98.7793 41.0597 98.8981 41.0123 99.112 41.0123H112.359C112.656 41.0123 112.953 41.202 112.953 41.4983C113.001 41.5694 113.845 48.3851 113.975 56.2675C114.058 64.4107 113.761 70.847 113.761 70.93L113.785 70.9419Z" fill="#231815"/>
<path d="M141.931 59.6101C142.383 67.7059 146.91 70.9063 146.862 70.9774C146.862 71.2382 146.565 71.4634 146.221 71.4634H131.916C131.619 71.4634 131.322 71.2737 131.274 71.013C131.274 70.9774 131.025 69.7447 130.763 67.8126C129.397 69.4128 127.615 71.4634 127.615 71.4634C127.484 71.6175 127.187 71.7242 126.938 71.653C126.557 71.5819 117.076 69.2705 116.981 59.3731C116.898 52.2611 122.292 47.5079 130.633 47.2116C137.262 46.9864 142.419 47.3894 142.466 47.3894C142.811 47.425 143.06 47.6502 143.06 47.9109C143.108 47.9465 141.563 53.079 141.931 59.6101ZM124.431 59.1123C124.264 65.5605 130.395 64.5529 131.69 64.2803C131.607 63.4624 131.381 60.8666 131.334 59.9657C131.203 58.5196 131.215 56.9431 131.179 54.3828C130.288 54.2643 124.644 54.0628 124.431 59.0293V59.1004V59.1123Z" fill="#231815"/>
<path d="M174.236 47.2709C174.236 47.342 174.022 53.7427 172.834 60.0724C171.302 67.9193 168.628 70.7878 168.545 70.8944C168.462 71.0841 168.296 71.1908 168.082 71.1908C167.999 71.1908 163.995 71.6767 158.969 71.416C151.912 71.0485 149.916 65.9516 148.929 61.554C148.122 57.761 147.955 47.6739 147.955 47.2709C147.955 47.1168 148.038 46.9745 148.122 46.856C148.252 46.7493 148.419 46.6663 148.585 46.6663H159.242C159.587 46.6663 159.884 46.9271 159.884 47.2234C159.884 47.259 159.931 51.1706 160.692 54.5132C161.25 56.789 161.951 60.1554 164.541 61.2459C165.622 60.025 166.086 58.0336 166.644 55.6867C167.405 52.593 167.345 47.2471 167.345 47.176C167.393 46.9153 167.642 46.6545 167.987 46.6545H173.606C173.773 46.6545 173.903 46.7256 174.034 46.8441C174.165 46.9508 174.248 47.1049 174.248 47.259L174.236 47.2709Z" fill="#FF3B61"/>
<path d="M193.258 70.9418C193.258 71.2382 192.961 71.4634 192.616 71.4634H177.48C177.135 71.4634 176.886 71.2382 176.838 70.9418C176.838 70.8707 176.707 66.2954 176.969 60.5228C177.218 54.7503 177.527 50.2934 177.527 50.2579C177.575 49.9616 177.824 49.7363 178.169 49.7363H191.986C192.331 49.7363 192.628 49.9616 192.628 50.2579C192.628 50.2934 193.008 54.7621 193.222 60.5228C193.472 66.3309 193.27 70.9063 193.27 70.9418H193.258ZM176.969 44.1534C176.838 42.7785 176.838 41.6643 176.838 41.6287C176.886 41.2968 177.135 41.0716 177.48 41.0716H192.616C192.961 41.0716 193.258 41.3324 193.258 41.6287C193.258 41.6643 193.305 42.7073 193.175 44.1534C193.044 45.5284 192.83 46.6426 192.83 46.7256C192.783 46.9864 192.533 47.176 192.188 47.176H177.896C177.598 47.176 177.301 46.9864 177.301 46.69L176.957 44.1653L176.969 44.1534Z" fill="#231815"/>
<path d="M89.9517 13.7735C89.9517 13.7735 89.916 18.6926 89.1794 24.3348C88.4903 29.5858 87.1834 34.825 87.1834 34.8961C87.1121 35.0976 86.8745 35.2635 86.6012 35.2635H81.6825C81.528 35.2635 81.3735 35.228 81.2547 35.0976C81.1359 35.0027 81.1003 34.8605 81.1003 34.7301C81.1716 34.2323 81.1716 32.8573 80.5181 32.2291C80.2448 31.9565 79.9003 31.8616 79.4845 31.8616C77.7498 31.8616 77.0013 34.7657 77.0013 34.7657C77.0013 35.062 76.728 35.2635 76.4191 35.2635H66.938C66.6648 35.2635 66.439 35.0976 66.4034 34.8605C66.3677 34.8249 65.1321 29.5739 64.5143 24.2992C63.8608 18.6452 63.8965 13.8091 63.8965 13.738C63.8965 13.4653 64.1697 13.2757 64.4786 13.2757H74.0429C74.3518 13.2757 74.5776 13.4772 74.6251 13.738C74.6251 13.7735 74.6607 21.253 74.934 23.9911C75.7419 23.3273 77.7142 17.9814 79.532 17.9814C81.3498 17.9814 82.6092 23.351 83.4171 24.0977C83.726 21.3241 83.7973 13.7735 83.7973 13.738C83.8329 13.4653 84.0705 13.2757 84.3795 13.2757H89.3814C89.5359 13.2757 89.6903 13.3113 89.8091 13.4061C89.9279 13.5009 89.9636 13.6431 89.9636 13.7735H89.9517Z" fill="#231815"/>
<path d="M121.33 34.6234C121.33 34.9672 121.104 35.2635 120.747 35.2635H108.296C107.987 35.2635 107.761 34.9672 107.714 34.6234C107.714 34.6234 107.595 33.3551 107.441 31.4823C106.597 31.5297 103.853 31.5297 102.819 31.5297C101.702 31.5297 100.633 31.5297 99.7061 31.4823C99.516 33.3433 99.3972 34.659 99.3972 34.659C99.3972 35.0027 99.1239 35.2516 98.815 35.2516H92.5061C92.3517 35.2516 92.1972 35.1687 92.0784 35.0857C91.9596 34.9553 91.924 34.7894 91.924 34.6234C91.924 34.5404 92.114 25.4253 93.5041 16.4286C95.2388 5.23914 97.0803 1.16162 97.1635 0.995671C97.2467 0.829725 97.4368 0.699339 97.6269 0.651926C97.6625 0.651926 103.354 0.0118495 109.009 0.355594C116.898 0.865285 119.167 8.02466 120.201 14.2595C120.7 17.0569 121.009 22.0234 121.163 25.7097C121.353 30.4155 121.318 34.576 121.318 34.6116L121.33 34.6234ZM102.831 12.2207C102.296 13.9157 101.262 18.6926 100.716 24.7022C101.405 24.6548 102.106 24.6548 102.831 24.6548C103.556 24.6548 106.348 24.6548 107.001 24.7022C106.526 21.6204 103.995 14.9825 102.831 12.2207Z" fill="#231815"/>
<path d="M61.0095 34.6234C61.0095 34.9672 60.7837 35.2635 60.4273 35.2635H47.9759C47.667 35.2635 47.4413 34.9672 47.3937 34.6234C47.3937 34.6234 47.2749 33.3551 47.1205 31.4823C46.2769 31.5297 43.5324 31.5297 42.4987 31.5297C41.3819 31.5297 40.3126 31.5297 39.3859 31.4823C39.1958 33.3433 39.077 34.659 39.077 34.659C39.077 35.0027 38.8037 35.2516 38.4948 35.2516H32.1859C32.0315 35.2516 31.877 35.1687 31.7582 35.0857C31.6394 34.9553 31.6038 34.7894 31.6038 34.6234C31.6038 34.5404 31.7939 25.4253 33.1839 16.4286C34.9186 5.23914 36.7602 1.16162 36.8433 0.995671C36.9265 0.829725 37.1166 0.699339 37.3067 0.651926C37.3423 0.651926 43.0334 0.0118495 48.6888 0.355594C56.5778 0.865285 58.8471 8.02466 59.8808 14.2595C60.3798 17.0569 60.6887 22.0234 60.8431 25.7097C61.0332 30.4155 60.9976 34.576 60.9976 34.6116L61.0095 34.6234ZM42.5106 12.2207C41.9759 13.9157 40.9423 18.6926 40.3958 24.7022C41.0849 24.6548 41.7859 24.6548 42.5106 24.6548C43.2353 24.6548 46.0274 24.6548 46.6809 24.7022C46.2056 21.6204 43.6749 14.9825 42.5106 12.2207Z" fill="#231815"/>
<path d="M161.642 14.6507C161.69 20.8736 158.969 25.852 153.254 29.9058C147.468 33.9952 138.676 35.7613 138.296 35.868C138.058 35.9273 137.821 35.7969 137.69 35.6191L133.306 29.0761C133.223 28.9339 133.211 28.7916 133.235 28.6375C133.306 28.4834 133.377 28.3649 133.532 28.2819C133.603 28.2345 139.08 25.3423 141.646 23.4339C144.438 21.324 146.375 19.4868 147.23 18.0644C148.3 16.3338 148.383 14.9944 148.228 14.6032C148.038 14.0224 145.151 14.1528 143.571 14.2358C142.145 14.2951 140.898 14.4966 139.805 14.6507H139.567C139.567 15.2552 139.603 16.3575 139.674 17.531L139.698 17.8273C139.817 19.7001 140.066 21.7034 140.066 21.7389V21.7745C140.066 21.9167 140.042 22.0352 139.935 22.1538C139.864 22.2723 139.71 22.3553 139.555 22.3671C139.472 22.3671 133.662 22.9361 131.619 23.2206C131.298 23.2443 131.013 23.0783 130.953 22.7939C130.953 22.7583 130.252 19.9728 129.753 15.9545C129.361 13.003 129.112 8.52251 129.112 8.48695C129.1 8.22618 129.278 7.96541 129.551 7.90614C129.635 7.90614 136.656 6.37707 142.834 5.9385C148.502 5.49993 152.731 5.38139 156.296 6.19927C159.789 6.98159 161.595 9.80266 161.63 14.6625L161.642 14.6507Z" fill="#231815"/>
<path d="M170.672 16.7605C168.272 15.3974 164.648 13.7024 164.589 13.6668C164.482 13.6194 164.387 13.5127 164.327 13.3705C164.268 13.2282 164.28 13.0979 164.363 12.9793L168.01 6.94601C168.141 6.73265 168.414 6.62597 168.652 6.72079C168.795 6.73265 172.086 7.66906 175.507 9.50631C179.309 11.5451 181.389 13.6313 181.484 13.7142C181.65 13.892 181.697 14.1647 181.531 14.3424L176.814 20.0676C176.731 20.1861 176.577 20.2454 176.422 20.2572C176.268 20.2691 176.125 20.2572 176.03 20.1506C175.995 20.1506 173.107 18.1711 170.672 16.7605ZM188.339 29.811C180.545 36.5673 166.157 33.367 165.551 33.2366C165.337 33.1773 165.171 33.0351 165.147 32.8336L163.828 25.6979C163.804 25.5675 163.852 25.4371 163.935 25.3186C164.054 25.2356 164.208 25.1526 164.351 25.1645C164.422 25.1645 171.979 25.2949 177.753 21.5848C182.458 18.5859 184.561 10.3242 184.573 10.2531C184.585 10.0871 184.703 10.0042 184.822 9.92118C184.977 9.87376 185.119 9.85006 185.262 9.89747L193.472 12.3985C193.685 12.4578 193.852 12.6356 193.828 12.8608C193.852 13.3586 193.757 25.0815 188.327 29.8228L188.339 29.811Z" fill="#231815"/>
<path d="M209.464 14.2239C208.026 19.712 206.873 23.9436 206.873 23.9792C206.778 24.2637 206.588 24.4296 206.398 24.3822L198.129 22.1775C197.939 22.1301 197.844 21.8693 197.891 21.5848L199.84 11.6518C200.945 6.04517 202.062 1.63576 202.074 1.6002C202.169 1.31572 202.359 1.14977 202.549 1.19719L211.578 3.6034C211.769 3.65081 211.887 3.91159 211.828 4.19606C211.816 4.26718 210.901 8.68845 209.475 14.2121L209.464 14.2239Z" fill="#231815"/>
<path d="M205.699 30.3423C205.794 27.0115 203.382 24.2416 200.313 24.1555C197.243 24.0693 194.677 26.6996 194.582 30.0304C194.487 33.3611 196.899 36.1311 199.969 36.2172C203.038 36.3034 205.604 33.6731 205.699 30.3423Z" fill="#231815"/>
<path d="M239 1.37498L223.151 0L212.256 72.4472L217.448 72.4709" fill="#231815"/>
<path d="M0 1.37498L15.8494 0L26.7443 72.4472L21.5523 72.4709" fill="#231815"/>
</g>
<defs>
<clipPath id="clip0_12_647">
<rect width="239" height="74" fill="white"/>
</clipPath>
</defs>
</svg>
