<?xml version="1.0" encoding="UTF-8"?>
<svg id="_レイヤー_2" data-name="レイヤー 2" xmlns="http://www.w3.org/2000/svg" xmlns:xlink="http://www.w3.org/1999/xlink" viewBox="0 0 251.22 235.45">
  <defs>
    <style>
      .cls-1 {
        stroke: #875324;
      }

      .cls-1, .cls-2 {
        fill: none;
        stroke-width: .69px;
      }

      .cls-1, .cls-2, .cls-3, .cls-4, .cls-5 {
        stroke-miterlimit: 10;
      }

      .cls-6, .cls-7, .cls-8, .cls-9 {
        stroke-width: 0px;
      }

      .cls-6, .cls-5 {
        fill: #040000;
      }

      .cls-2, .cls-5 {
        stroke: #231815;
      }

      .cls-3 {
        fill: #b5771d;
        stroke-width: .46px;
      }

      .cls-3, .cls-4 {
        stroke: #845124;
      }

      .cls-4 {
        fill: #fff;
        stroke-width: .68px;
      }

      .cls-10 {
        fill: #000;
        font-family: KaiseiOpti-Bold, 'Kaisei Opti';
        font-size: 39px;
        font-weight: 700;
      }

      .cls-7 {
        fill: #ffff64;
      }

      .cls-8 {
        fill: url(#_名称未設定グラデーション_35);
      }

      .cls-5 {
        stroke-width: .48px;
      }

      .cls-9 {
        fill: #dc8e23;
      }
    </style>
    <linearGradient id="_名称未設定グラデーション_35" data-name="名称未設定グラデーション 35" x1="127.34" y1="106.4" x2="125.02" y2="14.16" gradientUnits="userSpaceOnUse">
      <stop offset="0" stop-color="#ca6217"/>
      <stop offset=".31" stop-color="#c76813"/>
      <stop offset=".75" stop-color="#bf7a08"/>
      <stop offset="1" stop-color="#b98800"/>
    </linearGradient>
  </defs>
  <ellipse class="cls-7" cx="125.61" cy="163.11" rx="125.61" ry="72.34"/>
  <text class="cls-10" transform="translate(28.11 178.25)"><tspan x="0" y="0">エリア検索</tspan></text>
  <g>
    <g>
      <path class="cls-9" d="M176.66,67.73c0,.9-1.37,1.77-1.42,2.66s1.22,1.91,1.13,2.79-1.55,1.61-1.69,2.49,1.01,2.02.82,2.9-1.71,1.43-1.95,2.3.79,2.12.5,2.97-1.86,1.24-2.19,2.07.55,2.19.18,3.01-1.98,1.03-2.4,1.82.31,2.24-.15,3.01-2.08.81-2.58,1.56.07,2.26-.47,2.98-2.15.58-2.73,1.27-.17,2.25-.79,2.91-2.2.35-2.85.97-.41,2.22-1.1,2.81-2.23.11-2.94.66-.65,2.16-1.39,2.67-2.22-.13-2.99.33-.88,2.08-1.67,2.5-2.2-.38-3.01,0-1.1,1.97-1.94,2.31-2.14-.61-2.99-.32-1.31,1.84-2.18,2.08-2.06-.84-2.94-.65-1.5,1.68-2.39,1.83-1.95-1.07-2.85-.97-1.68,1.51-2.58,1.56-1.83-1.27-2.73-1.27-1.84,1.32-2.73,1.27-1.69-1.46-2.58-1.56-1.97,1.11-2.85.97-1.52-1.64-2.39-1.83-2.08.89-2.94.65-1.33-1.79-2.18-2.08-2.16.66-2.99.32-1.12-1.93-1.94-2.31-2.22.42-3.01,0-.91-2.04-1.67-2.51-2.25.17-2.99-.33-.68-2.12-1.39-2.67-2.26-.07-2.94-.66-.45-2.19-1.1-2.81-2.24-.31-2.85-.97-.21-2.22-.79-2.91-2.19-.55-2.73-1.27.03-2.23-.47-2.98-2.12-.78-2.58-1.55.27-2.21-.15-3.01-2.02-1.01-2.4-1.82.51-2.17.18-3.01-1.9-1.22-2.19-2.07.74-2.1.5-2.97-1.76-1.41-1.95-2.3.96-2.01.82-2.9-1.59-1.6-1.69-2.49,1.17-1.89,1.13-2.79-1.42-1.76-1.42-2.66,1.37-1.77,1.42-2.66-1.22-1.91-1.13-2.79,1.55-1.61,1.69-2.49-1.01-2.02-.82-2.9,1.71-1.43,1.95-2.3-.79-2.12-.5-2.97,1.86-1.24,2.19-2.07-.55-2.19-.18-3.01,1.98-1.03,2.4-1.82-.31-2.24.15-3.01,2.08-.81,2.58-1.56-.07-2.26.47-2.98,2.15-.58,2.73-1.27.17-2.25.79-2.91,2.2-.35,2.85-.97.41-2.22,1.1-2.81,2.23-.11,2.94-.66.65-2.16,1.39-2.67,2.22.13,2.99-.33.88-2.08,1.67-2.5,2.2.38,3.01,0,1.1-1.97,1.94-2.31,2.14.61,2.99.32,1.31-1.84,2.18-2.08,2.06.84,2.94.65,1.5-1.68,2.39-1.83,1.95,1.07,2.85.97,1.68-1.51,2.58-1.56,1.83,1.27,2.73,1.27,1.84-1.32,2.73-1.27,1.69,1.46,2.58,1.56,1.97-1.11,2.85-.97,1.52,1.64,2.39,1.83,2.08-.89,2.94-.65,1.33,1.79,2.18,2.08,2.16-.66,2.99-.32,1.12,1.93,1.94,2.31,2.22-.42,3.01,0,.91,2.04,1.67,2.51,2.25-.17,2.99.33.68,2.12,1.39,2.67,2.26.07,2.94.66.45,2.19,1.1,2.81,2.24.31,2.85.97.21,2.22.79,2.91,2.19.55,2.73,1.27-.03,2.23.47,2.98,2.12.78,2.58,1.55-.27,2.21.15,3.01,2.02,1.01,2.4,1.82-.51,2.17-.18,3.01,1.9,1.22,2.19,2.07-.74,2.1-.5,2.97,1.76,1.41,1.95,2.3-.96,2.01-.82,2.9,1.59,1.6,1.69,2.49-1.17,1.89-1.13,2.79,1.42,1.76,1.42,2.66Z"/>
      <path class="cls-2" d="M176.66,67.73c0,.9-1.37,1.77-1.42,2.66s1.22,1.91,1.13,2.79-1.55,1.61-1.69,2.49,1.01,2.02.82,2.9-1.71,1.43-1.95,2.3.79,2.12.5,2.97-1.86,1.24-2.19,2.07.55,2.19.18,3.01-1.98,1.03-2.4,1.82.31,2.24-.15,3.01-2.08.81-2.58,1.56.07,2.26-.47,2.98-2.15.58-2.73,1.27-.17,2.25-.79,2.91-2.2.35-2.85.97-.41,2.22-1.1,2.81-2.23.11-2.94.66-.65,2.16-1.39,2.67-2.22-.13-2.99.33-.88,2.08-1.67,2.5-2.2-.38-3.01,0-1.1,1.97-1.94,2.31-2.14-.61-2.99-.32-1.31,1.84-2.18,2.08-2.06-.84-2.94-.65-1.5,1.68-2.39,1.83-1.95-1.07-2.85-.97-1.68,1.51-2.58,1.56-1.83-1.27-2.73-1.27-1.84,1.32-2.73,1.27-1.69-1.46-2.58-1.56-1.97,1.11-2.85.97-1.52-1.64-2.39-1.83-2.08.89-2.94.65-1.33-1.79-2.18-2.08-2.16.66-2.99.32-1.12-1.93-1.94-2.31-2.22.42-3.01,0-.91-2.04-1.67-2.51-2.25.17-2.99-.33-.68-2.12-1.39-2.67-2.26-.07-2.94-.66-.45-2.19-1.1-2.81-2.24-.31-2.85-.97-.21-2.22-.79-2.91-2.19-.55-2.73-1.27.03-2.23-.47-2.98-2.12-.78-2.58-1.55.27-2.21-.15-3.01-2.02-1.01-2.4-1.82.51-2.17.18-3.01-1.9-1.22-2.19-2.07.74-2.1.5-2.97-1.76-1.41-1.95-2.3.96-2.01.82-2.9-1.59-1.6-1.69-2.49,1.17-1.89,1.13-2.79-1.42-1.76-1.42-2.66,1.37-1.77,1.42-2.66-1.22-1.91-1.13-2.79,1.55-1.61,1.69-2.49-1.01-2.02-.82-2.9,1.71-1.43,1.95-2.3-.79-2.12-.5-2.97,1.86-1.24,2.19-2.07-.55-2.19-.18-3.01,1.98-1.03,2.4-1.82-.31-2.24.15-3.01,2.08-.81,2.58-1.56-.07-2.26.47-2.98,2.15-.58,2.73-1.27.17-2.25.79-2.91,2.2-.35,2.85-.97.41-2.22,1.1-2.81,2.23-.11,2.94-.66.65-2.16,1.39-2.67,2.22.13,2.99-.33.88-2.08,1.67-2.5,2.2.38,3.01,0,1.1-1.97,1.94-2.31,2.14.61,2.99.32,1.31-1.84,2.18-2.08,2.06.84,2.94.65,1.5-1.68,2.39-1.83,1.95,1.07,2.85.97,1.68-1.51,2.58-1.56,1.83,1.27,2.73,1.27,1.84-1.32,2.73-1.27,1.69,1.46,2.58,1.56,1.97-1.11,2.85-.97,1.52,1.64,2.39,1.83,2.08-.89,2.94-.65,1.33,1.79,2.18,2.08,2.16-.66,2.99-.32,1.12,1.93,1.94,2.31,2.22-.42,3.01,0,.91,2.04,1.67,2.51,2.25-.17,2.99.33.68,2.12,1.39,2.67,2.26.07,2.94.66.45,2.19,1.1,2.81,2.24.31,2.85.97.21,2.22.79,2.91,2.19.55,2.73,1.27-.03,2.23.47,2.98,2.12.78,2.58,1.55-.27,2.21.15,3.01,2.02,1.01,2.4,1.82-.51,2.17-.18,3.01,1.9,1.22,2.19,2.07-.74,2.1-.5,2.97,1.76,1.41,1.95,2.3-.96,2.01-.82,2.9,1.59,1.6,1.69,2.49-1.17,1.89-1.13,2.79,1.42,1.76,1.42,2.66Z"/>
    </g>
    <g>
      <path class="cls-8" d="M176.66,67.73c0,.9-1.37,1.77-1.42,2.66s1.22,1.91,1.13,2.79-1.55,1.61-1.69,2.49,1.01,2.02.82,2.9-1.71,1.43-1.95,2.3.79,2.12.5,2.97-1.86,1.24-2.19,2.07.55,2.19.18,3.01-1.98,1.03-2.4,1.82.31,2.24-.15,3.01-2.08.81-2.58,1.56.07,2.26-.47,2.98-2.15.58-2.73,1.27-.17,2.25-.79,2.91-2.2.35-2.85.97-.41,2.22-1.1,2.81-2.23.11-2.94.66-.65,2.16-1.39,2.67-2.22-.13-2.99.33-.88,2.08-1.67,2.5-2.2-.38-3.01,0-1.1,1.97-1.94,2.31-2.14-.61-2.99-.32-1.31,1.84-2.18,2.08-2.06-.84-2.94-.65-1.5,1.68-2.39,1.83-1.95-1.07-2.85-.97-1.68,1.51-2.58,1.56-1.83-1.27-2.73-1.27-1.84,1.32-2.73,1.27-1.69-1.46-2.58-1.56-1.97,1.11-2.85.97-1.52-1.64-2.39-1.83-2.08.89-2.94.65-1.33-1.79-2.18-2.08-2.16.66-2.99.32-1.12-1.93-1.94-2.31-2.22.42-3.01,0-.91-2.04-1.67-2.51-2.25.17-2.99-.33-.68-2.12-1.39-2.67-2.26-.07-2.94-.66-.45-2.19-1.1-2.81-2.24-.31-2.85-.97-.21-2.22-.79-2.91-2.19-.55-2.73-1.27.03-2.23-.47-2.98-2.12-.78-2.58-1.55.27-2.21-.15-3.01-2.02-1.01-2.4-1.82.51-2.17.18-3.01-1.9-1.22-2.19-2.07.74-2.1.5-2.97-1.76-1.41-1.95-2.3.96-2.01.82-2.9-1.59-1.6-1.69-2.49,1.17-1.89,1.13-2.79-1.42-1.76-1.42-2.66,1.37-1.77,1.42-2.66-1.22-1.91-1.13-2.79,1.55-1.61,1.69-2.49-1.01-2.02-.82-2.9,1.71-1.43,1.95-2.3-.79-2.12-.5-2.97,1.86-1.24,2.19-2.07-.55-2.19-.18-3.01,1.98-1.03,2.4-1.82-.31-2.24.15-3.01,2.08-.81,2.58-1.56-.07-2.26.47-2.98,2.15-.58,2.73-1.27.17-2.25.79-2.91,2.2-.35,2.85-.97.41-2.22,1.1-2.81,2.23-.11,2.94-.66.65-2.16,1.39-2.67,2.22.13,2.99-.33.88-2.08,1.67-2.5,2.2.38,3.01,0,1.1-1.97,1.94-2.31,2.14.61,2.99.32,1.31-1.84,2.18-2.08,2.06.84,2.94.65,1.5-1.68,2.39-1.83,1.95,1.07,2.85.97,1.68-1.51,2.58-1.56,1.83,1.27,2.73,1.27,1.84-1.32,2.73-1.27,1.69,1.46,2.58,1.56,1.97-1.11,2.85-.97,1.52,1.64,2.39,1.83,2.08-.89,2.94-.65,1.33,1.79,2.18,2.08,2.16-.66,2.99-.32,1.12,1.93,1.94,2.31,2.22-.42,3.01,0,.91,2.04,1.67,2.51,2.25-.17,2.99.33.68,2.12,1.39,2.67,2.26.07,2.94.66.45,2.19,1.1,2.81,2.24.31,2.85.97.21,2.22.79,2.91,2.19.55,2.73,1.27-.03,2.23.47,2.98,2.12.78,2.58,1.55-.27,2.21.15,3.01,2.02,1.01,2.4,1.82-.51,2.17-.18,3.01,1.9,1.22,2.19,2.07-.74,2.1-.5,2.97,1.76,1.41,1.95,2.3-.96,2.01-.82,2.9,1.59,1.6,1.69,2.49-1.17,1.89-1.13,2.79,1.42,1.76,1.42,2.66Z"/>
      <path class="cls-1" d="M176.66,67.73c0,.9-1.37,1.77-1.42,2.66s1.22,1.91,1.13,2.79-1.55,1.61-1.69,2.49,1.01,2.02.82,2.9-1.71,1.43-1.95,2.3.79,2.12.5,2.97-1.86,1.24-2.19,2.07.55,2.19.18,3.01-1.98,1.03-2.4,1.82.31,2.24-.15,3.01-2.08.81-2.58,1.56.07,2.26-.47,2.98-2.15.58-2.73,1.27-.17,2.25-.79,2.91-2.2.35-2.85.97-.41,2.22-1.1,2.81-2.23.11-2.94.66-.65,2.16-1.39,2.67-2.22-.13-2.99.33-.88,2.08-1.67,2.5-2.2-.38-3.01,0-1.1,1.97-1.94,2.31-2.14-.61-2.99-.32-1.31,1.84-2.18,2.08-2.06-.84-2.94-.65-1.5,1.68-2.39,1.83-1.95-1.07-2.85-.97-1.68,1.51-2.58,1.56-1.83-1.27-2.73-1.27-1.84,1.32-2.73,1.27-1.69-1.46-2.58-1.56-1.97,1.11-2.85.97-1.52-1.64-2.39-1.83-2.08.89-2.94.65-1.33-1.79-2.18-2.08-2.16.66-2.99.32-1.12-1.93-1.94-2.31-2.22.42-3.01,0-.91-2.04-1.67-2.51-2.25.17-2.99-.33-.68-2.12-1.39-2.67-2.26-.07-2.94-.66-.45-2.19-1.1-2.81-2.24-.31-2.85-.97-.21-2.22-.79-2.91-2.19-.55-2.73-1.27.03-2.23-.47-2.98-2.12-.78-2.58-1.55.27-2.21-.15-3.01-2.02-1.01-2.4-1.82.51-2.17.18-3.01-1.9-1.22-2.19-2.07.74-2.1.5-2.97-1.76-1.41-1.95-2.3.96-2.01.82-2.9-1.59-1.6-1.69-2.49,1.17-1.89,1.13-2.79-1.42-1.76-1.42-2.66,1.37-1.77,1.42-2.66-1.22-1.91-1.13-2.79,1.55-1.61,1.69-2.49-1.01-2.02-.82-2.9,1.71-1.43,1.95-2.3-.79-2.12-.5-2.97,1.86-1.24,2.19-2.07-.55-2.19-.18-3.01,1.98-1.03,2.4-1.82-.31-2.24.15-3.01,2.08-.81,2.58-1.56-.07-2.26.47-2.98,2.15-.58,2.73-1.27.17-2.25.79-2.91,2.2-.35,2.85-.97.41-2.22,1.1-2.81,2.23-.11,2.94-.66.65-2.16,1.39-2.67,2.22.13,2.99-.33.88-2.08,1.67-2.5,2.2.38,3.01,0,1.1-1.97,1.94-2.31,2.14.61,2.99.32,1.31-1.84,2.18-2.08,2.06.84,2.94.65,1.5-1.68,2.39-1.83,1.95,1.07,2.85.97,1.68-1.51,2.58-1.56,1.83,1.27,2.73,1.27,1.84-1.32,2.73-1.27,1.69,1.46,2.58,1.56,1.97-1.11,2.85-.97,1.52,1.64,2.39,1.83,2.08-.89,2.94-.65,1.33,1.79,2.18,2.08,2.16-.66,2.99-.32,1.12,1.93,1.94,2.31,2.22-.42,3.01,0,.91,2.04,1.67,2.51,2.25-.17,2.99.33.68,2.12,1.39,2.67,2.26.07,2.94.66.45,2.19,1.1,2.81,2.24.31,2.85.97.21,2.22.79,2.91,2.19.55,2.73,1.27-.03,2.23.47,2.98,2.12.78,2.58,1.55-.27,2.21.15,3.01,2.02,1.01,2.4,1.82-.51,2.17-.18,3.01,1.9,1.22,2.19,2.07-.74,2.1-.5,2.97,1.76,1.41,1.95,2.3-.96,2.01-.82,2.9,1.59,1.6,1.69,2.49-1.17,1.89-1.13,2.79,1.42,1.76,1.42,2.66Z"/>
    </g>
    <path class="cls-5" d="M120.13,42.1c-.83.94-2.07,1.32-2.76.85s-.58-1.6.25-2.54,2.07-1.32,2.76-.85.58,1.6-.25,2.54Z"/>
    <path class="cls-5" d="M132.45,42.1c.83.94,2.07,1.32,2.76.85s.58-1.6-.25-2.54-2.07-1.32-2.76-.85-.58,1.6.25,2.54Z"/>
    <path class="cls-6" d="M120.47,44.96c-.12-.03-.22-.3-.32-.29-.12.01-.14.31-.24.36-.1.06-.37-.06-.43.03s.15.29.14.4c0,.11-.24.28-.18.39.22.39.75.66,1.22,1.08.36.32.65.85,1.19,1.12.44.21,1.03.15,1.61.3.48.12.96.49,1.54.55.5.05,1.05-.19,1.64-.19s1.09.25,1.56.2c.57-.06,1.02-.42,1.47-.54.56-.15,1.13-.08,1.54-.29.52-.27.76-.8,1.07-1.13.41-.43.89-.75,1.04-1.16.04-.11-.21-.24-.23-.35s.17-.32.1-.41-.32.06-.42.01c-.1-.05-.13-.34-.25-.34-.11,0-.18.27-.3.31-.34.11-.82-.05-1.29.06-.37.09-.74.44-1.18.51-.39.06-.85-.15-1.29-.11-.4.04-.8.34-1.24.36-.41.02-.83-.25-1.27-.26-.35,0-.74.24-1.12.2-.36-.04-.69-.36-1.06-.42s-.78.15-1.14.07-.68-.42-1.03-.5c-.39-.09-.82.09-1.14,0Z"/>
    <path class="cls-4" d="M78.15,74.73c-4.72,3.11-10.66,8.2-13.39,15.72-.3.83-.55,1.64-.75,2.44"/>
    <ellipse class="cls-3" cx="63.5" cy="95.23" rx="3.82" ry="3.04" transform="translate(-44.8 132.27) rotate(-75.19)"/>
    <path class="cls-4" d="M174.8,74.42c4.72,3.11,10.66,8.2,13.39,15.72.3.83.55,1.64.75,2.44"/>
    <ellipse class="cls-3" cx="190.66" cy="96.09" rx="3.04" ry="3.82" transform="translate(-18.23 51.93) rotate(-14.81)"/>
    <path class="cls-4" d="M104.26,112.07c-2.9,4.49-6.01,11.22-5.06,19.06.1.86.25,1.7.43,2.5"/>
    <ellipse class="cls-3" cx="100.23" cy="135.96" rx="3.04" ry="3.82" transform="translate(-33.51 32.79) rotate(-15.96)"/>
    <path class="cls-4" d="M148.89,111.62c2.9,4.49,6.01,11.22,5.06,19.06-.1.86-.25,1.7-.43,2.5"/>
    <ellipse class="cls-3" cx="153.13" cy="135.96" rx="3.82" ry="3.04" transform="translate(-19.68 245.82) rotate(-74.04)"/>
  </g>
</svg>