<?xml version="1.0" encoding="UTF-8"?>
<svg id="_レイヤー_1" data-name=" レイヤー 1" xmlns="http://www.w3.org/2000/svg" viewBox="0 0 287.22 87.62">
  <defs>
    <style>
      .cls-1 {
        isolation: isolate;
      }

      .cls-2 {
        stroke-width: 2.5px;
      }

      .cls-2, .cls-3 {
        fill: none;
        stroke: #30acd0;
        stroke-miterlimit: 10;
      }

      .cls-4 {
        fill: #30acd0;
      }

      .cls-5 {
        fill: tomato;
      }

      .cls-3 {
        stroke-width: 3px;
      }
    </style>
  </defs>
  <g>
    <path class="cls-2" d="M282.02,29.72c-18.1-9.8-49-23.7-89.8-27.5C129.22-3.58,81.02,18.02,61.52,28.12"/>
    <path class="cls-5" d="M54.32,35.32c-1,1-2.6,.9-3.6-.1-.1-.2-.3-.3-.4-.5,.5,.4,1.3,.3,1.8-.2,.6-.5,.6-1.5,.1-2s-1.3-.6-1.9-.2c.1-.3,.3-.5,.5-.7,1-1,2.6-.9,3.6,.1,1,1.1,.9,2.7-.1,3.6Z"/>
    <path class="cls-5" d="M28.82,42.02c-.8,1.3-1.5,2.7-2.1,4,.8-.2,1.7-.4,2.7-.3,4.1,.3,6,3.6,8.5,5.7-.4-.6-.5-1.3-.3-2-.8,.2-1.7-.1-2.3-.7s-.8-1.5-.6-2.4c-.8,.2-1.7-.1-2.3-.7-1-1-.9-2.6,.1-3.5,.2-.1,.4-.1,.5,0,.1,.2,.1,.4,0,.5-.7,.7-.7,1.8-.1,2.5s1.8,.7,2.5,.1c.2-.1,.4-.1,.5,0,.1,.2,.1,.4,0,.5-.7,.7-.7,1.8-.1,2.5,.7,.7,1.8,.7,2.5,.1,.2-.1,.4-.1,.5,0,.1,.2,.1,.4,0,.5-.7,.7-.7,1.8-.1,2.5s1.8,.7,2.5,.1c.2-.1,.4-.1,.5,0,.1,.2,.1,.4,0,.5-.4,.3-.5,.8-.5,1.2,.4,.1,.9,.2,1.3,.2,2.1,0,3.7-.9,5-2.2-.6,0-1.2-.3-1.7-.8-.6-.7-.8-1.5-.6-2.4-.8,.2-1.7-.1-2.3-.7s-.8-1.5-.6-2.4c-.8,.2-1.7-.1-2.3-.7s-.8-1.5-.6-2.4c-.8,.2-1.7-.1-2.3-.7-1-1-.9-2.6,.1-3.5,.2-.1,.4-.1,.5,0,.1,.2,.1,.4,0,.5-.7,.8-.7,2-.1,2.7s1.8,.7,2.5,.1c.2-.1,.4-.1,.5,0,.1,.2,.1,.4,0,.5-.7,.7-.7,1.8-.1,2.5,.7,.7,1.8,.7,2.5,.1,.2-.1,.4-.1,.5,0s.1,.4,0,.5c-.7,.7-.7,1.8-.1,2.5s1.8,.7,2.5,.1c.2-.1,.4-.1,.5,0,.1,.2,.1,.4,0,.5-.7,.7-.7,1.8-.1,2.5,.5,.6,1.4,.7,2.1,.3,2-2,3.9-4.3,7.3-4.6h1.5c3.2-6.2,4.4-12.6,4.6-16.2h0v-.1c.1-.1,.1-.5,0-.9,0,0-.1-.2-.3-.5-.1-.2-.4-.5-.8-.9-.2-.2-.5-.4-.8-.6-2.8-.1-6.6,0-10.9,1.1-6.8,1.7-11.7,5-14.3,7.2h-1.2l-3.8,.6c-2.9,.4-3.8,2.7-2,5l1.1,1.6h0Zm21.7-10.9c1.3-1.2,3.4-1.2,4.6,.1,1.2,1.3,1.2,3.4-.1,4.6-1.3,1.2-3.4,1.2-4.6-.1-1.3-1.3-1.2-3.4,.1-4.6Zm-8.1,2.1c0-.3,.3-.5,.6-.5s.5,.3,.5,.6c0,0-.2,4.1,3.2,7.7,3.3,3.5,7.3,3.4,7.3,3.4,.3,0,.6,.2,.6,.5,0,.2-.1,.3-.2,.4s-.2,.2-.4,.2-4.5,.1-8.2-3.8c-3.6-3.9-3.4-8.3-3.4-8.5h0Z"/>
    <g class="cls-1">
      <path class="cls-4" d="M96.32,32.42c-.2,0-.3-.1-.4-.2-.1-.1-.2-.3-.2-.4v-6.8c0-.2,.1-.3,.2-.4s.3-.2,.4-.2h3.6c.2,0,.3,.1,.4,.2s.2,.3,.2,.4c0,.2-.1,.3-.2,.4s-.3,.2-.4,.2h-2.6q-.1,0-.1,.1v1.9q0,.1,.1,.1h2.4c.2,0,.3,.1,.4,.2s.2,.3,.2,.4-.1,.3-.2,.4-.3,.2-.4,.2h-2.4q-.1,0-.1,.1v2.8c0,.2-.1,.3-.2,.4s-.3,.2-.4,.2h-.3Z"/>
      <path class="cls-4" d="M105.22,32.42c-.2,0-.3-.1-.4-.2-.1-.1-.2-.3-.2-.4v-6.8c0-.2,.1-.3,.2-.4s.3-.2,.4-.2h.4c.2,0,.3,.1,.4,.2s.2,.3,.2,.4v6.8c0,.2-.1,.3-.2,.4-.1,.1-.3,.2-.4,.2h-.4Z"/>
      <path class="cls-4" d="M112.62,29.02c-.9-.3-1.5-.6-1.9-1.1-.4-.4-.6-.9-.6-1.5,0-.7,.2-1.2,.7-1.6,.4-.4,1.1-.6,1.9-.6,.7,0,1.3,.1,1.8,.2,.2,.1,.3,.2,.4,.3,.1,.2,.2,.3,.2,.5v.1c0,.1-.1,.2-.2,.3-.1,.1-.3,.1-.4,0-.5-.2-1.1-.3-1.7-.3-.4,0-.6,.1-.8,.3s-.3,.4-.3,.7c0,.5,.3,.9,1,1.1,1,.3,1.7,.7,2.1,1.1s.6,.9,.6,1.6c0,1.5-.9,2.3-2.8,2.3-.6,0-1.1-.1-1.6-.3-.2-.1-.3-.2-.4-.3-.1-.2-.1-.3-.1-.5v-.1c0-.1,.1-.2,.2-.3s.2-.1,.4,0c.5,.2,1,.4,1.5,.4,.9,0,1.4-.4,1.4-1.1,0-.3-.1-.5-.3-.7-.3-.2-.6-.4-1.1-.5Z"/>
      <path class="cls-4" d="M119.62,32.42c-.2,0-.3-.1-.4-.2-.1-.1-.2-.3-.2-.4v-6.8c0-.2,.1-.3,.2-.4s.3-.2,.4-.2h.3c.2,0,.3,.1,.4,.2s.2,.3,.2,.4v2.5q0,.1,.1,.1h2.8q.1,0,.1-.1v-2.5c0-.2,.1-.3,.2-.4s.3-.2,.4-.2h.3c.2,0,.3,.1,.4,.2s.2,.3,.2,.4v6.8c0,.2-.1,.3-.2,.4-.1,.1-.3,.2-.4,.2h-.3c-.2,0-.3-.1-.4-.2-.1-.1-.2-.3-.2-.4v-2.9q0-.1-.1-.1h-2.8q-.1,0-.1,.1v2.9c0,.2-.1,.3-.2,.4s-.3,.2-.4,.2h-.3Z"/>
      <path class="cls-4" d="M129.82,32.42c-.2,0-.3-.1-.4-.2-.1-.1-.2-.3-.2-.4v-6.8c0-.2,.1-.3,.2-.4s.3-.2,.4-.2h.4c.2,0,.3,.1,.4,.2,.1,.1,.2,.3,.2,.4v6.8c0,.2-.1,.3-.2,.4-.1,.1-.3,.2-.4,.2h-.4Z"/>
      <path class="cls-4" d="M135.72,32.42c-.2,0-.3-.1-.4-.2-.1-.1-.2-.3-.2-.4v-6.8c0-.2,.1-.3,.2-.4,.1-.1,.3-.2,.4-.2h.2c.4,0,.7,.2,.9,.5l2.7,4.9h0v-4.8c0-.2,.1-.3,.2-.4,.1-.1,.3-.2,.4-.2h.2c.2,0,.3,.1,.4,.2s.2,.3,.2,.4v6.8c0,.2-.1,.3-.2,.4-.1,.1-.3,.2-.4,.2h-.2c-.4,0-.7-.2-.9-.5l-2.7-4.9h0v4.8c0,.2-.1,.3-.2,.4-.1,.1-.3,.2-.4,.2,0,0-.2,0-.2,0Z"/>
      <path class="cls-4" d="M148.42,32.52c-1.2,0-2.1-.4-2.9-1.1-.7-.7-1.1-1.7-1.1-3s.4-2.3,1.1-3c.7-.7,1.7-1.1,3-1.1,.5,0,1,0,1.4,.1,.2,0,.3,.1,.4,.3s.2,.3,.2,.5h0c0,.2-.1,.3-.2,.4-.1,.1-.3,.1-.4,.1-.4-.1-.9-.1-1.3-.1-.9,0-1.6,.2-2,.7s-.7,1.2-.7,2.2c0,.9,.2,1.6,.7,2.2,.5,.5,1.1,.8,1.8,.8,.3,0,.6,0,.9-.1,.1,0,.1-.1,.1-.1v-2.2q0-.1-.1-.1h-1.4c-.2,0-.3-.1-.4-.2-.1-.1-.2-.3-.2-.4,0-.2,.1-.3,.2-.4,.1-.1,.3-.2,.4-.2h2.3c.2,0,.3,.1,.4,.2,.1,.1,.2,.3,.2,.4v3.2c0,.2-.1,.4-.2,.5-.1,.2-.3,.3-.4,.3-.4,0-1,.1-1.8,.1Z"/>
      <path class="cls-4" d="M168.52,25.62c-.2,0-.3-.1-.4-.2-.1-.1-.2-.3-.2-.4h0c0-.2,.1-.3,.2-.4,.1-.1,.3-.2,.4-.2h4.7c.2,0,.3,.1,.4,.2s.2,.3,.2,.4h0c0,.2-.1,.3-.2,.4s-.3,.2-.4,.2h-1.5q-.1,0-.1,.1v6c0,.2-.1,.3-.2,.4-.1,.1-.3,.2-.4,.2h-.3c-.2,0-.3-.1-.4-.2-.1-.1-.2-.3-.2-.4v-6q0-.1-.1-.1s-1.5,0-1.5,0Z"/>
      <path class="cls-4" d="M182.92,31.42c-.7,.7-1.5,1.1-2.7,1.1-1.1,0-2-.4-2.7-1.1-.7-.7-1-1.7-1-3s.3-2.3,1-3,1.5-1.1,2.7-1.1c1.1,0,2,.4,2.7,1.1s1,1.7,1,3-.4,2.3-1,3Zm-.6-3c0-1.9-.7-2.9-2.1-2.9s-2.1,1-2.1,2.9,.7,2.9,2.1,2.9c1.4-.1,2.1-1,2.1-2.9Z"/>
      <path class="cls-4" d="M187.92,32.42c-.2,0-.3-.1-.4-.2-.1-.1-.2-.3-.2-.4v-6.8c0-.2,.1-.3,.2-.4s.3-.2,.4-.2h.3c.2,0,.3,.1,.4,.2,.1,.1,.2,.3,.2,.4v2.8h0l2.2-3c.2-.3,.6-.5,1-.5h.6c.1,0,.2,.1,.3,.2s0,.2,0,.3l-2.5,3.3v.2l2.7,3.6c.1,.1,.1,.2,0,.3s-.2,.2-.3,.2h-.5c-.4,0-.7-.2-1-.5l-2.3-3.3h0v3.2c0,.2-.1,.3-.2,.4-.1,.1-.3,.2-.4,.2,0,0-.5,0-.5,0Z"/>
      <path class="cls-4" d="M199.12,32.52c-2,0-3-1-3-3v-4.5c0-.2,.1-.3,.2-.4s.3-.2,.4-.2h.3c.2,0,.3,.1,.4,.2,.1,.1,.2,.3,.2,.4v4.6c0,.6,.1,1,.3,1.2,.2,.3,.6,.4,1.1,.4s.9-.1,1.1-.4c.2-.3,.3-.7,.3-1.2v-4.6c0-.2,.1-.3,.2-.4s.3-.2,.4-.2h.3c.2,0,.3,.1,.4,.2,.1,.1,.2,.3,.2,.4v4.5c.1,2-.9,3-2.8,3Z"/>
      <path class="cls-4" d="M208.02,29.02c-.9-.3-1.5-.6-1.9-1.1s-.6-.9-.6-1.5c0-.7,.2-1.2,.7-1.6,.4-.4,1.1-.6,1.9-.6,.7,0,1.3,.1,1.8,.2,.2,.1,.3,.2,.4,.3,.1,.2,.2,.3,.2,.5v.1c0,.1-.1,.2-.2,.3s-.3,.1-.4,0c-.5-.2-1.1-.3-1.7-.3-.4,0-.6,.1-.8,.3-.2,.2-.3,.4-.3,.7,0,.5,.3,.9,1,1.1,1,.3,1.7,.7,2.1,1.1,.4,.4,.6,.9,.6,1.6,0,1.5-1,2.3-2.8,2.3-.6,0-1.1-.1-1.6-.3-.2-.1-.3-.2-.4-.3s-.1-.3-.1-.5v-.1c0-.1,.1-.2,.2-.3s.2-.1,.4,0c.5,.2,1,.4,1.5,.4,.9,0,1.4-.4,1.4-1.1,0-.3-.1-.5-.3-.7-.4-.2-.7-.4-1.1-.5Z"/>
      <path class="cls-4" d="M215.02,32.42c-.2,0-.3-.1-.4-.2-.1-.1-.2-.3-.2-.4v-6.8c0-.2,.1-.3,.2-.4,.1-.1,.3-.2,.4-.2h.3c.2,0,.3,.1,.4,.2s.2,.3,.2,.4v2.5q0,.1,.1,.1h2.8q.1,0,.1-.1v-2.5c0-.2,.1-.3,.2-.4,.1-.1,.3-.2,.4-.2h.3c.2,0,.3,.1,.4,.2s.2,.3,.2,.4v6.8c0,.2-.1,.3-.2,.4-.1,.1-.3,.2-.4,.2h-.3c-.2,0-.3-.1-.4-.2-.1-.1-.2-.3-.2-.4v-2.9q0-.1-.1-.1h-2.8q-.1,0-.1,.1v2.9c0,.2-.1,.3-.2,.4-.1,.1-.3,.2-.4,.2h-.3Z"/>
      <path class="cls-4" d="M225.12,32.42c-.2,0-.3-.1-.4-.2-.1-.1-.2-.3-.2-.4v-6.8c0-.2,.1-.3,.2-.4,.1-.1,.3-.2,.4-.2h.4c.2,0,.3,.1,.4,.2,.1,.1,.2,.3,.2,.4v6.8c0,.2-.1,.3-.2,.4-.1,.1-.3,.2-.4,.2h-.4Z"/>
      <path class="cls-4" d="M231.02,32.42c-.2,0-.3-.1-.4-.2-.1-.1-.2-.3-.2-.4v-6.8c0-.2,.1-.3,.2-.4s.3-.2,.4-.2h.3c.2,0,.4,.1,.5,.2s.3,.2,.4,.4l1.9,4.2h0l1.9-4.2c.1-.2,.2-.3,.4-.4s.3-.2,.5-.2h.3c.2,0,.3,.1,.4,.2,.1,.1,.2,.3,.2,.4v6.8c0,.2-.1,.3-.2,.4-.1,.1-.3,.2-.4,.2h-.2c-.2,0-.3-.1-.4-.2-.1-.1-.2-.3-.2-.4v-4.8h0l-1.3,2.8c-.1,.2-.2,.3-.4,.4s-.3,.2-.5,.2h-.1c-.2,0-.4-.1-.5-.2-.2-.1-.3-.2-.4-.4l-1.3-2.8h0v4.8c0,.2-.1,.3-.2,.4-.1,.1-.3,.2-.4,.2h-.3Z"/>
      <path class="cls-4" d="M241.72,32.42c-.2,0-.3-.1-.4-.2-.1-.1-.1-.3-.1-.4l2.3-6.8c.1-.2,.2-.3,.3-.4,.2-.1,.3-.2,.5-.2h.4c.2,0,.4,.1,.5,.2,.2,.1,.3,.3,.3,.4l2.3,6.8c.1,.1,0,.3-.1,.4-.1,.1-.2,.2-.4,.2h-.4c-.2,0-.3-.1-.5-.2-.2-.1-.3-.3-.3-.4l-.4-1.2q0-.1-.1-.1h-2.5q-.1,0-.1,.1l-.4,1.2c0,.2-.1,.3-.3,.4s-.3,.2-.5,.2h-.1Zm2.8-6.7l-1,3.5v.1h2v-.1l-1-3.5q.1,0,0,0c.1,0,0,0,0,0Z"/>
    </g>
    <g class="cls-1">
      <path class="cls-4" d="M84.02,51.52l-.1-.7c-.3-1.6,.2-3,1.5-4.2,1.6-1.4,3.1-3,4.7-4.8,1.1-1.3,2.5-1.9,4.2-1.9h.2c1.7,0,3.2,.6,4.4,1.8,1.3,1.3,2.5,2.3,3.4,3,.6,.5,1,1,1.1,1.7,.2,.7,.1,1.4-.3,2l-.5,.8c-.1,.2-.2,.5-.2,.7v.5c0,.7-.2,1.3-.7,1.8s-1.1,.8-1.8,.8h-2.6c-.3,0-.4,.1-.4,.4v2.9c0,.3,.1,.4,.4,.4h3.3c.7,0,1.2,.2,1.7,.7s.7,1,.7,1.7-.2,1.2-.7,1.7-1,.7-1.7,.7h-3.3c-.3,0-.4,.1-.4,.4v10.4c0,.2,.1,.3,.4,.3,.4-.1,1-.2,1.9-.4,.8-.2,1.4-.3,1.8-.4,.6-.2,1.2,0,1.7,.3,.5,.4,.8,.9,.8,1.5,.1,.7-.1,1.3-.5,1.9s-1,.9-1.6,1.1c-4.9,1.1-9.6,2.1-14.2,2.9-.7,.1-1.3,0-1.8-.4s-.9-.9-1-1.6,.1-1.3,.5-1.8,.9-.9,1.6-1c2-.3,3.5-.5,4.5-.7,.2,0,.3-.2,.3-.5v-11.6c0-.2-.1-.4-.4-.4h-3.9c-.7,0-1.2-.2-1.7-.7s-.7-1-.7-1.7,.2-1.2,.7-1.7,1-.7,1.7-.7h3.8c.3,0,.4-.1,.4-.4v-2.9c0-.3-.1-.4-.4-.4h-2.2c-.3,0-.6-.1-.9-.4-.3-.3-.4-.5-.4-.9l-.1-.1-.8,.7c-.5,.4-1,.5-1.5,.3-.4-.1-.8-.5-.9-1.1Zm5.8,19.4c-.3,.5-.8,.8-1.3,.9s-1,0-1.5-.3c-.4-.3-.7-.7-.8-1.3-.6-2.9-.9-4.4-.9-4.4-.1-.5,0-1,.2-1.5,.3-.5,.7-.7,1.2-.9,.5-.1,1,0,1.5,.2,.5,.3,.8,.7,.9,1.2,.5,2.4,.9,3.8,1,4.4,.1,.7,0,1.3-.3,1.7Zm1.1-22.7c-.1,0-.1,.1,0,.2,0,.1,.1,.1,.2,.1h7.9q.1,0,.1-.1v-.2c-1.4-1.3-2.8-2.7-4.2-4.2-.2-.2-.3-.2-.5,0-1,1.4-2.2,2.8-3.5,4.2Zm10.3,14.9c.5,.1,1,.3,1.3,.7,.3,.4,.5,.9,.4,1.5-.1,.4-.2,1.1-.4,1.9-.2,.8-.3,1.3-.3,1.4-.1,.5-.4,1-.9,1.3s-1,.4-1.5,.3-1-.4-1.3-.8c-.3-.5-.4-1-.3-1.5s.3-1.6,.6-3.1c.1-.5,.4-1,.8-1.3,.5-.4,1-.5,1.6-.4Zm21.8-18.9c.7,0,1.3,.2,1.8,.7s.7,1.1,.7,1.8c-.1,5.5-.2,10-.3,13.6-.1,3.5-.3,6.6-.5,9.3-.2,2.6-.5,4.6-.7,5.9s-.6,2.4-1.1,3.1c-.5,.8-1,1.2-1.5,1.4-.5,.2-1.2,.2-2.1,.2-1.1,0-3.5-.1-7.3-.2-.7,0-1.4-.3-1.9-.8s-.8-1.1-.9-1.9v-.1c0-.7,.2-1.2,.6-1.7,.5-.5,1-.7,1.7-.7,2,.1,3.7,.1,5,.1,.5,0,1-.2,1.2-.5,.3-.4,.5-1.4,.8-3.1s.5-4.2,.6-7.5c.2-3.3,.3-8,.5-14.1,0-.3-.1-.4-.4-.4h-7.8c-.3,0-.5,.1-.5,.4-.8,1.9-1.8,3.8-2.9,5.7v.2s.1,.1,.1,0l1.4-.6c.7-.3,1.3-.3,2-.1s1.2,.7,1.5,1.3c1.4,2.8,2.6,5.4,3.6,7.7,.3,.6,.3,1.3,0,1.9s-.8,1.1-1.4,1.4l-.1,.1c-.7,.3-1.3,.3-1.9,0s-1.1-.8-1.4-1.4c-1.3-3-2.7-6-4.3-8.9-.1-.2-.2-.2-.4,0-.4,.6-.9,.9-1.6,1s-1.3-.1-1.7-.6l-.5-.5c-.5-.5-.9-1.1-.9-1.8-.1-.7,.1-1.4,.5-2,2.2-3.5,3.9-7.3,5.1-11.5,.2-.7,.6-1.3,1.2-1.7s1.2-.6,2-.5h.5c.7,.1,1.2,.4,1.6,1s.5,1.2,.3,1.9c-.1,.2-.1,.5-.2,.9s-.2,.6-.2,.9c-.1,.2,0,.4,.3,.4h9.5v-.3Z"/>
    </g>
    <path class="cls-3" d="M29.62,47.12c6.2,.5,7.2,7.6,13.1,7.7,5.9,0,7.1-7.2,13.3-7.7,7-.5,9.3,8.5,16.4,8.1,1.6-.1,2.9-.6,4.1-1.4,.3-1.8,.4-3.6,.4-5.5,0-20.8-16.9-37.7-37.7-37.7S1.92,27.12,1.52,47.72c4,1.8,6.6,6.9,12.3,6.9,7.3-.1,9.1-8.1,15.8-7.5h0Z"/>
    <path class="cls-3" d="M72.42,64.52c-7.1,.4-9.4-8.6-16.4-8.1-6.2,.4-7.4,7.7-13.3,7.7-5.8-.1-6.8-7.1-13.1-7.7-6.7-.6-8.5,7.4-15.8,7.4-5.2,0-7.8-4.1-11.2-6.2,1.4,5.5,4,10.6,7.6,14.9,1.1,.4,2.2,.7,3.6,.7,7.2,0,9.1-8,15.8-7.4,6.2,.5,7.2,7.6,13.1,7.7s7.1-7.2,13.3-7.7c5.3-.4,7.9,4.7,12,7,2.1-2.5,4-5.3,5.4-8.3-.4,0-.7,0-1,0h0Z"/>
    <path class="cls-3" d="M29.62,56.42c6.2,.5,7.2,7.6,13.1,7.7s7.1-7.2,13.3-7.7c7-.5,9.3,8.5,16.4,8.1,.3,0,.6-.1,.9-.1,1.6-3.3,2.7-6.9,3.2-10.6-1.2,.8-2.5,1.3-4.1,1.4-7.1,.4-9.4-8.6-16.4-8.1-6.2,.4-7.4,7.7-13.3,7.7s-6.8-7.1-13.1-7.7c-6.7-.6-8.5,7.4-15.8,7.4-5.8,0-8.4-5.1-12.3-6.9v.7c0,3.2,.4,6.3,1.2,9.3,3.4,2.1,6,6.3,11.2,6.2,7.1,0,9-7.9,15.7-7.4h0Z"/>
    <path class="cls-3" d="M56.02,65.82c-6.2,.4-7.4,7.7-13.3,7.7-5.8-.1-6.8-7.1-13.1-7.7-6.7-.6-8.5,7.4-15.8,7.4-1.4,0-2.5-.3-3.6-.7,6.9,8.3,17.3,13.6,29,13.6s21.8-5.2,28.7-13.3c-4-2.4-6.6-7.4-11.9-7h0Z"/>
    <path class="cls-4" d="M134.52,58.12v-.1c-.1-.7,0-1.3,.4-2,.4-.6,.9-1,1.6-1.1,6.4-1.4,11.1-2.1,14.1-2.1,9.3,0,13.9,3.9,13.9,11.6,0,9.3-7.1,14.1-21.2,14.6-.7,0-1.4-.2-1.9-.7-.6-.5-.9-1.1-.9-1.8h0c-.1-.7,.1-1.3,.6-1.8s1.1-.8,1.7-.8c5.6-.2,9.6-1.1,12.1-2.6s3.7-3.7,3.7-6.5c0-2.3-.7-4-2.1-5.1-1.4-1.1-3.6-1.6-6.6-1.6-2.5,0-6.7,.7-12.5,2-.7,.2-1.3,0-1.9-.3s-.8-1-1-1.7h0Z"/>
    <path class="cls-4" d="M184.42,79.32c-.7,0-1.3-.2-1.8-.8s-.8-1.1-.8-1.8V44.52c0-.7,.2-1.3,.8-1.8s1.1-.8,1.8-.8h1.2c.7,0,1.3,.2,1.8,.8s.8,1.1,.8,1.8v9.8c0,.3,.1,.4,.3,.5,7.2,1.8,14.5,3.9,21.9,6.6,.7,.2,1.1,.7,1.5,1.3s.4,1.3,.1,2l-.3,.9c-.2,.7-.7,1.2-1.3,1.4-.6,.3-1.3,.3-1.9,.1-7.1-2.5-13.8-4.5-20-6.1-.1,0-.2,0-.2,.1-.1,.1-.1,.2-.1,.2v15.6c0,.7-.3,1.3-.8,1.8s-1.1,.8-1.8,.8l-1.2-.2h0Z"/>
    <path class="cls-4" d="M223.32,63.12l-.4-.3c-.5-.5-.8-1-.8-1.7s.2-1.3,.6-1.8c3.8-4.3,6.2-9.2,7.4-14.8,.1-.7,.5-1.3,1.1-1.8s1.2-.7,1.9-.6h.8c.7,.1,1.3,.4,1.7,.9s.6,1.2,.5,1.8c0,.3-.1,.7-.2,1.1-.1,.2,.1,.4,.3,.4h17c.7,0,1.3,.2,1.9,.8,.5,.5,.8,1.1,.7,1.8-.2,9.6-2.5,16.8-6.9,21.6s-11.3,7.7-20.8,8.8c-.7,.1-1.4-.1-2-.5s-.9-1-1.1-1.8l-.1-.4c-.1-.7,0-1.3,.4-1.8,.4-.6,1-.9,1.7-1,7.4-1,12.9-3.1,16.3-6.4,3.4-3.3,5.4-8.4,5.9-15.3,0-.2-.1-.4-.4-.4h-14.3c-.3,0-.4,.1-.5,.4-1.6,4-3.9,7.6-7,10.9-.5,.5-1.1,.8-1.8,.8s-1.4-.2-1.9-.7h0Z"/>
  </g>
  <path class="cls-4" d="M266.22,69.62c-.7-.3-1-1-1.1-2.1s.2-2.3,.7-3.6l13.8-32.1c.5-1.2,1.2-2.2,2.1-2.9,.9-.7,1.6-.9,2.2-.6l2.3,1c.6,.3,1,1,1,2.1s-.2,2.3-.8,3.5l-15.1,31.5c-.6,1.3-1.4,2.2-2.2,2.9-.9,.7-1.6,.8-2.3,.6l-.6-.3h0Zm-1,4.9c.6,.3,1.1,.8,1.3,1.5,.2,.7,.2,1.5-.2,2.2l-.5,1.2c-.3,.7-.8,1.2-1.5,1.6s-1.4,.3-2,0l-1.4-.7c-.6-.3-1.1-.8-1.3-1.5s-.2-1.5,.2-2.2l.5-1.2c.3-.7,.8-1.2,1.5-1.6s1.4-.3,2,0l1.4,.7Z"/>
</svg>