<?xml version="1.0" encoding="UTF-8"?>
<svg id="_レイヤー_1" data-name="レイヤー 1" xmlns="http://www.w3.org/2000/svg" viewBox="0 0 343.04 337.07">
  <defs>
    <style>
      .cls-1 {
        fill: #374039;
      }

      .cls-2 {
        fill: #d79c49;
      }

      .cls-3 {
        fill: #172420;
      }

      .cls-4 {
        fill: #cfc5ad;
      }

      .cls-5 {
        fill: #172421;
      }

      .cls-6 {
        fill: #c5bda6;
      }

      .cls-7 {
        fill: #e7e3de;
      }

      .cls-8 {
        fill: #d29341;
      }

      .cls-9 {
        fill: #fcfaf9;
      }

      .cls-10 {
        fill: #192522;
      }

      .cls-11 {
        fill: #d9a04a;
      }

      .cls-12 {
        fill: #d49745;
      }

      .cls-13 {
        fill: #beb1a4;
      }

      .cls-14 {
        fill: #d49644;
      }

      .cls-15 {
        fill: #c1b3a6;
      }

      .cls-16 {
        fill: #1b2723;
      }

      .cls-17 {
        font-family: KaiseiOpti-Bold, 'Kaisei Opti';
        font-size: 39px;
        font-weight: 700;
      }

      .cls-18 {
        fill: #182521;
      }

      .cls-19 {
        fill: #d79c47;
      }

      .cls-20 {
        fill: #d5cbb2;
      }

      .cls-21 {
        fill: #ddd2b8;
      }

      .cls-22 {
        fill: #0f1715;
      }

      .cls-23 {
        fill: #f9f5f3;
      }

      .cls-24 {
        fill: #827c72;
      }

      .cls-25 {
        fill: #827c71;
      }

      .cls-26 {
        fill: #d79d49;
      }

      .cls-27 {
        fill: #818986;
      }

      .cls-28 {
        fill: #808784;
      }

      .cls-29 {
        fill: #d3933f;
      }

      .cls-30 {
        fill: #dba54f;
      }

      .cls-31 {
        fill: #dba650;
      }

      .cls-32 {
        fill: #cf8d3e;
      }

      .cls-33 {
        fill: #202e29;
      }

      .cls-34 {
        fill: #eee1c6;
      }

      .cls-35 {
        fill: #f8f2f0;
      }

      .cls-36 {
        fill: #faf7f6;
      }

      .cls-37 {
        fill: #f9f5f5;
      }

      .cls-38 {
        fill: #d59744;
      }

      .cls-39 {
        fill: #dfd3b9;
      }

      .cls-40 {
        fill: #dca651;
      }

      .cls-41 {
        fill: #b1aa96;
      }

      .cls-42 {
        fill: #fdfcfc;
      }

      .cls-43 {
        fill: #d79d4a;
      }

      .cls-44 {
        fill: #182421;
      }

      .cls-45 {
        fill: #d69945;
      }

      .cls-46 {
        fill: #d49946;
      }

      .cls-47 {
        fill: #f9f4f2;
      }

      .cls-48 {
        fill: #4e554b;
      }

      .cls-49 {
        fill: #fbf7f6;
      }

      .cls-50 {
        fill: #fbf9f9;
      }

      .cls-51 {
        fill: #0f1614;
      }

      .cls-52 {
        fill: #f8f3f1;
      }

      .cls-53 {
        fill: #cfc3b8;
      }

      .cls-54 {
        fill: #d19142;
      }

      .cls-55 {
        fill: #d9a24c;
      }

      .cls-56 {
        fill: #1a2622;
      }

      .cls-57 {
        fill: #86906f;
      }

      .cls-58 {
        fill: #cfc4b8;
      }

      .cls-59 {
        fill: #d59947;
      }

      .cls-60 {
        fill: #d08f40;
      }

      .cls-61 {
        fill: #fafaf9;
      }

      .cls-62 {
        fill: #d59a47;
      }

      .cls-63 {
        fill: #516133;
      }

      .cls-64 {
        fill: #d0903e;
      }

      .cls-65 {
        fill: #fefefe;
      }

      .cls-66 {
        fill: #222e2a;
      }

      .cls-67 {
        fill: #333d37;
      }

      .cls-68 {
        fill: #536334;
      }

      .cls-69 {
        fill: #d08f3f;
      }

      .cls-70 {
        fill: #daa54f;
      }

      .cls-71 {
        fill: #d59845;
      }

      .cls-72 {
        fill: #d1913f;
      }

      .cls-73 {
        fill: #f9f5f4;
      }

      .cls-74 {
        fill: #d0c7af;
      }

      .cls-75 {
        fill: #192521;
      }

      .cls-76 {
        fill: #d9a14b;
      }

      .cls-77 {
        fill: #c4bca5;
      }

      .cls-78 {
        fill: #ffff64;
      }

      .cls-79 {
        fill: #e3d9ce;
      }

      .cls-80 {
        fill: #d08f3e;
      }

      .cls-81 {
        fill: #d19141;
      }

      .cls-82 {
        fill: #faf7f5;
      }

      .cls-83 {
        fill: #d08e3e;
      }

      .cls-84 {
        fill: #d19241;
      }

      .cls-85 {
        fill: #d69a47;
      }

      .cls-86 {
        fill: #d89d47;
      }

      .cls-87 {
        fill: #d8a04a;
      }

      .cls-88 {
        fill: #daa34d;
      }

      .cls-89 {
        fill: #f8f1ef;
      }

      .cls-90 {
        fill: #d49845;
      }

      .cls-91 {
        fill: #818b69;
      }

      .cls-92 {
        fill: #d9a34d;
      }

      .cls-93 {
        fill: #cac1a9;
      }

      .cls-94 {
        fill: #f9f3f1;
      }

      .cls-95 {
        fill: #d69b48;
      }

      .cls-96 {
        fill: #eee0c4;
      }

      .cls-97 {
        fill: #bfb1a4;
      }

      .cls-98 {
        fill: #daa44f;
      }

      .cls-99 {
        fill: #89908e;
      }

      .cls-100 {
        fill: #daa44e;
      }

      .cls-101 {
        fill: #2e3731;
      }

      .cls-102 {
        fill: #d69b49;
      }

      .cls-103 {
        fill: #d79c46;
      }

      .cls-104 {
        fill: #fdfdfd;
      }

      .cls-105 {
        fill: #d39644;
      }
    </style>
  </defs>
  <g>
    <path class="cls-65" d="M343.04,243.43v93.63H80.04V77.07h263v161.14l-1.04-.64c-1.77-6.5-6.72-11.62-13.39-12.62l-.42-.81-.44-1.22c2.07-26.87-1.07-55.02-14.28-78.48-3.77-6.69-6.74-8.69-13.99-10.72-14.27-5.95-18.72-20.44-22.39-33.93-5.61-19.91-34.51-16.95-49.72-10.49-32.49,13.81-48.22,48.13-53.02,81.35-2.72,18.85-1.59,34.63.15,53.33.03.35-.03.7-.12,1.06s-.22.74-.38,1.1c-.02,2.45-3.11,5.65-5.32,6.87-10.74,5.94-20.45-.66-24.91-10.88-1.75-4-3.84-10.4-2.29-14.47l.26-.96c4.67-2.35,3.88-7.75.55-10.96v-.54s-.72-.66-.72-.66c0-1.72-.16-3.44-.47-5.15l.77-.62v-1.61c-.36-.07-.34-.21,0-.4-.98-.7-.98-1.91,0-3.62-.21-.25-.4-.5-.55-.78s-.26-.53-.28-.8c-.51-8.47-.36-18.61.49-27.04.33-3.3,1.54-5.41,4.75-6.34.75-1.38,1.69-2.18,2.81-2.41,1.24-1.84,2.8-3.46,4.69-4.85.47-.9,1.19-1.42,2.14-1.58-.05-1.41,1.21-2.58,2.33-3.37.45-1.36,1.14-1.98,2.08-1.86.31-1.82,1.03-3.61,2.17-5.38,3.56-8.91,3.78-20.18.12-29.03l.11-.96c-1.02.11-1.37-1.49-1.2-2.41-.92.59-1.23.19-.8-.8l-1.01-.04c-1.16-2.15-2.96-4.2-5.48-5.18-.15-.48-.4-.88-.74-1.2-.34.61-.76.48-1.26-.39l-1.15-.41c-.74.65-1.88.21-2.11-.69-1.78.55-3.09.24-3.92-.92-.93.7-2.15.83-2.81-.4-.36,1.15-2.66,1.54-3.21.4l-.46.62c-1.93.6-4.05.82-5.96.58.28,1.04-.05,1.14-.8.4-1.56,1.53-3.31,2.98-5.23,4.35-.99,1.41-2.06,2.23-3.2,2.48-.2,1.53-.94,4.45-2.81,4.82l-.71,3.59c-2.88,7.51-3.47,14.87-1.78,22.06l-.32,1.27c.35.2.35.33,0,.4.39.41.66.95.8,1.61l.89.6c.36,1.61.87,3.15,1.52,4.63l1.12.27c.55.66,4.25,5.88,4.41,6.32.17.48.22.95.09,1.44.83-.23,1.57.38,2.24,1.82,1.15,2.18,3.05,4.99,5.25,6.05,1.43,1.7-1.7,18.77-2.12,20.73-.06.31-.32.58-.62.83.34,1.15.09,2.66-.74,3.52l.62,1.09c-1.25,4.5-2.13,9.05-2.64,13.66l-.79.92-1.24,9.78c-.36,4.54-.17,10.13,5.72,10.09l.74.62c.71-.78.87-.64.8.4l1.75-.27c1.47,19.82,19.85,38.73,38.8,23.61l1.21-.04.82.98c3.24,10.13,6.6,20.19,11.89,29.51,8.82,15.54,18.58,23.38,32.43,33.9.3.23.55.53.79.85s.45.69.65,1.07l.44.82c-2.27,6.19-4.7,12.27-7.31,18.24l-.81.22c-5.37-1.75-15.92,1.69-14.2,8.67,2.69,10.91,27.07,6.79,19.16-5.97-.39-2.01,5.7-16.33,7.01-19.14l.94-.42,1.86-.08c16.71,7.86,34.2,4.78,50.58-2.11l1.76.18,1.06,1.05c2.21,6.43,4.51,12.83,6.88,19.21l-.1,1.32c-8.84,14.49,20.87,16.14,19.41,4.05-.81-6.74-9.82-7.57-15.18-7.07-2.5-6.32-4.89-12.7-7.17-19.12l-.09-2.24,1.24-1.78c13.35-8.78,23.74-21.08,29.74-35.96l1.55-1.64.84-.96c9.03-1.49,18.91-4.92,22.16-14.36l1.09-.76Z"/>
    <path class="cls-53" d="M328.18,224.15c2.64-.1,6.86,2.11,8.84,3.81,3.28,2.82,4.78,6.21,6.02,10.25v5.22c-3.25,10.99-13.85,14.4-24.09,16.07-1.73,1.72-4.93,1.68-6.83.8-.13.93-.84.85-1.2,0-1.15.68-1.95.81-2.41.4-1.29.99-3.29,1.35-4.42,0-4,.35-8.07.38-12.05,0-.03.4-.22.67-.59.8l-3.71.04c-2.43,2.49-5.29,3.73-8.67,2.34-.83-.34-2.72-1.48-2.29-2.38-.6.57-.84.41-.8-.4-.35-.11-.35-.25,0-.4-.51-.25-.52-.52,0-.8l-.88-.29c-2.48-.4-5.2-.52-8.16-.35l-.19-.57c-.48-.64-.25-.97.49-1.13l6.6-.06c.8-.13,1-3.12.94-4.03,2.05-2.45,4.64-4.94,8.42-4.23-.21-1.82.07-3.49.82-5.01-.95-4.16-1.16-8.32,0-12.46-1.05-.29-1.17-1.78,0-2.01.75-.03,1.09.66,1.04,2.06-.11,6.07-.22,12.12-.33,18.14l.5.3c.83-.96,2.3.64,1.61,1.61.65-.28,1.15.08,1.52,1.07,8.18.48,16.94.34,25.46-.39l2.34.53c1.4-1.4,4.2-2.01,6.02-1.21l.65-.95c11.66-1.96,19.49-13.58,5.16-19.01l-.19-.94c-1.83,1.22-4.01-1.91-3.99-3.8.03-2.15,3.05-4.98,4.39-3.03Z"/>
    <path class="cls-79" d="M328.18,224.15c-4.06.16-5.31,4.85-.4,6.83l.68.57c-1.75,6.5-3.5,13.01-5.25,19.52l-1.05.81c-1.98.46-4,.94-6.02,1.21l-.11-1.28c8.24-26.1,10.68-55.89,1.93-81.98l.19-1.54c-2.44-5.88-4.85-11.79-7.25-17.74-1.39-3.02-3.55-7.64-6.44-9.34-12.3-3.88-23.27-12.06-27.53-24.79l.26-1.58-1.06-.6-3.33-11.65c-1.59-5.8-5.2-10.21-11.26-11.62-30.39-7.09-56.95,14.67-70.05,40.49l-1.43,1.07c.56,1.73-.68,3.4-2.01,4.42.71,1.89-.7,3.53-2.01,4.82.06.93.1,1.89-.17,2.8-3.82,13.15-6.68,24.15-7.82,37.96-1.22,14.72-.05,27.15,1.51,41.66.1.94-.12,1.87-.35,2.78-.71.23-1.59.02-2.65-.64-1.07.21-1.93.15-2.57-.17-7.02-45.87,1-106.32,43.8-132.78,12.9-7.98,27.9-11.65,43.01-8.55,17.92,3.68,16.02,15.21,21.7,29.32,3.51,8.72,8.63,14.88,17.3,18.86,2.5,1.15,6.14,1.88,8.28,3.37,7.49,5.22,15.16,28.48,17.49,37.55,4.14,16.09,3.96,33.77,2.61,50.23Z"/>
    <path class="cls-79" d="M184.84,247.85c1.62,1.53,2.29,3.14,2.01,4.82,1.31.95,2.65,2.71,2.01,4.42,1.68,1.6,2.62,3.35,2.81,5.22,1.05,1,3.24,3.11,2.41,4.42l.73.38c14.52,20.25,37.08,39.76,63.73,35.66,19.8-3.04,37.82-15.37,48.42-32.29l1.96-1.75c-.94-1.03.13-2.45,1.2-2.81-.9-1.44,1.18-3.57,2.41-4.42-.33-.45-.47-.85-.4-1.21,2.19-.2,4.65-.45,6.83-.8-2.1,5.23-4.59,10.32-7.62,15.08-6.39,10.04-14.96,17.86-24.9,24.3l-.83.36c-1.86-1.38-3.54-.38-3.26,1.91l-.72.55c-11.51,4.47-23.73,8.69-36.29,7.18-6.19-.74-12.24-2.7-17.92-5.17l-.52-.21c-.49-2.11-1.96-3.3-3.9-1.86l-.8-.35c-11.38-7.42-21.8-16.43-29.64-27.6-8.27-11.79-13.29-24.81-16.94-38.7.21-1.82,2.35-4.48,4.02-5.22.48.47.94.99,1.16,1.63.79,2.3,4.34,14.13,4.25,15.41-.02.35-.1.7-.2,1.04Z"/>
    <path class="cls-53" d="M286.42,298.89c3.01,6.69,5.01,13.96,7.68,20.85,5.41-1.33,14.58.69,15.53,7.18,1.51,10.32-18.53,13.16-22.19,3.3-1.66-4.48,1.6-5.89,1.33-8.12-1.86-6.56-5.82-13.83-7.16-20.4-.71-3.45,2.15-5.14,4.82-2.81Z"/>
    <path class="cls-53" d="M227.4,303.71c-.72,3.34-7.62,17.15-7.17,19.39.22,1.1,1.36,1.87,1.55,3.71,1.12,11.25-18.36,12.52-21.88,3.82-2.61-6.47,4.27-11,10.02-11.26,1.09-.05,4.62.58,4.97.36.86-.53,5.76-16.39,7.29-18.42,2.17-2.26,5.58-.76,5.22,2.41Z"/>
    <path class="cls-58" d="M141.47,207.67c0,8.98,4.54,22.59,13.84,25.73,5.1,1.73,10.99,1.04,15.08-2.62,1.39-1.25,2.66-3.87,3.61-4.63,1.68-1.34,3.87-.58,5.22.8,1.22.2,1.51,2.29.4,2.81-1.04,2.02-2.4,3.64-4.02,5.22-3.17,3.11-7.39,5.5-11.89,5.98-17.26,1.82-25.78-12.23-28.55-27.19-.1-.55-.05-2.02-.11-2.1-.09-.12-.92.1-1.2,0-.91-.98.17-1.63.8-.4l.48-.84c2.03-.12,3.97-.75,4.97-2.65l.97-.13c.11-.35.25-.35.4,0Z"/>
    <path class="cls-38" d="M146.29,145.78c.12-.28.25-.28.4,0,1.27.52.67,1.88-.4,2.41-.59,1.58-2.73,2.05-3.18,3.13-.32.75-.73,2.72-.81,3.57-.8,8.5-.55,19.62-.43,28.27-.33,3.52-3.5,2.11-4.82,0l-.72-.82c-.11-4.84.13-10.46,1-15.14-.59-1.09-.55-1.93.12-2.53-.73-.63-.58-1.06.4-1.21-.44-.92-.78-1.66.4-2.01-1.18-.5-1.2-3.14,0-3.62-.64-2.31-.69-4.72-.14-7.23-.51-1.9-.59-3.15,1.34-2.81,1.08.22,2.02.09,2.81-.4-.8-1.68,2.96-2.58,4.02-1.61Z"/>
    <path class="cls-85" d="M132.24,108.01c1.15,0,1.21.41.4,1.21.09.61.13,1.19-.4,1.61.61.34.24,1.68,0,2.41.43.49-.27.46-.15.18.28-.65,1.32-.36,1.29.47,0,.19-1.05,3.03-1.36,3.12.34,1.32.25,4.79-.98,5.47.98.23.97,1.26,0,1.61.92,1.37.64,2.44-.2,3.79,1,2.17.51,5.28-.6,7.47,1.35.19.36,3.11,0,3.98,1.23,1.21,1.16,1.82.19,3.1v2.31c2.08.91,4.16,1.79,6.23,2.67.57,1.72.61,3.59.43,5.5.25,1.38-.02,2.23-.83,2.53.82.35.32,2.24-.4,2.81.35.09.34.23,0,.4.35.29.63.63.76,1.07.21.75-.18,3.59-.76,4.15,1.32.49.42,2.09-.8,1.61.23,1.08-.23,1.94-1.38,2.57-.05,1.65-.33,3.37-.84,5.15,1.71,1.79-1.01,3.49-2.2,1.93.71-4.32,1.46-9.16,2.04-13.46.36-2.63,1.07-7,1.01-9.45,0-.1-.2-1.92-.29-1.97-.21-.11-.8.1-1.05-.12-1.13-.97-4.64-6.53-5.73-7.95-.14-3.57.05-7.2.57-10.87-.23-1.75-.02-3.09.64-4-.03-.69-.15-1.46-.35-2.3-2.37-.85-3.06-3.15.15-3.34.4-.73.49-1.64.29-2.73,1.24-.86.51-2.58-.16-3.73.75-1.76,1.14-3.21.95-5.24.1-1.11.27-2.05,1.54-1.95.64.03,1.31.03,2.01,0Z"/>
    <path class="cls-32" d="M137.46,164.67c.38.57.22,1.29.42,1.71.24.5.97.03.79.9-.07.35-.61.06-.8.5-.47,1.07-.47,7.66-.58,9.34-.13,1.99.01,4.21-.24,6.04.47.53.47,1.34,0,2.41l.48.62c-.36,1.6-.63,3.25-.82,4.96.77.71.44,1.91-.46,2.46,1.83-.25,2.37.15,1.61,1.21.69.76.61.87-.4.8l-1.61.8c.31.05.72.16.77.42.48,2.51-.62,10.6-1.08,13.01l-.9,1.44c-.34.02-.7.01-.8.4-.42-.15-.47-.2-.8-.4-1.49.09-1.6-.98-1.58-2.26l.54-4.67c-.07-1.89-.08-4.28.94-5.88-.9-1.86-.83-4.11.49-5.67-.69-.17-.89-.86-.57-2.06-.85-1.19-.81-2.16.14-2.91.68-5.87,1.04-11.82,1.1-17.84.64-1.29.82-2.4.55-3.34l.39-1.19c.31-.51.83-.93.8-1.61.52-1.23,1.88-.32,1.61.8Z"/>
    <path class="cls-45" d="M137.06,185.57c-.75-1.47,1.35-1.4,1.79-.03-.16,1.7.24,2.37,1.21,2.02-.12-1.64,1.57-2.61,1.81-.78,0,.13,0,.27,0,.4v1.61c.05,2,.84,4.37.4,6.43-.1.34-.24.34-.4,0-.34.25-.38.15-.4-.2-.03,3.56-.03,7.11,0,10.65,1.26.34.63,1.61-.4,2.01-1.37,2.87-3.51,3.43-6.42,3.62.13-2.76.57-5.51.83-8.26.18-1.94.24-1.34.39-2.05.12-.52-.15-3.42-.02-4.56.18-.87.81-1.4,1.61-.8.03-.03.06-.44.4-.8.66-.82.12-1.22-1.61-1.21-.22-.25.64-5.77.02-6.58l.78-1.45Z"/>
    <path class="cls-38" d="M135.05,165.47c.33.49.84,2.59.81,2.99-.02.25-.8.19-.84.48-.34,2.61-.16,6.3-.37,9.16-.17,2.38-.72,2.37-.06,4.44.13.39-1.03,5.3-.76,6.23l-1.18.21c1.6,1.37.89,2.44.8,3.82-.51,1.72-1.18,2.13-2,1.23-3.99,1.54-4.56.62-3.62-3.24-.22-4.92,2-10.69,2.81-15.67l2-.4c.26-1.23-1.27-.88-1.2-1.6l.81-.21c.04-1.16-1.88-.9.4-2.01.1-.17-1.61-.27-.8-1,.24-.22,1.55.54,1.2-.81l-1.2-.4c1.85.26.74-.46,1.16-1.02.71-.93,1.18-.8,2.05-2.2Z"/>
    <path class="cls-45" d="M127.82,190.79c.03.74.2,3.53,1,3.61l.2-1.6c1.21-.38.44.95,1.38.79,1.09-.2,1.91-3.13,1.64.42l1.4-1.21c-.09,1.46-.82,5.38.8,5.63v.39c-1.53.21-1.88,2.78,0,2.62-2.46.48-1.31,1.47-1.45,3.07-.15,1.76-1.26,5.89.24,6.78-.92.71-5.04-.88-5.52-1.3-.15-.13-1.43-3.18-1.53-3.53-.71-2.58-.03-8.89.48-11.66.21-1.13.74-3,1.35-4Z"/>
    <path class="cls-100" d="M121.4,126.49c1.03-.31,1.2-.88.51-1.73.11-.82,4.68-2.74,4.22-.76,1.2.57,2.3,1.82,1.7,3.29.67,2.64-.35,7.82-.39,10.27-.02,1.33-.05,3.55-.81,4.6-2.29-3.01-3.57-4.77-5.62-8.04-1.25-1.76-1.03-3.63-.18-5.59-.24-1.11-.04-1.8.58-2.05Z"/>
    <path class="cls-30" d="M131.84,88.32c.84.76.66,2.44-.37,3.23.68,1.26.68,2.65,0,4.18.62,1.72.03,3.86-.68,5.44.62,2.51.3,3.99-.97,4.43-.65.77-1.45.9-2.41.4.47.5.24.73-.4.4l-.82-.21c-1.64.78-3.45-.6-1.51-2.59.26-1.07.05-3.83-.88-4.43-1.09.83-1.41-.96-.52-1.51,1.89.19,1.87-.33,1.32-1.71,2.2,1.39-1.12,2.45-1.75,1.69-.54-.66.84-2.78,1.75-1.69-.94.47-1.34.2-1.2-.8,1.74-2.63,4.94-5.38,8.43-6.83Z"/>
    <path class="cls-100" d="M139.06,86.71c.67.52.49,1.25.12,1.93,1.81-.82,2.84-.66,3.1.48,1.09.71.2,2.38-.4,3.21v.8c1.06,1.03.86,5.31-1.2,4.02l-.7-.73c-.17,1.52-3.68,3.69-4.25,1.69-1.59,1.57-2.55,1.41-2.28-.96-1.53-1.01-.82-3.17-.09-4.73-.73-1.24-.53-2.33-.08-3.62l-.63-.89c2.83-1.08,3.84-.95,6.42-1.21Z"/>
    <path class="cls-71" d="M161.55,96.36c.06.98.25,3.15,1.2,2.41,1.99,3.82,2.4,5.68,2.9,9.33.54,3.92.38,8.72-.19,12.86-.77,5.58-2.31,9.04-5.12,13.17-.59.08-.91-.34-1.2-.8-.93-.6-.66-1.05.4-1.21l-.44-1.02c4.14-7.41,5.12-15.74,4.32-24.27-.85-1.08-1.08-2.15-.67-3.23-.49-.36-.74-.96-.74-1.81-1.78.62-2.12-.04-2.07-1.81-.41.61-.54.48-.4-.4-1.16-.3-.82-2.1.4-2.01-1.32-.81-.59-3.04.8-2.01.12.17.51.35.8.8Z"/>
    <path class="cls-100" d="M120.59,99.97c.31.08.65.23.72.53.51,2.17-.12,6.52-.68,8.74-.6.1-.7.33-.45.77l.78.5c.15,1.57-.06,4.24-.76,5.63.47,1.04.3,2.6-.83,3.11l.14.68c.52-.82,1.38,1.88.36,2.53.41,1.66-.11,4.69-2.11,4.42-.66-1.33-1.25-3.35-1.41-4.8-.68-5.96,1.44-16.43,4.22-22.13Z"/>
    <path class="cls-62" d="M132.64,87.92c2.53.14.99,1.32.99,3.03,0,.44.53.86.52,1.53-.01.58-.79,2.08-1.1,2.67l1.6.2c-1.34.68-.98.67-1.2,1.81.86,1.99.81,3.95-.15,5.89.58,1.2.42,3.2-1.06,3.36-.44.88-1.14.92-1.61,0-.97.64-1.26.21-.8-.8.84-1.24.05-3.24.2-4.62.04-.4.58-.62.61-1.2.02-.47-.99.13-.81-.61,1.52.2.32-.78.49-1.14.03-.07.69-.04.74-.32.13-.65-.39-1.35-.38-1.99.02-.88.86-1.67.35-3.52-.15-.53-1.78.15.81-2.08-2.07-.78.11-.72,0-1.81.24-.1.48-.28.8-.4Z"/>
    <path class="cls-95" d="M123.41,95.15c.62.02.89.58,1.2.8-.38-.43-1.64.82-1.2,1.2.69.61,1.8-.53,1.2-1.2.15.11,1.3.84,1.4.8.51-.22,2.17-2.56,1.74-.26-.48,2.58-3.96,1-4.21,2.07-.05.21.29.53.27.6l.59.81c-.3,2.98-.56,5.92-.81,8.82-.25.24-.65.17-.99.01.33.78-2.38,2.44-1.75,1.02l-.66.19s-.39-.29-.33-.89c.04-.43.95-3.35.74-3.53l-1.21-.2c2.04-.7.76-3.55,1.2-5.43.83-1.7,1.63-3.04,2.81-4.82Z"/>
    <path class="cls-59" d="M150.31,134.53l.76.54c-.59,3.41-.75,8.93,2.64,3.24.49-.83.98-1.22,1.82-.57,1.63-.25.81,1.37-.54,1.4.51-.19.82-.12.94.21-.9,1-.49.81-1.72,2-1.61,1.56-3.01,3.44-5.11,4.43-.5-.38-1.31-.38-2.41,0h-.4l-.5-.89c.35-2.33.79-4.58,1.31-6.74-.53-.6-.29-.83.4-.4.12-.79.26-1.06.45-.36-.39-.98,1.27-3.25,1.74-3.14.22.05.42.16.62.29Z"/>
    <path class="cls-53" d="M141.47,207.67h-.4c.14-.29.26-1.47.4-2.01-.24-3.39-.12-7.18.4-10.45.12.05.31-.05.4,0,4.96,2.92,4.75,10.61-.8,12.46Z"/>
    <path class="cls-102" d="M119.39,119.26c.82-1.41,1.18-1.6,2.22-.02l.59.02c1.3,1.71.53,5.7-.8,7.23-.04.41.28,1.05.23,1.61-.1,1.2-1.15,3.04-.64,4.61,1.54-.48.58.64,0,1.41-.02-.04-.59.1-.81-.27-.81-1.38-1.48-3.5-1.6-4.95.3-.33.3-.73,0-1.21-.12.5-.39.36-.8-.4-.01-.05-.32-.09-.32-.2,0-.12.27-.13.32-.2.53-.89,1.01-1.09,1.39-2.37.23-.79-.2-2.22-.12-2.67.05-.26.82-.12.74-.38-.08-.28-.92-1.59-.79-2.02.08-.27.38-.18.39-.2Z"/>
    <path class="cls-70" d="M153.52,89.12c4.38,1.85,4.53,2.54,7.23,6.43-.95.27-.57,1.15-.8,2.01-.64,1.24-3-.42-3.14-1.65-1.76-.38-2.72-1.17-2.88-2.37-.34-.12-.33-.26,0-.4-1.67-.89-1.03-2.65-.4-4.02Z"/>
    <path class="cls-98" d="M151.11,88.32c.73-.11,1.29.12.8.8.18.95-.39,2.02-1.2,2.41l-.36.46c-2.2-1.07-3.21-1.04-3.02.1,4.5.74-1.36,4.24-2.24,1.45-.36.38-.49.25-.4-.4-.29-.29-.42-.83-.4-1.61-.7-.34-.75-1.1-.17-2.27-.88-1.98-.56-2.84.97-2.55,2.13.31,4.12.26,6.02,1.61Z"/>
    <path class="cls-19" d="M137.06,183.16c2.49-.8,1.05,1.07,1.21,1.2.91-.75,2.7.51,2.8.41.09-.09-.09-1.51.81-1.61.02,1.13-.02,2.48,0,3.62-1.93-1.07-.31,2.04-1.41,2.41-.36.12-.02-.67-.45-.78-2.05-.54-1.12,2.14-2.95,2.79.12-.61.2-1.59.42-2.11s1.69-.28-.02-.9c.99-.3.75-2.59.4-3.02-.19-.23-.69.39-.8.4-1.43.19-.02-2.28,0-2.41Z"/>
    <path class="cls-76" d="M142.28,86.31c.86.63,1.32,2.47,0,2.81-1.94-.77-5.88,1.71-2.01.81-.94,2.23-2.32.51-3.42.55-.52.02-1.06.65-1.2.65-.25,0-.82-.9-.6-1.19.11-.15,2.83-1.28,3.33-1.6.59-.38.07-1.27.69-1.62,1.07-.11,2.1-.38,3.21-.4Z"/>
    <path class="cls-59" d="M145.09,86.71c-1.44.54-.11,1.55-.18,2.62-.01.17-.51,1.86-.63,2.2.75,1.97-.78,1.46-2.41.8-.56-1.31.21-2.08.4-3.21.22-1.29-.46-1.66,0-2.81,1.85-.03,1.75.25,2.81.4Z"/>
    <path class="cls-54" d="M160.35,134.13c-1.53,2.24-2.54,3.14-4.42,5.22-.68-.09-1.75.32-1.6-.4,2.24-.11,1.22-.69,1.2-1.21-.36-.07-.35-.21,0-.4.41-1.26,1-2.01,1.78-2.26-.05-1.32.53-2.99,1.84-1.76.43-.11.8-.22,1.2-.4v1.21Z"/>
    <path class="cls-43" d="M153.52,89.12c.76.87.1,1.75.08,2.63,0,.52.32,1.02.32,1.39-2.96,1.49-3.05-1.81-2.01-4.02-.11-.2-.59-.66-.8-.8,1.4-.89,1.96.61,2.41.8Z"/>
    <path class="cls-69" d="M149.1,145.78c-.45,1-1.6,2.45-2.81,2.41.38-1.01.23-1.91.4-2.41.43-1.23,1.77-1.04,2.21-2.01.8.51.52,1.29.2,2.01Z"/>
    <path class="cls-81" d="M161.55,96.36c.48.75.8,1.64,1.2,2.41-.06,2.38-2.63-1.22-1.2-2.41Z"/>
    <path class="cls-100" d="M118.59,127.7c1.03.32.92.69,0,1.21-.65-.41-.64-.96-.8-1.61.31-.03.65.37.8.4Z"/>
    <path class="cls-19" d="M141.88,188.78v-1.61c0,.47-.01,1.2,0,1.61Z"/>
    <path class="cls-35" d="M220.17,118.46c-1.16-.15-1.29.12-.4.8l.45.78c-2.98,4.27-5.27,8.8-6.89,13.61.26,1.13.13,1.96-.39,2.49l-1.03,1.75c-44.7,33.83-37.21,105.54,14.61,127.97,3.93,1.7,11.78,4.98,15.77,3.29-33.19-5.2-58.12-35.26-58.44-68.65-.16-16.81,4.4-37.64,16.17-50.17,6.64-7.07,5.59-.3.55,4.16-34.72,44.73-3,116.52,55.44,112.81,1.13-.79,2.17-1.12,3.11-.98l2.25-1.04c5.32-.8,10.46-2.06,15.42-3.78,2.55,1.29,2.46,2.47,6.23,2.02,2.63-.32,3.31-2.39,4.49-2.74,1.1-.33,3.24-.05,4.54-.08,3.88.45,8.07.3,12.05,0,1.46-.04,2.96.08,4.42,0-.06.88.2.95.77.22l1.64-.62c.4-.03.81.04,1.2,0,1.12-.2.77.26.4,1.21l-5.34,4.94c2.06-1.89,3.04-2.07,2.93-.52-.44.87-.83,2.14-1.2,2.81-32.88,28.98-82.86,27.84-114.84-2.01-.88-1.41-2.1-2.72-2.41-4.42.42-.89.9-.71,1.62-.28-1.62-1.52-3.1-3.17-4.43-4.95-.71-1.49-1.37-2.89-2.01-4.42,0-.2.02-.39.09-.56.49-1.06-1.18-3.18-2.1-4.26-2.07-5.75-4.03-12.09-5.22-18.08-.16-.82-.24-1.87-.4-2.81-4.82-27.25-2.97-59.25,6.83-85.19,8.91-11.96,21.29-21.74,35.38-27.19l1.16.26c1.55.85-1.04,3.83-2.41,3.62Z"/>
    <path class="cls-35" d="M318.15,168.29c6.85,14.54,6.77,41.35,4.81,57.26-1.15,9.32-3.63,18.74-6.82,27.53-7.1.95-14.38,1.02-21.47.79-1.68-.06-5.02.35-6.36-.06-.98-.3-1.03-1.41-1.48-1.93l.94-1.68c23.88-17.76,32.64-50.19,21.15-77.7v-2.19s-1.42-1.26-1.42-1.26c-15.78-35.94-62.37-46.93-92.79-22.3l-1.76.25-.87-.11c-3.42-4.98-9.64.15-4.84,4.47l.09.86.11,1.4c-28.9,33.1-18.87,86.01,22.26,103.53,5.64,2.4,11.45,4.43,17.61,4.66,4.56.15,9.12.18,13.68.08l.94.44c2.07.24.61,1.59-.8,2.01.68.82,0,1.49-2.01,2.01-3.1,2.67-5.38,2.25-9.45,2.03-58.95-3.19-84.78-76.21-45.65-119.25,1.25-1.38.55-1.72-.91-.52-15.13,12.41-20.45,42.48-17.8,60.81,4.31,29.84,28.3,55.29,58.55,59.14-2.15,3.61-6.52,1.65-9.94.71-34.4-9.51-55.76-45.27-51.84-80.22,2.35-20.97,13.8-40.69,30.87-52.9,1.03-.6,2.31,1.1,1.61,2.01.15.34.42.47.8.4l.63-.71c1.76.15,3.24-.87,4.44-3.05l.56.14c4.45-2.24,4.59-2.5.4-.8-1.78-.68.99-5.19,2.41-4.82,36.45-17.46,80.17,1.58,94.36,38.98Z"/>
    <path class="cls-94" d="M237.84,257.5c-3.82.62-8.63-1.84-12.17-3.65-35.47-18.22-43.68-66.98-18.52-97.18,29.11-34.94,81.22-26.29,99.88,14.15.62-.78,1.25-.95,1.87-.52,6.4,15.57,7.77,29.94,3.1,46.3-4.06,14.19-13.21,26.77-25.18,35.28-.21-.24-1.49-1.6-1.61-1.61-.26-.12-.46-.24-.46-.37-.09-1.64-.22-4.68.86-5.66l.91-1.69c23.24-18.48,27.29-53.08,11.2-77.58-31.14-47.41-100.27-21.35-100.05,32.54l-.79,1.72.88,1.74c1.51,22.96,16.27,44.66,38.84,51.35l1.24,1.16c.31,1.26.28,2.75,0,4.02Z"/>
    <path class="cls-96" d="M241.05,231.38c.9-1.08,1.92-1.1,2.81,0,1.32-1.14,3.11-1.16,4.42,0,.38-.2.77-.39,1.17-.53,1.74-.57,13.55-.24,15.35.39.4.14.77.33,1.15.54,1.86.62,2.09,2.34,1.97,4.08l.71,1.19c2.18-.43,3.16-.05,2.94,1.16-.82,1.07-4.34,1.04-5.62.4-.36.64-.62.51-.8-.4-1.15.74-4.03,4.08-1.97,4.34.69,4.61.94,4.54.75-.2-.15-1.48.26-2.32,1.22-2.54l.44-.11c.07,2.04.19,4.09.36,6.13l5.37.06c.3-2.21.25-4.46-.15-6.73l.8-.57c1.12-.71,1.92-.84,2.41-.4,2.24.2,3.79,1.85.87,2.45l.55.81c-.37,1.13.08,2.73.59,3.97.37.1.36.24,0,.4.46.4.96.97,1.2,1.61.33-.49.38-1.36-.13-1.77l.54-.24c.62-.57.85-.33.4.4.72.43,1.39.56,2.01.4q1.22.2,0,0c-2.15.82-1.47-1.28.8-1.21-.51-1.24-.64-2.45-.4-3.62.04-.28.3-.28.8,0-.49-.73-.45-.84.4-1.21,1.16-.69,1.83.65,2.01,4.02-.02,2,.01,4.02,0,6.03-2.22-.68-4.38-.25-6.22,1.21s-.42,1.67-3.01,2.01c-.19.23-.39.44-.62.61-1.7,1.27-21.2.45-24.89.19l-1.4-.81c-1.35,1.26-3.63,1.04-5.12.2l-1.31.21c.35.1.34.23,0,.4-.81.11-1.7.07-2.01-.8v-.8c-.61-.22-.58-.54,0-.8-.97-1.53-.85-3.95-.26-5.66-.63-4.26-.7-8.91-.48-13.32.03-.62.21-1.12.73-1.51.43-.81,1.18-.93,1.61,0Z"/>
    <path class="cls-65" d="M327.78,230.98c2.82,1.14,4.53,1.11,6.6,4.04,6.86,9.71-4.47,15.04-12.22,16.85l5.62-20.9Z"/>
    <path class="cls-5" d="M274.78,253.48c.36.58,1.23.01,1.04.82-.33,1.39-1.09,2.59-.23,3.99-2.61.06-5.24-.07-7.86,0-.5.01-.92.41-.98.41l-1.04.55c-7.78-.04-15.45-.1-23.02-.19-1.33-.63-2.87-4.06-1.24-4.78.02-.13-.01-.27,0-.4,2.04-.57,2.92-.19,3.2,1.93l1.22.76c.11-1.85.78-2.89,2.01-3.09,8.3-.04,18.9,1.04,26.9,0Z"/>
    <path class="cls-34" d="M284.02,231.78c0,4.15.03,8.31,0,12.46-1.24-.82.4-1.54-2.01-1.21-.12-.61.67-.4.98-.79.57-.72-.4-1.62-.98-2.02-.65,1.03-2.37-.03-1.64-1.35-1.37.35-2.51.34-2.99-1.16-.33,1.36-1.33,1.53-3,.5-.62.15-1.28,1.2-1.81,1.61-.2.09-.3-.82-.6-1.2-.55.52-.76.27-.4-.4-.78-.98-3.39-.04-4.02-.41-.04-.03.48-.79.04-1.02-.59-.3-1.25-.05-1.77-.19-.43-.12-.16-.93-.47-.8-1.13.5-2.31,1.05-3.41,1.61l.4-4.02,1.6,1.21c.14.25-2.29,1.42-.61,1.58.53.05,1.9-1.18,2.02-1.18.51.02.22,2.3,2.21.19-1.47-.41-.45-.71-.39-1.58,0-.11-1.52-.78-1.21-1.84l1.75-.83c4.28-.23,8.55-.26,12.82-.07.35-.77.85-1.01,1.49-.71.86-.07,1.53.46,2.01,1.61Z"/>
    <path class="cls-104" d="M278.8,223.74c1.93-.25,6.45,4.02,5.22,6.03v2.01c-1.48-.08-1.33-.53-2.01-1.61l-.56.1c-1.92-3.19-3.54-3.23-7.11-2.51-1.43-.45-2.88-.72-4.35-.83-5.43.59-11.73.65-17.18-.04-.63-.08-1.2-.39-1.72-.74-.76-.32-1.65-.35-2.41,0-.62,1.58-2.51,1.33-3.61.8-.19.76-1.06,1.26-2.6,1.5-.2,1.49-.67,2.46-1.42,2.92-.46,0-1.06.47-1.61,0-2.4-2.01,3.56-8.19,5.07-7.94.2.03.38.16.56.31,6.05-.17,12.14-.15,18.27.08,5.19-.25,10.35-.28,15.46-.08Z"/>
    <path class="cls-61" d="M239.45,253.48c.95-.11,1.59-.13,2.01.8-.13.96.66,3.84,1.49,4.03,1.97.45,5.75-.07,7.97-.02,5.22.12,10.64.51,15.84.42,2.41.38,6.4-.52,8.56-.01.34.08.55.87.67,1.22l-.07.4c-11.81.03-23.64.01-35.46-.06-1.89-.22-2.19-3.87-1-4.77-.48-.67-.48-1.34,0-2.01Z"/>
    <path class="cls-89" d="M310.92,260.31c-.51.34-.92.38-1.35.9-11.6,13.91-41.33,25.93-59.45,23.98-.39-.04-1.51-.18-1.44-.76,2.19-.12,4.44.15,6.63,0,17.66-1.18,37.45-8.02,50.6-20.49.83-.79,1.69-2.35,2.6-3.22.68-.04,1.53-.33,2.41-.4Z"/>
    <path class="cls-97" d="M239.45,255.49c.08,1.76-.55,4.25,1.83,4.38l34.71.04c.1.3.47.52,0,.8-2.37.11-4.78.24-7.23.4-.07.36-.21.35-.4,0l-3.61-.4c-.07.36-.21.34-.4,0-4.31-.02-8.45.12-12.45.4-.23.77-.58.77-.8,0l-8.83-.4c-1.34,1.2-6.4-.48-4.02-2.41-.33-.83-.38-2.07,0-2.81.22-1.46,1.03-1.53,1.2,0Z"/>
    <path class="cls-15" d="M280,222.94c.91-.9,2.98.89,2.41,2.01.89-.89,2.7,1.04,2.01,2.01,1.53-.23,2.36,3.95,1.2,4.82.7.09.7.49,0,1.21,1.27.22,1.11,3.01,0,3.62.95.48.82,1.15-.4,2.01.36.07.34.21,0,.4,1.09.5,1.09,1.1,0,1.61,1.23,0,1.33.41.4,1.21-.28.76-.38,1.66,0,2.41,0,1.82-.42,4.13-.4,6.03-.1,0-.46.52-.8.4-.52-.82.28-16.73.03-19.54-.07-.78-.33-.98-.43-1.36-.66-2.58-3.04-4.47-5.22-6.03-.96,0-1.36-.27-1.2-.8.24-1.19,2.22-1.27,2.41,0Z"/>
    <path class="cls-52" d="M275.99,261.12c.52.08.55.27.8.4-.26.71-.88.86-1.49,1.12-5.08,2.12-10.72,3.23-16.17,3.71.4-.35,1.63-1.59,2.01-2.01l1.26-1c3.37-.49,6.84-1.01,9.99-2.21.97-.35,2.65-.34,3.61,0Z"/>
    <path class="cls-89" d="M304.09,260.71c-3.04.71-6.67.44-9.84.41-.68,0-1.79.26-2.2-.41,4.01-.08,8.04.11,12.05,0Z"/>
    <path class="cls-89" d="M275.99,260.71v.4c-1.04-.16-2.48.03-3.61,0-1.16.75-2.62,1.13-3.61,0,2.15-.91,4.93-.17,7.23-.4Z"/>
    <path class="cls-89" d="M277.19,114.84c.08.64-.05,1.1-.69,1.01-12.91-4.2-26.78-4.47-40.06-2.01-1.03-.13-1.28-.62-.61-1.42.37-1.71,1.53-3.17,3.49-4.38,7.54-2.47,3.33-10.61-2.68-6.51-3.65,2.71-6.8,6.06-9.86,9.38l-.99-.1-1.53,1.25c-12.87,3.77-23.54,12.18-32.87,21.13-.68.37-1.06.07-1.33-.68,12.67-25.87,38.43-48.34,69.16-42.9,14.97,2.65,13.64,13.24,17.97,25.21Z"/>
    <path class="cls-35" d="M277.19,114.84c4.69,12.97,11.34,18.8,23.7,24.31,1.29.57,2.96.77,4.15,1.47,5.62,3.32,11.12,21.31,13.11,27.67-17.15-36.38-53.66-54.72-92.61-39.04-.51.21-1.36.9-1.75.06l.05-1.74c1.23-2.81,8.74-14.16,11.06-14.95.3-.1.61-.15.93-.19.32,1.02.74.56,1.42.45,13.69-2.15,24.86-2.15,38.25,1.87.58.17,1.1.55,1.69.09Z"/>
    <path class="cls-89" d="M188.05,136.94c7.37-8.54,16.38-15.53,26.5-20.98,1.12-.61,7.39-3.59,8.35-3.47,1.16.15,1.12.61.49,1.55.74.92.21,1.41-.8.8-2.98,1.8-7.39,3.16-10.54,4.93-6.85,3.85-14.8,10.25-20.19,15.96-1.9,2.02-3.27,5.08-5.82,6.03.63-1.66,1.31-3.2,2.01-4.82Z"/>
    <path class="cls-35" d="M225.79,110.82c.81.96-1.21,3.95-2.41,3.21.28-1.66-2.26-.39-2.8-.19-10.71,3.76-23.81,14.03-31.24,22.58-.3.34-.77,1.61-1.29.52.65-1.51,1.29-2.95,2.01-4.42.92.16,1.32-.08,2.03-.58,1.87-1.31,4.5-4.51,6.61-6.24,7.87-6.47,17.38-11.77,27.09-14.88Z"/>
    <path class="cls-89" d="M308.91,268.75c-10.81,19.21-32.27,33.53-54.46,35.31-24.29,1.94-48.25-17.87-60.38-37.32.8-.06,1.34.21,1.99.62,2.18,1.39,4.59,3.93,6.89,5.56,29.4,20.88,66.71,21.74,96.85,1.78,2.95-1.95,5.78-4.99,9.11-5.95Z"/>
    <path class="cls-89" d="M191.66,262.32c-.96-.14-2.35-4.25-2.81-5.22,3.24,1.94,5.6,5.32,8.43,7.84,10.86,9.69,30.76,20.26,45.15,21.06.57.03,1.24-.47,2.01-.38,1.38.16,1.81,1.51.33,1.95s-1.7-.5-2.42-.65c-2.46-.5-5.75-.45-8.55-1.07-12.78-2.86-26.71-10.29-36.53-18.9-2.09-1.83-3.41-4.32-5.62-4.63Z"/>
    <path class="cls-89" d="M312.52,261.52c-.65,1.65-1.75,3.12-2.41,4.42-.33-.95-1.08.13-1.43.38-3.67,2.71-13.25,11.04-17.28,11.65-.42.06-1.29.23-.97-.57.43-1.06,6.52-3.87,8-4.85,4.31-2.87,8.3-6.94,12.26-10.24.59-.5.91-.94,1.82-.79Z"/>
    <path class="cls-89" d="M184.84,247.85c.91-.05,1.04.6,1.45,1.16,2.15,2.86,3.7,4.67,5.95,7.31.71.84,1.05,2.3,2.23,2.99-.4.65-.89-.13-1.21-.4-1.85-1.55-3.05-3.64-4.72-5.32-.54-.55-.6-1.13-1.7-.91-.67-1.6-1.42-3.19-2.01-4.82Z"/>
    <path class="cls-100" d="M145.09,93.54c.93,1.36,1.57,1.19,2.89.46,2.21.19,2.97,1.06,2.3,3.24-1.49.64-3.18,1.72-.73,2.47-.08.96.18,1.85.77,2.68,1.8.11,1.22,2.06-.4,2.01.41,1.04.41,1.98,0,2.81,1.2.42,1.29,4.11,0,4.42.57,1.86.71,4.25-.05,6.34.29,1.16.72,2.85-.75,2.9.55,1.52,1.23,4.46-.16,5.85l-.21,4.44-.83.55c-.73.41-1.71.5-2.93.27-.23,1.78-1.01,3.28-2.34,4.51,1.12-.58,2.15-.37,2.47.92.79-.16,1.56.05,2,.73,0,.12.35.42.32.69-.22,2.35-.15,4.8-1.13,6.95-1.22.65-3.28.39-4.02,1.61-.4,1.71-3.76-.19-4.05-1.02l.64-5.41c-1.82-.24-1.61-2.44.4-2.75-.75-1.5-.71-2.57.12-3.2-.72-1.93-.43-2.99.85-3.16l.44-.94c-1.38-1.78-1.44-5.52,0-7.23-1.22-.7-.68-1.82.4-2.41-.85-1.03-.9-4.06.4-4.82-.99-.4-.63-2.95-.38-4.2.8-.89.75-1.33.44-2.44l.74-.6c-.19-.19-.54-.34-1.05-.45,1.38-4.75,1.95-9.58,1.71-14.5l.94-.32c.04-.55.31-.82.8-.8.24-.08.4.23.4.4Z"/>
    <path class="cls-83" d="M136.66,147.39c1.49-2.03,1.88-1.43,2.81.4-2.24,1.65-.53.93-.39,1.47-.32,2.84-.61,5.73-.82,8.58-.38,1.2-2.3,2.85-2.41.8,0-.02-.01-.18,0-.4.73-.91.98-1.71.4-2.81.01-.48.05-2.81.02-2.96-.07-.31-.84-.25-.82-.45.05-.6,1.21-1.15,1.21-1.25.01-.65-.69-1.61-.63-2.39.03-.35.62-.78.63-.99Z"/>
    <path class="cls-2" d="M140.67,130.91c.12,2.11-1.17.81-1.21,1.41.4.94.77,2.22.75,3.23,0,.3-1.15-.06-.74.98l1.21.4c-1.59-.2-.17,1.11-.77,1.84-.28.34-1.94.46-2.04,1.37h3.21c-2.42,1.8-1.39,1.43-1.61,3.42-.1.86-.52,2.49-.43,3.18.03.25,2.67,1.18,3.24.65-.37.62-.42,1.31-.41,2.01-.77-.81-1.55-1.1-2.41-1.61-.08-.05-.41.13-.7-.11-.11-.09-.09-1.3-.89-.67-.06.05.1.78-.25.81-.36.03-.82-.43-.97-.42-1.96-.5-3.73-2.77-.81-3.12.46-2.14.7-4.32.73-6.54.77.06.79-.22.48-.79-.19-.82-.19-2.19.72-2.35l-.32-.46c-1.07-.13-1.02-.5,0-.8.77-1.72,1.84-2.52,3.21-2.41Z"/>
    <path class="cls-84" d="M138.26,157.84c-.09,1.17.08,2.69,0,3.62-.44.74-.62,1.08-.4,2.01-.11.38.06.89-.4,1.21-.24-.36-1.14-.73-1.61-.8-.06-1.66-.11-3.5,0-5.22,1.02.95.77-.96,2.41-.8Z"/>
    <path class="cls-32" d="M138.26,161.46c-.07.83-.19,1.26-.4,2.01-.52-.61-1.3-1.2-1.2-2.01h1.6Z"/>
    <path class="cls-92" d="M123.81,99.17l2.01-.4c-.31.61-.41,1.11-.44,1.8-.06,1.65.52,2.43-.11,3.72-.06.11-.67.1-.68.35-.13,2.88,2.25-.79,2.43,1.76.1.81,1,.18.4-.4.95-.38,1.23-.89,2.41-.4.26.11.62.74.8.8.54.67.13,1.11-.4,1.61-1.75,2.25.42,4.98-2,7.04l1.2.2c-.99.89.54,3.48.4,3.61-.12.11-.92-.13-1.19.02-.12.06.34,2.36.34,2.62,0,.23-.71.1-.7.35,0,.59.88,1.42-.45,1.83.55-1.54-1.21-1.63-1.61-.6-.65,1.67,1.44.71,2.01,1.01.14.07,0,2.99-.4,3.21-.07-.3.18-.96-.06-1.16-.21-.18-.86.05-1.09-.09-.15-.09-.26-2.82-1.66-2.37l.41.8c-1.2-.44-2.06.13-3.21.41l1.21.4c-.61,1.67-.13,1.93-2.01,1.2.21-2.39.75-4.73.8-7.23-1.57-1.18-.4-3.82.4-5.37-1.34-.97-1.09-3.92,0-5.08,0-.05.5-.38.35-.89-.13-.42-.88-.91-.74-1.11.02-.03.67.13.79-.28.69-2.36-.2-4.39.81-7.36Z"/>
    <path class="cls-55" d="M133.44,97.16c.08,3.14,1.88-.65,2.81,0l.61,1.61c.26-1.28,1.7-1.25,2.1-1.72s.17-2.23,1.71-1.29c0,.47,0,.94,0,1.4,1.73.56,1.44,4.07.67,5.51.62,1.05.25,2.96-1.07,2.93-.31.05-.29.19,0,.4,1.81.16.7,3.15,0,4.02,1.16.45.76,1.53-.4,1.61-.85-.09-1.64-.23-2.39-.4-.39-1.81-1.46-2.92-2.9-1.63,1.14.95.62,2.18-.87,1.9-.04,1.04-.22,2.28-1.46,1.74.06-1.01-.26-1.1,0-2.41.38-.44.51-.98.4-1.61-.08-.32-.36-.84-.4-1.21-1.2.12-1.12-1.29,0-1.61.02-.63.62-1.46.6-2.04-.02-.68-.55-1.42-.57-1.81,0-.17.64-.09.73-.43.37-1.33.11-3.25.44-4.96Z"/>
    <path class="cls-100" d="M132.24,113.23c1.3-1.22-.19-2.93,2.41-2.42.18-.65-.59-.29-.67-.47-.64-1.4.53-1.53.85-1.97.06-.08.96-2.67.98-.98,0,.66-.37,1.08.84,1.01.12-1.22,1.31-1.68,2.42-1.6.32,1.29-.77.55-1.1.87-.09.09-.53,1.56-.52,1.71.02.26.85.19.84.46-.01.31-.57.84-.42.97.35.32,1.76-1.34,2.01.81.7.77.57,1.84-.4,3.21.23.57.24,1.55-.4,1.61-.78,1.29-2.49,2.8-4.26,3.33l.38.45c2.12-1.12,3.28-1.04,3.48.24,1.15.6.66,1.1-.4,1.61.35.1.34.23,0,.4-1.06.23-2.14.56-3.25,1-1.05,2.04-3.19.7-3.98-1,.08-1.3,0-4.08.82-4.22-1.53-1.82.24-2.09.3-2.27.15-.42-1.11-1.8.88-1.95l-1.2-.4c-.1-.31.4-.35.4-.4Z"/>
    <path class="cls-88" d="M130.23,135.34c.95-3.09,2.55-3.09,4.42,0,.13-.37.26-.37.4,0,.56.1.82-.04.8-.4-1.54-.43.9-2.4.8-.4.43-.07.76.05.97.41-.52.84-1.88,3.32-.57,2,.78.44-.02,1.43.07,2.13.07.59.64.99.74,1.29.03.11-2.1.46,0,1.19-.93,1.07-1.45,2.06-.81,3.42l-2.4.21c.57.32,2.01,1.62,2,2.21-2.95.12-3.28-.19-5.62-1.74-.34-.23-1.1.04-1.38-.65-.05-.12-.09-2.52-.06-2.65.16-.63,1.1-1.68,1.04-1.79-.02-.03-.43.08-.64-.15-.26-.29-.55-1-.76-1.04-.28-.04-.67,1.39-1.4.18.33-1.49,1.54-.72,2.22-1.39.1-.1.17-2.43.18-2.83Z"/>
    <path class="cls-55" d="M138.26,122.48c.78.31.82.53.4,1.21,1.33.33.37,4.62-.8,4.82l-.47,1.04c.11,1.7-.26,2.42-1.14,2.17-.08.96-.55.94-.8,0-1.62-.61-2.6-1.64-2.92-3.07-2.7,1.15-1.71-2.09-.33-3.24-.8-.23-1.18-.38-1.17-1.32.06-.75-.03-1.16,0-1.61h1.81s-.6.6-.6.6c1.48,2.03,1.76,0,2.5-.46.15-.09.49.1.7,0,1.4-.71.71-1.05,2.82-.13Z"/>
    <path class="cls-30" d="M131.03,124.08l3.61,1.41h-1.62c.12.71-2.58,2.13-1.99,2.61s1.88-.9,2-.8c.44,1.74.55,3.58,2.81,2.81.21.59-.37,1.25-.4,1.61.72.27.84,1.29,0,1.61.51.47-.11,1.61-.8,2.01-1.3.22-2.82,2.41-3.02,2.41-1.01.03-.31-.99-.1-1.31.6-.89,1.85-1.08,1.5-2.11-.24-.71-1.33-.44-1.74-.21-.57.32.17,1.52-1.07,1.21.11-3.82.47-7.41.8-11.25Z"/>
    <path class="cls-8" d="M132.24,106.4c0,.16-.01,1.52,0,1.61-.84.56-.35,3.93-1.41,4.01-.85.06-.14-3.47-.6-4.01-.46-.61-.22-1.22.4-1.61.08.03,1.19-.4,1.61,0Z"/>
    <path class="cls-84" d="M136.25,155.43l1.18.17c-.89,1.14.17,2.39-1.58,2.64.03-.73.39-2.16.4-2.81Z"/>
    <path class="cls-29" d="M137.86,194.81c-.26-.75-1.16-.7-1.61-1.21l2.81-1.2c-.23.51.05,1.7-.19,2.01-.31.42-.94.32-1.02.4Z"/>
    <path class="cls-29" d="M137.46,195.61c-.52.44-.81.8-1.61.8.09-.75-.23-1.48.6-2l1,1.2Z"/>
    <path class="cls-60" d="M141.88,195.21c.62,3.06.41,7.4-.4,10.45-.8-.3-.85-2.42-.83-3.01.11-2.53.31-3.5.21-6.04-.01-.31.74-1.03.22-1.8.74-.23.71.36.8.4Z"/>
    <path class="cls-14" d="M131.03,196.02c-.99,1.66-1.29-.01-1.39-.01-2.29.09-.04,6-2.84,4.03-.42-.6,1.21-4.5,1.41-4.66.31-.26,2.21.67,2.83.64Z"/>
    <path class="cls-103" d="M127.42,106c1.29-.33.56.86.28,1.09-.56.45-1.58.75-2.29.92-.13.16,1.64,1.91,1.2,2.4-.86.98-1.64-2.14-1.72-2.3-.12-.23-.81.04-.68-.3.32-.9,2-1.04,2.81-1.41.15-.07.28-.35.4-.4Z"/>
    <path class="cls-59" d="M141.88,93.14c-.43-.76,1.17-1.25,1.62-.32.93-.85,1.19.45.39,1.12-.5.52-.07,5.85-.2,7.19-.23,2.47-.81,5.08-1.84,7.47,1.38.54.42.47.43.61.16,1.18-1.3,1.77-2.01.8.03-.77-.51-1.65-.43-2.17.04-.27.8-.21.79-.42,0-.26-.41-.81-.36-1.43-.36-.04-.34-.18,0-.4.14-1.25,1.53-2.23-.4-3.01,1.63-.54,1.24-2.13,1.14-3.63-.05-.69-.33-.7-.33-1.8,1.81-.66.4-2.55,1.2-4.02Z"/>
    <path class="cls-76" d="M144.28,91.53c1.13-.32.67.59.4,1.61-.37,1.39-.57.56-.8.8.28-1.19-1-.94-1.81-1.08l-.19.28c-.68.04-.93.14-.81-.6-.03-.43.65-.1.81-.21.29-.19,1.08-.88,1.2-.8.29.19.38,2.49,1.21,0Z"/>
    <path class="cls-92" d="M159.94,99.97c.93,1.94.83,3.46-.31,4.57.21,1.08.52,2.13.93,3.16l-.41.64c1.79.61,1.37,2.83-.48,2.81.62.83.96,1.68,1.03,2.54-2.23,4.14-3.1,10.3-2.86,15.4-.76.31-.7.66.09.83l-.8.6.49.77c-.51,2.26-1.21,4.28-2.1,6.06,0,.13,0,.27,0,.4-1.29.47-1.58,2.18-2.11,2.72-.29.3-2.05,1.03-2.51,1.69-1.6-2.14-.76-5.17-.6-7.63-.36-.04-.34-.18,0-.4.95-2.07,1.5-4.51,1.84-6.78.33-.79,1.03-.93,1.77-1.05-1.22-.7-2.55-1.51-.79-2.22-2.44-1.3-2.97-2.24-1.61-2.81l-.85-.55.41-4.46c-.23-1.04-.29-3.18.84-3.42-.92-1.23-.8-3.42-.04-4.75-.36-1.84-.08-3.47.85-4.89.32-.73,1.2-1.01,2.63-.85,1.07-1.51,2.47-2.44,4.2-2.77.15.08.3.37.4.4Z"/>
    <path class="cls-88" d="M162.75,103.59c2.45,4.47,1.7,9.89,1.28,14.68-.08.9-.07,2.01-.31,3.04-1.07,4.7-2.65,6.82-4.19,10.81-.57,1.28-3.01-.33-2.41-1.61.14-.36.62-.44,1.45-.24-1.72.28-1.88-2.13-.08-1.87.53-1.95.87-3.94,1.02-5.97-1.15-.83-.87-1.84.34-2.46-.35-1.92-.13-4.64.83-6.28-.4-1-.22-2.13.05-3.17.2-.77.49-1.67,1.29-2.13.16-.68.26-1.32-.08-2-.73.56-.96.34-.4-.4-1.12-.78-.12-3.56,1.2-2.41Z"/>
    <path class="cls-59" d="M159.94,99.97c.74.22,1.09-.47.4,1,1.97,1.08.45-1.23,2.01-1,.21,1.34.98,2.28.41,3.62-.03.06-.48.12-.56.38-.11.32-.62,1.93-.64,2.04-1.01.07-.59.86.4.4.61.28,1.03-.3.98,1.26-.06,1.9-.83,1.41-1.17,1.95-.24.38-1.21,7.69-1.32,8.88-.14,1.47,1.02,1.74-.9,2.58-.31.8.69.47.8.85.07.23-.46,4.18-.58,4.76-.08.41-.58,2.5-.64,2.61-.04.07-1.19-.32-1.59,0,.12,1.02,1.17.34,1.2.4.94,2-1.4.64-1.6.8.21.89,1.25.8,2.01.81-.43.83-.66.88.4.8-.14.37-.12.85-.4,1.21-1.68.41-.55,1.45-1.3,2.32-.28.33-.96.24-1.27.45-.52.36.19,1.55-1.05,1.25.15-2.16.83-5.64,1.61-6.83.13-.2-.35-2.93-.31-3.68.09-1.81.65-3.97.87-5.55.28-1.97.03-4.99,1.85-5.84-2.02-.44.72-1.68.8-1.81.11-.17-2.37-2.26-1.2-3.61.05-.06,1.66.81,1.59-.2-.04-.59-1.54-.93-1.6-1.01-.38-.55,2.07-2.39,0-1.81.59-.9-.33-1.58-.31-2.34.03-1.03,1-1.05,1.03-1.13.06-.17-.57-2.95.08-3.56Z"/>
    <path class="cls-11" d="M153.92,93.54c.77.46,2.61,1.65,3.39,1.63.12,0,.4-1.38,1.43-.83l-1.2,2,2.41,1.21c-.23.86-.29,1.6-.4,2.01-.1.37-.74,1.89-1.01,2.01-.64-2.11-1.61.71-2.6,1.34s-2.19.06-3.22.26c-1.83-.74-1.45-3.88.4-4.82-1.05-.71-.51-4.65.8-4.82Z"/>
    <path class="cls-90" d="M122.6,108.81c.11,1.31-.12,3.45-.01,4.16.05.32,1.47-.07.38,2.36-.13.29-.69.28-.76.6-.11.5.4,1.77.34,1.93-.3.85-.31-.64-.35,1.4-.65,1.42-1.4.86-1.61-.4l-1.2.4c.07-.27.39-.52.4-.61.05-.28-1.05.04-.78-.77.15-.46,1.02-.66.78-1.44-.75.64-2.65.07-2-.8.31-.41,1.92.06,2,0,.23-.16.36-4.77.41-5.63-.24-1.79,1.31.66,1.87-1.2h.54Z"/>
    <path class="cls-2" d="M151.51,121.27c.06.32-.19.83.09,1.12.42.45,1.02-.64,1.52,1.69-.28.68-.75.66-1.36.58.6,1.67.49,2.92-.33,3.78-.24,1.68-.41,3.52-.29,5.21l-.82.48c-.01.13,0,.27,0,.4-.81.13-.61,1.25-.92,1.52-.23.2-.9-.01-1.03.13-.25.27.12,1.18-.11,1.52-.14.2-.64-.02-.75.05-.97-1.4-.9-4.87.4-6.03.09-1.43.06-4.05.26-5.17.16-.92.88-.88.89-1.03.02-2.42-.85-2,.06-4.64.21-1.19,2.4-.76,2.41.4Z"/>
    <path class="cls-40" d="M147.9,131.72c-.13,2.02-.05,4.03-.4,6.03-.07.04-.4.37-.4.4-.57.53-1.48-.21-1.93.05-.31.18-.24,1.46-1.28,1.15l.4-2.22c-1.23-.74-2.38,1.58-3.21.22,1.62.25.29-1.36.43-1.57.05-.08,1.11-.38,1.6-1.04.07-.1.94-1.73,1.09-2.02.07-.13-.18-1.17.14-1.36.72-.45,2.79-.16,3.57.36Z"/>
    <path class="cls-80" d="M149.5,138.95c.6.61-1.14,1.67-1.6.6.16-.31,1.49-.72,1.6-.6Z"/>
    <path class="cls-64" d="M118.59,127.7c1.08.22,2.21.21,1.01,1.6-.23-.34-.82-.27-1.01-.39-.03-.4.02-.81,0-1.21Z"/>
    <path class="cls-105" d="M151.91,89.12c1.18,2.14-.22,1.88-.32,2.07-.5.99,1.57,1.69,2.33,1.94,0,.14.03.3,0,.4-.4,1.57-.4,3.57-.8,4.82-1.04,1.73-1.98,2.26-2.81,1.61-.36-.12-.8-.39-.73-.7.25-1.25.64-2.61,1.13-3.72.27-.35.8-.61,1.24-.59.05,0-.94.34-.84-.21-.86-.65-.74-1.87-.4-2.81-.37-.04-.34-.18,0-.4.05-.53.67-2.22,1.2-2.41Z"/>
    <path class="cls-76" d="M145.09,93.54c.59.32,2.95.41,3.21-.21.24-1.36-1.65.19-2-.2.05-1.21.53-1.84-.4-2.81.54.06,2.51.29,2.81,0,.09-.09-1.14-1.62-.4-2.41,1.36-.15.54.28.62.76.23,1.35.18,2.48,1.78,2.86-.01.13,0,.27,0,.4-.3,1.15-.38,1.89.4,2.81.47.21.34.47-.4.8-.09,1.25.34,1.54.37,2.24,0,.13-.66.33-.78,2.18,1.08.62,1.05,1.77,0,2.41-1.37-.81-1.9-.75-1.21-2.41l-1.6.4c.31-.72-.12-1.8.18-2.39.62-1.19,3.68-1.14,2.02-2.86-.54-.56-1.34.63-1.61-.77-.5,1.31-1.94.83-2.24,1.02-.43.27-.06,1.34-1.18.99.13-.8.39-2.05.4-2.81Z"/>
    <path class="cls-65" d="M235.83,112.43c-5.13,5.2-8.53,10.55-12.05,16.88-.85,1.54-2.4,2.9-2.41,4.82.32.27.18.53-.4.8-1.71,2.27-1.8,4.34-5.62,3.62-.72.49-.94.55-.8-.4-.1-.08-1.55-1.89-1.61-2.01-.24-.54-.44-1.61-.43-2.21.05-3.1,5.37-11.76,7.26-14.67-.88-.63-.66-.91.4-.8.77-1.16,2.12-2.1,2.41-3.62.48-.29.53-.56.8-.8,1.2-1.1,1.57-2.27,2.41-3.21,2.27-2.57,9.74-10.54,12.74-11.16,3.64-.75,6.75,2.3,5.36,5.76-.75,1.87-2.86,2.27-4.24,3.39s-2.58,2.36-3.81,3.62Z"/>
    <path class="cls-89" d="M196.09,261.12c3.81,2.92,7.28,6.31,11.26,9.02,9.69,6.57,27.1,14.02,38.83,13.6,2.33-.08,2.12,1.01-.11,1.13-5.36.27-16.37-2.99-21.59-4.95-8.89-3.33-18.85-9.06-25.8-15.57-.41-.39-3.03-2.78-2.6-3.23Z"/>
    <path class="cls-89" d="M288.43,278.8c.61.51-1.8,1.92-2.13,2.08-6.28,3.04-13.37,4.36-20.14,5.56-1.17.21-3.34,1.01-4.47,1.2-2.08.34-2.82-1.78-.75-2.03.76-.09,1.44.41,2.01.38,4.33-.24,13.95-3.16,18.47-4.77,2.45-.87,4.44-2.68,7.01-2.43Z"/>
    <path class="cls-89" d="M220.17,118.46c-.16.24-.24.56-.4.8-3.2.22-6.63,2.4-9.36,4.09-5.36,3.32-10.47,7.43-14.75,11.76-.81.82-1.21,1.84-2.2,2.62-.42.33-2.18,1.52-1.79.21.53-1.78,4.3-3.67,5.2-5.65,3.6-2.34,6.61-5.46,10.17-7.91,2.3-1.58,9.15-5.95,11.53-6.57.81-.21,1.28-.28,1.61.64Z"/>
    <path class="cls-89" d="M247.28,286.03h10.84c.99,0,.99,2.01,0,2.01h-10.84c-.71,0-1.29-1.54,0-2.01Z"/>
    <path class="cls-52" d="M308.91,170.3l-2.4,2.01c-6.65-17.33-23.08-31.27-41.29-35.24-43.09-9.39-77.89,29.56-71.03,71.49,3.71,22.69,20.93,43.62,43.65,48.94.15.14.29.4.4.8.33,3.12,1.69,2.36,4.02,2.41l8.83.4c.27,0,.54,0,.8,0,4.29-.01,8.44-.14,12.45-.4.13,0,.27,0,.4,0,.58-.02.98.11,1.2.4-.03,1.38-3.45,2.64-4.02,1.21-55.88,6.22-90.67-54.84-61.2-100.83,2.07-3.22,4.77-5.98,6.59-9.28.13-.34.26-.34.4,0,.74.31,1.54.31,2.41,0,.08-.76.57-1.51,1.49-2.27.32-1.25.76-2.23,1.32-2.95,6.1-4.28,11.95-8.36,19.07-10.86,30.86-10.84,64.58,4.19,76.9,34.16Z"/>
    <path class="cls-35" d="M220.98,134.93c.12-.16.1-.55.4-.8,5.6-4.73,22.67-7.48,29.89-7.62,60.97-1.16,90.6,73.08,52.81,118.32-1.85,2.21-5.52,6.33-7.82,7.85-.61.4-1.02.14-1-.2.03-.5,6.08-5.95,7.02-7.03,45.71-51.89-3.45-137.09-69.99-115.05-3.9,1.29-7.39,3.62-11.33,4.54Z"/>
    <path class="cls-65" d="M212.95,146.99c.51,2.08-.85,4.47-2.81,5.22-.87.32-1.68.32-2.41,0-.14-.02-.28.03-.4,0-2.49-.58-2.8-3.62-2.32-5.74.79-3.51,7.08-2.99,7.94.52Z"/>
    <path class="cls-35" d="M268.36,261.12c.13,0,.27,0,.4,0,1.19-.05,2.43-.03,3.61,0-.28.77-.73.92-1.42,1.19-2.94,1.16-6.7,1.52-9.82,2.02.53-.6,1.45-1.4.8-2.01,2.34-.26,2.62-.81,4.02-1.21.58-.38,1.38-.38,2.41,0Z"/>
    <path class="cls-35" d="M215.35,138.55c-1.49,1.46-3.55,3.42-5.2,4.64-.37.28-1.22.95-1.62.58-.86-.79,5.71-4.82,6.02-5.62.04.03.76.39.8.4Z"/>
    <path class="cls-52" d="M254.7,265.54l-4.01.39c.79-1.31,2.86-.75,4.01-.39Z"/>
    <path class="cls-52" d="M305.3,204.86c-.19,1.17-.9,1.08-1.2,0l-.66-1.61c3.65-44.22-43.84-77.27-81.45-48.19-32.45,25.09-24.48,79.6,14.5,93.12l1.36,1.29c.31,1.29.29,2.72,0,4.02-17.34-4.31-31.52-18.84-37.35-35.56-1.93-5.53-3.5-12.85-3.61-18.69.56-.51.92-.4,1.36.09-.82-34.03,28.01-63.26,62.74-57.7,24,3.84,42.43,24.24,45.38,48.15.35,2.85.98,12.49-.42,14.41-.18.25-.41.47-.65.68Z"/>
    <path class="cls-47" d="M285.62,244.24c-.35-.79-.31-1.6,0-2.41,0-.44-.4-1-.4-1.21,11.21-7.92,17.19-21.95,19.46-35.33l.62-.43c4.62-28.13-14.67-56.82-42.88-62.17-35.41-6.71-65.56,23.63-63.13,58.55l-2.41-2.01c-1.05-57.26,70.47-82.86,102-33.97,16.15,25.04,11.13,61.24-13.26,78.97Z"/>
    <path class="cls-89" d="M238.24,255.49c.03.92-.09,1.93,0,2.81-.39-.11-.38-.46-.4-.8-.1-1.28,0-2.71,0-4.02s-.04-2.69,0-4.02c-1.28-.56-.94-1.68.4-1.21.77,1.31.83,2.81.16,4.52.37,1.18.32,2.09-.16,2.71Z"/>
    <path class="cls-3" d="M282.01,230.17l-1.07,1.49c-4.98-.34-10.01.09-15,.11-5.73.03-11.86-.38-17.67-.4-.99-1.08.97-4.92,2.41-5.22.1-.18.24-.17.4,0,4-.2,7.81.06,11.82.45,3.33.32,5.09-.73,8.41-.4,1.08.11,2.2.76,3.27.78s1.95-.5,3.14-.4c2.88.25,3.07,1.68,4.27,3.6Z"/>
    <path class="cls-18" d="M247.48,241.83c.02,5.36-8.21,6.19-6.64.39,1.52-5.62,12.28-4.25,10.07,2.45-.52,1.57-2.96,2.04-3.02.98-.02-.43,2.14-2.84-.41-3.82Z"/>
    <path class="cls-10" d="M274.38,238.21c.53-.13,1.41.23,1.93-.09.34-.21.26-1.5,1.48-1.11.4.13.44,1.12.88,1.23,1.04.24,4.32-1.36,2.14,1.38.24.56.98.45,1.2.6.02.56.16.99-.4,1.21-.8-.33-2.39-.21-.8,0,.81.84,1.33,2.72.4,3.62l-1.56.25c.07,1.02-.52,1.13-1.26.55-.12-.16-.16-.34-.4-.4.16.65-.38.65-1.61,0-.12-.11-.92.05-1.15-.65-.5-1.54.94-2.02-2.06-1.76.29-.86,1.15-1.23,2.01-1.21.15-.67-.59-.3-.88-.51-1.95-1.36.73-1.51,2.09-1.5l-2.01-1.6Z"/>
    <path class="cls-56" d="M271.57,238.21c.22.05.28.25.4.4-.06,2.64.99,5.42-.06,7.98-2.01.41-3.94.1-5.97.06-.02-.27.02-.54,0-.8-.27-2.32-.51-5.12,0-7.23.06,0,.46-.43.98-.41,1.27.03,3.63-.23,4.65.01Z"/>
    <path class="cls-13" d="M246.27,222.94c.22.51-.18.78-1.2.8-3.49,1.9-5.32,3.44-5.62,7.64-.46,6.34-.08,14.02,0,20.49-.47.61-.47.88,0,.8,0,.27,0,.54,0,.8.01.67-.03,1.34,0,2.01-.27-.15-.31-.81-.6-.81s-.33.66-.6.81c-.07-2.4.02-4.83,0-7.23-.36-.07-.34-.21,0-.4-.79-.64-.78-1.36,0-2.01.61.06.6-.12,0-.4-.47-.34-.27-.73,0-1.21-1.2-1.25-1.28-4.39-.26-5.63-.18-2.86-.09-5.67.26-8.44-1.3-.56-.58-2.66.8-2.81l-.31-.98c1.57-1.72,3.01-3,4.33-3.84.75-.81,2.84-.74,3.21.4Z"/>
    <path class="cls-27" d="M248.68,226.15c.62-.29,1.47-.41,2.01,0l-2.41,5.22c-1.44,0-2.95,0-4.42,0-1.08-.8.81-4.72,1.52-3.73l-.31-.69c1.15-.26,2.44-.71,3.61-.8Z"/>
    <path class="cls-16" d="M255.11,247.05c-.37-1.53,1.57-2.01,1.92-3.1.46-1.46-.37-6.58,2.26-5.71,1.15.38.73,5.82.16,6.91-.75,1.45-2.78,2.18-4.33,1.89Z"/>
    <path class="cls-75" d="M265.14,238.21c.53.45.64,1.29,0,1.61-.72,2.2-.3,4.56-.4,6.83-2.88.88-1.55-2.99-2.06-3.57-.14-.15-1.41-.1-1.55-.66-.06-.26,2.62-4.44,2.84-4.58.6-.38,1.01.32,1.17.37Z"/>
    <path class="cls-44" d="M245.07,226.96c1.33-.11.64.22.33.93-.52,1.16-1.14,2.27-1.53,3.49-.94,0-1.86.02-2.81,0,.41-4.26.67-3.67,4.02-4.42Z"/>
    <path class="cls-10" d="M254.26,238.25c.59.39.29,2.99.44,3.71.04.17,1.38.51.79,1.46-.12.19-2.09.54-2.55.38-1.54-.54-1.14-7.17,1.31-5.55Z"/>
    <path class="cls-28" d="M247.88,253.48c-1.54.99-.22,5.5-3.44,3.24-1.57-1.1.14-3.61-2.98-2.84.25-.5,5.29-.4,6.42-.4Z"/>
    <path class="cls-41" d="M265.95,238.61c.09,2.4-.12,4.84,0,7.23-.83-1.31-.28-3.43-.39-5.05-.04-.54-.39-.83-.42-.97-.09-.48.06-1.1,0-1.61.24.07.62.41.8.4Z"/>
    <path class="cls-67" d="M274.22,245.48c1.99-.61,1.44,2.37-.44,1.97-.96-.2-.19-1.78.44-1.97Z"/>
    <path class="cls-101" d="M281.21,245.04c-.53.51-.95.43-1.61.41-.02.48.58.57.8.8-.2.39.39,1.24-1.35.82-.42-.1-.43-.9-.66-1.22.81-.75,1.72-.95,2.81-.8Z"/>
    <path class="cls-1" d="M276.39,245.85c1.44-.8,1.78.44,1.2,1.61-1.61-.26-1.36-.61-1.2-1.61Z"/>
    <path class="cls-66" d="M280.4,246.25c.88-1.74,3.61,1.55.7.79-.38-.1-.47-.57-.7-.79Z"/>
    <path class="cls-77" d="M277.99,245.44v1.8s-.4.21-.4.21c.02-1.39.36-1.83-1.2-1.61.02-.11.02-.39,0-.4.49.08,1.19-.11,1.61,0Z"/>
    <path class="cls-97" d="M239.45,251.87c0,.27,0,.54,0,.8l-.41,1.61h-.39c.16-.98-.6-2.73.8-2.41Z"/>
    <path class="cls-22" d="M281.61,241.43c-.18.07-.55-.05-.8,0-.72.14-1.3.66-1.61-.4.74.07,1.93-.33,2.41.4Z"/>
    <path class="cls-7" d="M253.5,222.94c5.2-1.19,10.88-1.27,16.06,0,2.3-1.11,5.84-1.41,8.03,0,.37.32.81.52,1.2.8-11.17,1.28-22.57,1.06-33.73,0,.42-.23.82-.51,1.2-.8,2.23-1.12,4.64-1.12,7.23,0Z"/>
    <path class="cls-99" d="M251.09,226.15c-.13,0-.27,0-.4,0-.66.04-1.35-.05-2.01,0,.4-.66,2.03-.65,2.41,0Z"/>
    <path class="cls-89" d="M264.34,260.71c-.42.67-1.52.4-2.2.41-3.41.04-6.84,0-10.24,0,.42-.67,1.52-.4,2.2-.41,3.41-.04,6.84-.01,10.24,0Z"/>
    <path class="cls-89" d="M251.09,261.12c-2.84,0-6.13.34-8.83-.4,2.86.06,6.12-.38,8.83.4Z"/>
    <path class="cls-89" d="M268.36,261.12c-.69.03-1.89-.15-2.41,0l-1.2-.4c1.13,0,2.82-.33,3.61.4Z"/>
    <path class="cls-23" d="M285.62,231.78c-.12-1.02-.7-4.06-1.2-4.82l.35-1.64c24.09-29.74-.37-78.16-39.71-70.49s-46.36,66.85-8.27,82.95c.16-.85.51-1.51,1.05-1.98-1.18-1.1-1.24-3.36,0-4.42-1.14-.81-.99-1.62.4-1.21-.43,4.21.03,9.68,0,14.06-.11.35-.25.35-.4,0-5.57-.83-11.15-4.64-15.45-8.35-28.01-24.26-20.27-73.23,15.6-85.26,40.44-13.56,73.59,29.46,58.12,66.75-.83,2-7.37,14.74-10.02,14.73-.16,0-.31-.14-.47-.32Z"/>
    <path class="cls-37" d="M237.84,235.8c-3.46.13-7.44-3.01-10.18-5.26-28.06-22.99-15.23-71.72,21.88-74.68,31.71-2.53,51.94,31.01,39.67,59.32-1.48,3.41-3.58,8.09-6.8,9.77-.33-.3-2.26-1.96-2.41-2.01-.21-.62.03-1.32.7-2.1-.13-1.48.17-2.39.9-2.72,15.85-23.87-2.74-60.99-33.08-56.69-34.77,4.92-41.71,52.56-11.64,68.6l.95,1.35c-.06,1.47.03,2.95,0,4.42Z"/>
    <path class="cls-73" d="M284.42,226.96c-.08-.12-1.73-1.75-2.01-2.01,12.15-15.23,13.11-36.8,1.37-52.61-16.51-22.22-49.58-20.76-64.18,2.81-13.34,21.54-5.1,50.62,18.24,60.65-.02,1.07.02,2.15,0,3.21-17.94-6.11-28.48-24.99-27.7-43.6,1.39-33.04,37.04-53.75,65.57-35.09,21.7,14.2,25.96,47.32,8.71,66.63Z"/>
    <path class="cls-47" d="M285.62,236.6c-.02-1.09.06-2.75,0-3.62,2.59-2.64,4.97-5.11,6.89-8.49,6.98-12.33,9.31-24.95,5.92-38.85-6.23-25.52-29.79-42.29-56.03-36.25-42.48,9.79-49.99,68.85-13.72,91.11,2.61,1.6,6.26,3.71,9.16,3.73h.4c0,.4,0,.8,0,1.21.36.07.34.21,0,.4,0,.67,0,1.34,0,2.01-.31.11-.63.21-.95.25-3.3.41-13.62-6.62-16.52-9.05-34.03-28.49-19.83-87.48,24.97-93.95,40.19-5.8,68.07,36.45,53.87,72.9-1.99,5.11-8.51,16.88-13.23,19.24-.2.1-.57-.33-.77-.63Z"/>
    <path class="cls-47" d="M304.09,204.86c.49.29.53.63.44,1.1-.95,5.17-2.22,9.98-4.28,14.85-1.03,2.44-4.25,9.33-6.09,10.75-.35.27-.87.25-1.31.22l-1.2,1.61c.11.38-.02.51-.4.4-1.64,2.6-3.65,4.21-6.02,4.82,0-.54.42-1.28.4-2.01.76,0,1.14-.51,1.62-.99,23.51-23.55,19.49-65.05-8.88-82.76-27-16.85-61.19-3.73-72.14,25.38-10.63,28.25,3.2,60.12,32.02,69.62,0,.13,0,.27,0,.4-.52.19-.39.76-.4,1.21-42.18-12.99-50.07-72.41-13.62-97.01,38.83-26.2,84.42,7.91,79.87,52.41Z"/>
    <path class="cls-47" d="M285.62,232.99c-.03-.43.02-1.05,0-1.21,2.16-.95,4.1-3.73,5.38-5.66,24.21-36.54-6.64-87.68-50.44-75.8-44.91,12.17-46.42,79.01-2.72,93.92.16,1.25-.37.76-1.13.53-11.28-3.49-21.99-14.39-26.92-24.9-13.34-28.42,1.86-64.51,33.27-71.07,41.85-8.75,70.84,38.1,50.81,74.15-1.94,3.5-4.76,7.97-8.24,10.04Z"/>
    <path class="cls-68" d="M249.48,214.5c1.89-1.22,4.5-1.19,6.42,0,5.14-1.21,10.52-1.23,15.66,0,1.38-1.26,5.99-1.47,7.23,0,1.8-2.07,4.91,1.59,2.81,3.62.07,2.16.27,3.49-1.61,4.82-.45-.15-1.76.03-2.41,0-2.66-.11-5.37.02-8.03,0-.32-.17-.65-.47-.56-.77.34-1.16,1.95-1.42.27-.53-2.39,1.27-6.51.18-3.23-2.46.04-.16-.14-.73-.17-.75-.22-.1-4-.12-4.66-.03-1.24,1.31-3.02-.8-.88-1.09-.43,1.11-4.09.98-5.42.8-.93-.12-2.22-.37-3.01-.8l1.01.4c4.06.35,1.56,1.95-.82,2.77.67.52,1.14,1.34,1.41,2.46-2.39-.02-4.84.11-7.23,0-.88-.04-2.49.06-3.21-.4-1.14.59-2.22-1.25-1.2-2.01-3.47-5.95,2.74-8.33,7.63-6.03Z"/>
    <path class="cls-94" d="M305.3,204.86c-1.87,11.36-8.25,28.34-18.05,35.19-.71.5-1.11.74-2.03.58,0-.55,0-1.06,0-1.61,2.58-1,4.35-3.11,6.02-5.22.14-.13.26-.27.4-.4l1.2-1.61c6.2-6.22,10.36-18.28,11.24-26.92h1.2Z"/>
    <path class="cls-47" d="M285.22,239.01c0-.13,0-.27,0-.4,2.23-.61,4.24-3.18,6.02-4.82-1.11,1.92-3.64,5.21-6.02,5.22Z"/>
    <path class="cls-35" d="M285.62,244.24c-.63-.03-.65-1.99,0-2.41,0,.8,0,1.61,0,2.41Z"/>
    <path class="cls-102" d="M153.12,98.36c-.29.9-.81.94-.81,1.04,0,.34.3,3.42.41,3.79s.93.99.79,1.19c-.02.03-.64-.12-.78.3-.4,1.18.03,2.55-.07,3.54-.05.5-.5.85-.54,1.2-.1.94.3,2.29-.2,3.42-.78,1.72-2.38.64-2.01-1.21.06-1.2-.02-3.03,0-4.42.38-.85.66-1.65-.39-2.01l.39-.8s-.02-.36.15-.68c.08-.15.61-.08.61-.32,0-.19-.33-.65-.36-1.02-.08-.96-.06-1.49,0-2.41l2.81-1.61Z"/>
    <path class="cls-90" d="M149.91,111.63c.26,1.8,1.74.99,2.01,1.21.1.08-.1,1.1,0,1.2.35.33,1.62-.79,2-.2-.28.69-2.34.9-2.41,1.01-.04.06.37.82.36,1.37-.02,1.56-.59,3.75-.36,5.05l-2.41-.4c.37-1.08.19-1.75,0-2.82l-.8-.2c1.91-.94,1.08-2.53,1.19-4.03.05-.72.4-1.8.42-2.2Z"/>
    <path class="cls-46" d="M140.67,123.68c-.21,2.37-.13,4.78,0,7.23-.41.86-1.29.96-1.98,1.44-.51.35-.03.89-1.23.97-.1.37-.23.36-.4,0-.41-.85-.34-1.84.8-1.61.12-.55.12-1.07,0-1.61-.81-.21-.52-1.14,0-1.61.07-1.18.88-4.58.8-4.82-.3-1.43,2.25-1.57,2.01,0Z"/>
    <path class="cls-12" d="M139.47,114.84l-.43-.32c.92-1.52,1.73-.88,2.43,1.92.02,1.89-.17,2.87-.4,4.82-.65.67-.55-.49-.54-.44.2,1.89-1.07,2.43-2.27,1.24.1-.53.34-1.1.4-1.61-1.48-1.03-1-2.98.4-4.02.05-.58.03-1.11.4-1.61Z"/>
    <path class="cls-2" d="M142.28,109.21c.02.68.43,2.1.39,2.57-.02.25-.66.18-.77.54-.81,2.59.15,1.85.37,2.12.45.55-.81.62-.8,2.01l-1.61-.41.4-1.6c-.73-.22-.72.37-.8.4-2.77,1.02-2.59-.28-.81-1.61l.81,1.2c-.58-1.27.23-1.83.4-2.81.07-.39.39-1.24.4-1.61l2.01-.8Z"/>
    <path class="cls-87" d="M148.3,104.4c.21.7-.98.2-.8.6.47,1,1.02.89.4,2.62-4.24-.36-4.38-3.77.4-3.21Z"/>
    <path class="cls-26" d="M141.07,121.27c-.09.8-.35,1.79-.4,2.41-.63-.49-1.31-.23-2.01,0-.12-.38-.58.29-.4-1.21.02-.13-.02-.27,0-.4.48-.25,1.66-.22,1.95-.46.09-.07-.37-2.31.86-.35Z"/>
    <path class="cls-87" d="M149.91,104.39c.66.78,1,2.21,0,2.81,0-.32.05-1.55,0-1.61-.16-.17-1.17.26-1.21-.21-.07-.94.77-.58,1.21-1Z"/>
    <path class="cls-100" d="M140.27,105.6c-.01.13.01.27,0,.4l-2.81-.2c-.37-1.25,2.34-.87,2.81-.2Z"/>
    <path class="cls-100" d="M132.24,110.82c.11-.55.04-1.12.4-1.61.12.5,1.05,1.03-.4,1.61Z"/>
    <path class="cls-55" d="M138.66,120.47l-.81-.31c-1.29.5-2.17.35-3.2,1.51-.24-2.49-.79-.78-2-1.81,1.18-1.41,4.96-.52,3.61-3.41,1.02-.46.75.83.98.8.35-.05,1.29-.73,1.83-.8-.01.13.37.42.38.61,0,.21-.72.13-.79.46-.11.46.14,1.91.01,2.95Z"/>
    <path class="cls-30" d="M137.46,134.13c1.91-.22,1.63.87,0,1.01.68,1.67.06,1.16-.39,1.8-.09.12.11.71,0,.8-.1.08-1.54-.34-1.6-.4-.49-.53,2.19-1.94,1.2-2.81-.34-.97.08-1.15.8-.4Z"/>
    <path class="cls-55" d="M137.06,133.33c.07.03.28,0,.4,0v.8c-.38.05-.71.39-.8.4-.11.02-.66-.5-.77-.37-.15.16.05.65-.03.78.09.7-.34.97-.8.4-.05-.03-.3-.02-.4,0-.11-.79.67-1.54.8-2.01.3-1.03.44-1.31,1.2-.4.57-.44.54-.26.4.4Z"/>
    <path class="cls-30" d="M135.85,134.93l.39.2-.4,1.01c-.48.07-.66-.73-.8-.8.19-.16.72-.28.8-.4Z"/>
    <path class="cls-30" d="M137.86,130.11c.29.71.29,1.24,0,1.61-.3.3-.51,1.19-.8,1.61-.21-.09-.28-.23-.4-.4-.82.22-1.02-.83-.4-1.21.02-.11.46-.49.54-.89.21-1.03-.28-1.84,1.07-2.33-.03.53.03,1.07,0,1.61Z"/>
    <path class="cls-88" d="M136.25,131.72c-.05.31.21.93.4,1.21l-1.2.4c.29-.99-.04-1.09,0-1.61h.8Z"/>
    <path class="cls-31" d="M153.12,124.08c.07.33-.09,1.09,0,1.21.03.04.5-.37.7-.28.18.09.55,1,1.3.88-.84,1.7-1.11.93-2.4,1.62l.8.99c-1.64-.29-.27,1.5-.4,1.61h-1.21c.86.94-.51,3.08-.4,3.21.11.14.97-.31.8.4l-2.01.41c.06-.77-.01-3.64.06-3.82.66-1.71.08-1.09.32-2.36.05-.28.79-.23.78-.42-.04-1.58-1.86-4.48,1.65-3.45Z"/>
    <path class="cls-86" d="M153.92,136.14c.74.59-.73.86-.8,1.08-.19.66.25,1.69-.61,2.13-.65.33-.54-.55-.74-.66-.54-.32-1.67.09-.82-.94.43-.52,2.3-2.13,2.96-1.61Z"/>
    <path class="cls-59" d="M155.13,122.88c.27-.34,1.83-.46,1.6.59-.27,1.24-2.18.13-1.6-.59Z"/>
    <path class="cls-72" d="M161.55,106c-.07.43.25.33.4.4-.69,3.21-2.9-1.21-.6-.8l.2.4Z"/>
    <path class="cls-43" d="M151.11,94.75c.37.06.81-.05,1.2,0,.12.63-.99.58-1.6.8.01-.2.39-.58.4-.8-1.55-.26-1.32-1.66-.4-2.81-.01.55.44,1.87.4,2.81Z"/>
    <path class="cls-94" d="M210.13,152.21c-.74.28-1.69.96-2.41,0,.76.09,1.63-.06,2.41,0Z"/>
    <path class="cls-74" d="M244.66,243.83c-2.1.16-1.8-1.28-.59-2.41,1.52.23.85,1.42.59,2.41Z"/>
    <path class="cls-93" d="M279.6,243.84c.47.13.47.32.4.8h-3.01c-.61-.21.2-.76.2-.8.41-.38,1.77-.25,2.41,0Z"/>
    <path class="cls-21" d="M280,243.03c-.87.38-2.29.29-3.21,0,.62-.67,2.58-.68,3.21,0Z"/>
    <path class="cls-48" d="M280,243.03c.04.37-.12.35-.4.4-.56.41-1.71.27-2.41,0,0-.06-.51-.09-.4-.4h3.21Z"/>
    <path class="cls-33" d="M279.6,243.43v.4h-2.41c0-.13.01-.27,0-.4.75-.09,1.71.13,2.41,0Z"/>
    <path class="cls-20" d="M270.76,243.03c.28.27.06,2.84-1.2,2.41v-2.41c.32.05,1.12-.08,1.2,0Z"/>
    <path class="cls-6" d="M268.35,243.03v2.41c-1.69.07-1.69-2.48,0-2.41Z"/>
    <path class="cls-39" d="M270.77,239.82c.25.63.4,1.4,0,2.01-.27.1-.84-.06-1.2,0-.22-1.08.14-3.08,1.2-2.01Z"/>
    <rect class="cls-4" x="267.15" y="239.82" width="1.2" height="2.01"/>
    <path class="cls-51" d="M270.77,241.83v-2.01c.6.61.71,1.74,0,2.01Z"/>
    <path class="cls-82" d="M281.61,218.12c-.08-2.48,0-3.32-2.81-3.62l-.38-1.28c16.32-31.1-21.82-63.4-47.15-36.69l-1.06.2c-.44.57-1.22.93-2.35,1.07-.72,1.45-1.54,2.3-2.47,2.55l-.34,2.13c-8.98,15.8-2,37.37,13.99,44.88-.37.67-.72,2.02-.8,2.81-.52.19-.38.77-.4,1.21-28.32-12.95-27.41-56.35,1.46-68.26,29.78-12.28,56.66,18.04,46.83,47.27-.82,2.45-2.23,6.56-4.53,7.73Z"/>
    <path class="cls-36" d="M231.01,184.76l.26,1.39c-5.07,11.83-2,26.79,9.88,33.13l.7,1.25c.05.3,1.01,1.89,1.2,2.01.75.92-.02.84-.51,1.29-1.04.96-2.83,2.32-3.5,3.53-2.04.86-5.5-2.3-7.02-3.63-12.47-10.91-15.58-29.44-6.64-43.39l.79.55c-.06,2.47,1.86,3.71,4.17,3.2l.67.67Z"/>
    <path class="cls-97" d="M238.24,245.44l.8-.4v1.81c-.52.71-.3-.6-.8-1,0-.13,0-.27,0-.4Z"/>
    <rect class="cls-97" x="238.65" y="247.86" width=".39" height="2.01"/>
    <path class="cls-63" d="M253.5,222.94c-2.68-.53-.99-1.2-1.25-1.56-.09-.13-.78-.05-1.08-.72-.25-.56-.27-1.85-.48-2.54,1.35.25.71,1.55.8,1.6.25.15,2.41-1.2,3.21-1-.71-.69-2.44-.19-2.81-1.41h8.43l-.4,1.2c2.35-2.84,3.93.61,6.21-1.21.59.27.46,1.34.7,1.53.35.29,1.25-.28,1.12.47l-1.18.24-1.63,1.77c1.3-.45,3.42.59,4.01-.8l-1.2-.4c1.09.2,4.6-.14,3.61,1.6-.07.11-1.56-.48-2,1.21-5.35-.05-10.71.05-16.06,0Z"/>
    <path class="cls-47" d="M291.64,233.39c-.07-1.01.75-1.15,1.2-1.61.05,1-.69,1.14-1.2,1.61Z"/>
    <path class="cls-50" d="M271.57,214.5c-5.21-.06-10.45-.04-15.66,0-.4-.8,0-1.42,1.23-1.87,11.59-3.46,14.45-20.86,4.16-27.35l-.17-.92.08-.94c6.87-4.07-4.02-11.38-3.85-2.55l-.65.68-1,.61c-20.16-2.5-25.1,24.98-6.35,31.26l.12,1.08c-1.9.04-6.5-.51-7.54,1.29-.18.31-.2,4.13-.09,4.74-13.43-6.32-16.95-22.8-10.84-35.77-.89-.97,1.06-3.01,2.01-3.21,9.87-14.16,31.18-13.36,40.55,1.53,5.1,8.11,5.26,17.54,1.72,26.25-.62,1.53-2.41,4.5-3.72,5.17Z"/>
    <path class="cls-49" d="M278.8,214.5c-2.2-.23-4.94.03-7.23,0,.67-2.25,2.35-3.9,3.28-6.16,4.16-10.03,1.96-22.42-6.09-29.82-8.77-8.05-21.87-8.46-31.11-.99-1.58,1.27-2.68,3.23-4.63,4.01-.56-.6-.92-1.52-1.08-2.76-.87-.65-1.45-1.34-1.73-2.06,1.76-3.13,5.44-5.66,8.57-7.3,22.93-12.08,47.68,8.55,43.92,33.1-.69,4.52-2.36,7.78-3.9,11.97Z"/>
    <path class="cls-9" d="M256.71,181.55c.65.05,1.29.48,1.92,1.27,1.36.18,2.2.69,2.49,1.54,3.68,1.18,6.74,6.88,7.18,10.69.72,6.07-1.76,13.25-7.05,16.56-1.73,1.08-4.01,1.44-5.35,2.88-2.14.02-4.29-.04-6.42,0-2.04-1.63-4.68-2.21-6.79-3.85-2.51-1.95-4.57-5.65-5.37-8.69-3.13-11.89,7.17-23.33,19.39-20.41Z"/>
    <path class="cls-57" d="M269.16,215.71c.17.34-.34,1.21-.6,1.21h-23.69c-.08,0-.73-.68-.6-.8.52.18,1.18-.41,1.41-.41h23.49Z"/>
    <path class="cls-91" d="M274.38,215.71v1.2c-3.61.35-3.61-1.55,0-1.2Z"/>
    <path class="cls-55" d="M137.86,130.11l.8,1.41c.09.4-.7.09-.8.19-.3-.59-.02-1.16,0-1.61Z"/>
    <path class="cls-24" d="M230.21,176.73c2.34.37,3.32,2.69,2.81,4.82-.45,1.89-1.42,1.98-2.01,3.21-3.36.87-5.87-.78-5.62-4.42,1.2-1.87,1.21-4.19,4.82-3.62Z"/>
    <path class="cls-68" d="M265.54,218.52c.08.08-.04.88,0,1.21-3.39.05-.53-1.74,0-1.21Z"/>
    <path class="cls-25" d="M261.13,184.36c-1.94-.62-3.66-.39-4.42-2.81-1.67-5.35,4.66-7.7,6.9-3.49,1.55,2.91.23,4.99-2.49,6.31Z"/>
    <path class="cls-42" d="M243.46,201.64l1.06-.75c2.15,1.17,16.42-3.69,10.2-5.53-3.42,1.99-7.03,2.88-10.82,2.68l-.84-.83c-1.25-2.86,1.83-7.05,4.14-8.52,9.41-5.95,19.39,5.11,14.11,14.52-4.16,7.41-15.25,6.49-17.84-1.58Z"/>
    <path class="cls-25" d="M243.46,201.64c-2.45-.19-5.29-.51-4.34-3.73.58-1.96,2.83-.71,3.94-.69,1.83.04,3.84.13,5.64-.18,2.5-.43,5.54-3.41,7.43-2.25,3.32,2.03-1.7,4.72-3.45,5.44-3.05,1.26-5.93,1.66-9.23,1.41Z"/>
  </g>
  <ellipse class="cls-78" cx="139.87" cy="81.94" rx="139.87" ry="81.94"/>
  <text class="cls-17" transform="translate(83.89 99.95)"><tspan x="0" y="0">コラム</tspan></text>
</svg>