<?xml version="1.0" encoding="UTF-8"?>
<svg xmlns="http://www.w3.org/2000/svg" viewBox="0 0 511.05 556.52">
  <defs>
    <style>
      .cls-1 {
        stroke: #d59c19;
        stroke-width: 1.41px;
      }

      .cls-1, .cls-2, .cls-3, .cls-4 {
        fill: none;
        stroke-miterlimit: 10;
      }

      .cls-5 {
        fill: #e6b124;
      }

      .cls-5, .cls-6, .cls-7, .cls-8, .cls-9, .cls-10, .cls-11, .cls-12, .cls-13, .cls-14 {
        stroke-width: 0px;
      }

      .cls-6 {
        fill: #000;
      }

      .cls-15 {
        fill: #231815;
        font-family: Impact, Impact;
        font-size: 69px;
      }

      .cls-7 {
        fill: #d59c19;
      }

      .cls-8 {
        fill: #904423;
      }

      .cls-9 {
        fill: #d66419;
      }

      .cls-16 {
        fill: #e13d17;
        stroke-linejoin: round;
      }

      .cls-16, .cls-3 {
        stroke: #040000;
        stroke-linecap: round;
        stroke-width: 5px;
      }

      .cls-10 {
        fill: #dfaa1a;
      }

      .cls-2 {
        stroke: #36a438;
      }

      .cls-2, .cls-4 {
        stroke-width: 3.98px;
      }

      .cls-11 {
        fill: #843c21;
      }

      .cls-12 {
        fill: #fff;
      }

      .cls-4 {
        stroke: #cfe078;
      }

      .cls-13 {
        fill: #040000;
      }

      .cls-14 {
        fill: #ad921e;
      }
    </style>
  </defs>
  <g id="_レイヤー_1" data-name="レイヤー 1">
    <path class="cls-14" d="M277.12,457.64c1.11-.85,2.12-1.9,3.36-2.51,13.1-6.48,25.36-14.2,36.8-22.99,9.09-6.98,17.63-14.61,26.32-22.04,20.44-17.49,36.77-38.37,54.11-58.4,7.97-9.21,15.15-19.06,22.18-28.93,6.38-8.96,12.14-18.31,18.04-27.56,1.24-1.94,2.93-2.7,4.69-1.7,1.71.97,2.04,2.63.65,4.69-5.96,8.85-11.36,18.06-17.58,26.74-7.3,10.2-15.03,20.15-22.97,29.93-8.8,10.84-17.63,21.7-27.18,31.94-18.94,20.33-39.69,38.93-63,54.82-9.94,6.78-21.01,11.64-32.24,16.16-.89.36-1.94.34-2.92.49-.09-.21-.17-.42-.26-.64Z"/>
    <path class="cls-6" d="M223.54,525.48c6.27-5.15,12.13-3.29,18.13-2.77,6.99.61,14.15.44,21.13-.32,7.41-.81,14.89-2.11,22-4.3,9.02-2.78,9.31-2.22,6.57-12.22-1.25-4.58-1.91-9.32-2.68-14.02-.47-2.84.63-4.76,3.62-5.63,17.11-4.94,32.69-12.86,46.52-24.12,17.23-14.03,30.83-30.59,36.67-52.57.52-1.94,1.34-3.84,1.61-5.81.28-2.07,1.45-3.05,3.1-2.39,1.01.4,2.27,2.32,2.06,3.27-1.13,5.19-2.35,10.41-4.14,15.41-3.67,10.19-9.72,18.98-16.46,27.43-10.84,13.6-24.26,24.1-39.24,32.47-7.92,4.42-16.71,7.3-25.18,10.71-2.1.84-2.95,1.27-2.16,4.02,1.85,6.5,2.94,13.21,4.38,19.82.74,3.39-1.43,4.6-3.98,5.74-15.65,6.98-32.19,9.21-49.11,8.51-7.37-.31-14.69-2.01-22.84-3.2Z"/>
    <path class="cls-6" d="M141.92,279.12c3.02-6.18,4.85-12.32,8.56-16.96,5.12-6.41,11.74-11.49,21.03-10.08.95.14,2.19-.4,2.86.04,1.28.84,2.25,2.16,3.34,3.28-1.4.82-3.02,2.55-4.17,2.28-4.15-.96-7.67-.1-11.33,1.81-7.63,3.99-11.32,10.61-12.93,18.63-.68,3.38-1.62,5.44-5.67,6.3-14.88,3.15-24.24,14.99-24.68,30.4-.11,3.92.11,7.86-.13,11.77-.07,1.14-.93,2.6-1.89,3.26-8.11,5.64-10.53,13.93-11.57,23.15-.86,7.52-.43,14.76,1.98,21.96.39,1.16-.42,3.64-1.37,4.12-2.16,1.09-3.29-.51-3.97-2.67-4.72-14.79-3.91-29.08,3.6-42.81.51-.93,1.09-1.98,1.93-2.54,5.34-3.59,5.5-9.12,5.62-14.66.22-10.27,3.81-19.45,10.08-27.29,4.92-6.15,12.41-8.53,18.71-10.01Z"/>
    <path class="cls-10" d="M236.72,442.57c9.6.16,16.55,4.2,22.09,10.76,1.28,1.52,1.74,2.95-.99,5.06-8.98,6.94-24.28,2.13-29.83-4-3.75-4.16-2.02-8.69,3.16-10.72,1.95-.76,4.17-.83,5.56-1.09Z"/>
    <path class="cls-6" d="M363.94,293.64c3.28-1.96,4.88-1.11,5.23,3.88.25,3.59.55,7.19,1.09,10.74.16,1.03,1.02,2.25,1.91,2.83,8.03,5.18,10.56,13.58,12.42,22.05,1.91,8.71,1.94,17.57-.52,26.33-.59,2.11-1.5,3.5-3.61,2.98-1.99-.48-2.54-1.98-1.99-4.23,2.99-12.24,2.27-24.29-3.68-35.51-1.86-3.51-5.57-6.03-8.3-9.12-.91-1.02-1.92-2.36-2.01-3.62-.36-5.23-.38-10.48-.55-16.34Z"/>
    <path class="cls-10" d="M161.88,490.68c-10.36.28-18.94-3.35-25.23-11.75-1.73-2.31-4.23-4.85-2.54-7.93,2.04-3.71,5.81-5.54,9.99-5.24,8.02.58,15.52,2.89,20.54,9.72,2.07,2.82,3.57,6.16,4.84,9.45.9,2.32-1.75,5.22-4.7,5.65-.95.14-1.94.07-2.91.1ZM164.97,486.03c-4.7-12.74-12.54-14.7-21.26-15.73-1.51-.18-3.5,1.29-4.72,2.53-.38.39.72,2.83,1.67,3.84,3.85,4.11,7.86,8.18,13.87,8.85,3.25.37,6.55.33,10.44.5Z"/>
    <path class="cls-6" d="M262.89,401.13c-12.35.59-24.96,1.39-37.58,1.71-6.69.17-13.41-.5-20.12-.84-.8-.04-1.79-.18-2.34-.67-.87-.77-1.88-1.83-1.97-2.85-.06-.66,1.29-1.69,2.22-2.12.81-.38,1.91-.19,2.87-.17,11.92.14,23.84.45,35.76.38,5.89-.03,11.77-.79,17.66-1.15,4.01-.25,4.67.65,3.5,5.72Z"/>
    <path class="cls-6" d="M146.08,458.23c-1.26,1-2.64,2.09-4.22,3.35-12.53-10.81-23.12-22.93-29.36-38.38-1.68-4.16-2.93-8.49-4.48-12.7-.8-2.17-.05-3.89,1.96-4.11,1.08-.12,3.11,1.4,3.43,2.53,4.4,15.68,12.13,29.34,23.91,40.65,2.92,2.8,5.75,5.69,8.75,8.67Z"/>
    <path class="cls-6" d="M302.36,242.25c-.78.16-1.98.3-3.1.68-2.39.81-4.38-.13-4.79-2.24-.41-2.16,1.58-2.96,3.69-3.34,16.15-2.89,27.71,9.3,31.46,22.68.52,1.88,1.14,2.36,2.98,2.76,3.57.77,7.19,1.8,10.44,3.42,1.36.67,2.84,3.4,2.48,4.69-.59,2.12-2.52,1.82-4.7.71-3.34-1.7-7.04-3.19-10.72-3.59-3.3-.36-4.47-1.73-5.49-4.5-1.54-4.19-2.94-8.65-5.5-12.21-3.86-5.36-9.33-8.82-16.76-9.06Z"/>
    <path class="cls-5" d="M134.31,521.57c-8.63.01-10.95-3.28-6.84-10.9,1.72-3.2,4.72-5.95,7.68-8.19,4.18-3.16,8.86-5.7,14.51-4.89,1.4.2,2.8.39,4.2.61,8.21,1.27,8.03,5.39,5.02,11.44-3.18,6.4-9.45,9.09-16.08,10.68-2.77.66-5.66.84-8.49,1.24ZM130.57,517.26c3.82-.43,7.58-.46,11.12-1.34,5.19-1.3,10.22-3.16,13.05-8.37,1.56-2.88,1.26-4.03-1.76-4.93-7.47-2.22-13.16,1.24-18.36,5.94-2.38,2.15-4.5,4.6-4.05,8.7Z"/>
    <path class="cls-10" d="M255.27,492.44c-3.43.08-5.78-1.98-5.26-5.01,1.16-6.75,2.2-13.7,7.46-18.84,1.69-1.65,3.6-3.15,5.61-4.39,2.92-1.8,4.02,1.08,4.82,2.69,3.92,7.95-2.25,21.76-10.85,24.83-.77.27-1.52.61-1.78.71Z"/>
    <path class="cls-6" d="M176.03,400.53c-10.84-1.79-20.74-3.1-30.49-5.15-7.85-1.65-15.53-4.15-23.27-6.34-2.01-.57-4.85-1.06-3.98-3.91.77-2.51,3.32-2.11,5.58-1.55,11.37,2.82,22.71,5.76,34.14,8.25,5.55,1.21,11.28,1.68,16.96,2.23,2.15.21,4.64.06,4.35,2.85-.14,1.37-2.24,2.53-3.29,3.62Z"/>
    <path class="cls-10" d="M191.75,484.01c-10.53.65-17.63-4.47-23.13-12.27-3.03-4.3-.54-9,5.17-9.74,10.22-1.32,18.03,3.39,24.46,10.72,1.9,2.16,2.58,5.05,1.17,8.03-1.71,3.61-4.95,3.22-7.67,3.26ZM195.61,477.45c-3.2-7.27-9.6-9.98-16.63-12.08-2.97-.89-5.04-.39-6.78,2.03,7.15,10.71,17.95,13.76,23.41,10.05Z"/>
    <path class="cls-10" d="M221.68,497.09c-.9-8.25,9.66-21.06,18.55-23.12,4.91-1.14,7.88,1.72,7.19,6.81-1.53,11.33-8.49,19.61-20.67,21.9-3.75.71-4.93-.57-5.07-5.6ZM241.87,478.4c-7.67,1.57-16.4,12.36-15.38,19.01,7.66,1.32,18.81-11.81,15.38-19.01Z"/>
    <path class="cls-10" d="M159.56,518.03c-.02-6.54,4.37-10.67,8.86-14.09,3.77-2.88,8.52-4.61,13.03-6.34,3.29-1.26,5.47,1.45,5.54,5.09.09,5.23-1.65,9.57-4.82,13.5-4.21,5.21-9.8,7.86-16.41,7.84-4.15-.01-6.06-2.23-6.2-5.99ZM182.03,502.63c-9.08,1.91-16.87,8.51-17.84,14.68,1.5.76,2.82,1.44,4.29,2.19,9.81-3.82,14.81-9.98,13.54-16.87Z"/>
    <path class="cls-10" d="M221.65,474.7c-8.69-.31-14.3-3.26-17.78-9.74-2.41-4.48-.25-8.58,4.79-9.08,2.54-.25,5.18-.58,7.66-.17,6.77,1.14,12.72,4.08,16.83,9.78,2.49,3.46,2.21,4.66-1.62,6.24-3.57,1.47-7.42,2.25-9.88,2.97ZM207.05,461.98c6.29,10.31,15.39,9.36,21.72,5.64-5.88-7-17.19-9.98-21.72-5.64Z"/>
    <path class="cls-10" d="M189.98,510.07c-.45-9.16,8.51-19.73,17.29-22.04,4-1.05,8.51,3.06,8.53,7.28.05,9.1-8.52,19.08-16.47,21.47-5.84,1.75-9.63-1.07-9.36-6.71ZM211.47,496.27c.23-4.21-1.43-5.55-5.22-3.84-7.29,3.28-11.4,9.11-12.58,16.91-.52,3.45,1.8,4.95,5.17,4.03,5.59-1.52,13-11.05,12.63-17.1Z"/>
    <path class="cls-7" d="M113,476.78c8.84.07,16.82,2.27,21.88,10.19,3.64,5.7,1.54,10.47-4.94,12.61-8.73,2.88-23.94-4.1-26.63-15.32-.97-4.06,1.1-6.57,6.07-7.35,1.18-.19,2.41-.09,3.62-.12ZM106.18,482.34c1.32,2.41,2.38,4.8,3.84,6.93,3.9,5.66,14.18,9.06,19.66,6.67,4.05-1.76,4.62-3,2.32-6.71-1.26-2.03-3.04-3.86-4.93-5.35-5.04-4-16.05-4.81-20.88-1.53Z"/>
    <path class="cls-6" d="M193.35,398.93c-.74.58-2.2,2.6-3.57,2.54-1.5-.06-3.75-1.78-4.19-3.23-.65-2.16,1.2-3.91,3.5-3.66,1.71.18,4.37-.07,4.25,4.35Z"/>
    <path class="cls-6" d="M356.92,283.81c-2.07,1.63-3.48,3.45-4.3,3.22-1.42-.41-2.48-2.09-3.69-3.23,1.14-1.15,2.16-3.01,3.46-3.23,1.04-.18,2.42,1.64,4.54,3.24Z"/>
    <path class="cls-10" d="M164.97,486.03c-3.89-.17-7.19-.14-10.44-.5-6.01-.68-10.02-4.75-13.87-8.85-.95-1.01-2.06-3.45-1.67-3.84,1.22-1.25,3.21-2.71,4.72-2.53,8.73,1.03,16.57,2.99,21.26,15.73Z"/>
    <path class="cls-12" d="M130.57,517.26c-.45-4.1,1.67-6.55,4.05-8.7,5.2-4.7,10.89-8.17,18.36-5.94,3.02.9,3.32,2.05,1.76,4.93-2.83,5.22-7.86,7.08-13.05,8.37-3.54.88-7.29.91-11.12,1.34Z"/>
    <path class="cls-10" d="M195.61,477.45c-5.46,3.71-16.25.66-23.41-10.05,1.74-2.42,3.81-2.92,6.78-2.03,7.02,2.09,13.43,4.81,16.63,12.08Z"/>
    <path class="cls-12" d="M241.87,478.4c3.42,7.19-7.72,20.32-15.38,19.01-1.02-6.64,7.72-17.43,15.38-19.01Z"/>
    <path class="cls-10" d="M182.03,502.63c1.27,6.89-3.74,13.04-13.54,16.87-1.47-.75-2.8-1.42-4.29-2.19.97-6.17,8.76-12.77,17.84-14.68Z"/>
    <path class="cls-12" d="M207.05,461.98c4.53-4.34,15.84-1.36,21.72,5.64-6.33,3.72-15.43,4.68-21.72-5.64Z"/>
    <path class="cls-10" d="M211.47,496.27c.36,6.05-7.05,15.58-12.63,17.1-3.37.92-5.69-.58-5.17-4.03,1.18-7.8,5.29-13.64,12.58-16.91,3.79-1.71,5.46-.37,5.22,3.84Z"/>
    <path class="cls-1" d="M106.18,482.34c4.83-3.27,15.84-2.47,20.88,1.53,1.88,1.49,3.67,3.32,4.93,5.35,2.3,3.71,1.73,4.95-2.32,6.71-5.48,2.39-15.76-1.01-19.66-6.67-1.46-2.12-2.52-4.52-3.84-6.93Z"/>
    <ellipse class="cls-13" cx="146.13" cy="329.2" rx="8.13" ry="13.82" transform="translate(-9.17 4.22) rotate(-1.61)"/>
    <ellipse class="cls-13" cx="191.37" cy="327.93" rx="8.13" ry="13.82" transform="translate(-9.12 5.49) rotate(-1.61)"/>
    <path class="cls-3" d="M137.05,353.63c-3.98.87,33.94,27.4,63.12-2.07"/>
    <text/>
    <path class="cls-16" d="M200.88,350.2s20.11,13.97,10.32,19.84c-9.79,5.87-18.98-11.84-18.98-11.84l8.66-8Z"/>
  </g>
  <g id="_レイヤー_3" data-name="レイヤー 3">
    <text class="cls-15" transform="translate(57.99 239.02) rotate(-56.26) scale(1.16 1)"><tspan x="0" y="0">T</tspan></text>
    <text class="cls-15" transform="translate(76.92 209.8) rotate(-45.99) scale(1.16 1)"><tspan x="0" y="0">O</tspan></text>
    <text class="cls-15" transform="translate(105.62 179.83) rotate(-35.03) scale(1.16 1)"><tspan x="0" y="0">K</tspan></text>
    <text class="cls-15" transform="translate(138.84 156.24) rotate(-24.11) scale(1.16 1)"><tspan x="0" y="0">U</tspan></text>
    <text class="cls-15" transform="translate(176.77 139.2) rotate(-13.45) scale(1.16 1)"><tspan x="0" y="0">A</tspan></text>
    <text class="cls-15" transform="translate(214.64 130.54) rotate(-4.92) scale(1.16 1)"><tspan x="0" y="0">J</tspan></text>
    <text class="cls-15" transform="translate(239.69 128.4) rotate(1.4) scale(1.16 1)"><tspan x="0" y="0">I</tspan></text>
    <text class="cls-15" transform="translate(261.04 128.03) rotate(9.89) scale(1.16 1)"><tspan x="0" y="0">O</tspan></text>
    <text class="cls-15" transform="translate(302.04 135.31) rotate(19.98) scale(1.16 1)"><tspan x="0" y="0">T</tspan></text>
    <text class="cls-15" transform="translate(334.94 146.74) rotate(30.19) scale(1.16 1)"><tspan x="0" y="0">O</tspan></text>
    <text class="cls-15" transform="translate(371.15 166.6) rotate(43.07) scale(1.16 1)"><tspan x="0" y="0">M</tspan></text>
    <text class="cls-15" transform="translate(410.82 204.34) rotate(55.87) scale(1.16 1)"><tspan x="0" y="0">O</tspan></text>
  </g>
  <g id="_レイヤー_2" data-name="レイヤー 2">
    <ellipse class="cls-11" cx="235.66" cy="253.22" rx="10.88" ry="14.03"/>
    <ellipse class="cls-9" cx="274.01" cy="229.41" rx="10.88" ry="15.09" transform="translate(-73.16 144.64) rotate(-26.22)"/>
    <ellipse class="cls-8" cx="207.26" cy="229.41" rx="15.45" ry="10.88" transform="translate(-99.58 267.33) rotate(-54.95)"/>
    <ellipse class="cls-9" cx="277.86" cy="253.22" rx="14.12" ry="10.88" transform="translate(-24.4 476.74) rotate(-78.83)"/>
    <ellipse class="cls-9" cx="256.06" cy="249.32" rx="10.88" ry="13.92" transform="translate(-98.49 204.34) rotate(-37.01)"/>
    <ellipse class="cls-9" cx="192.34" cy="246.85" rx="14.14" ry="10.88" transform="translate(-117.61 290) rotate(-60)"/>
    <ellipse class="cls-9" cx="231.85" cy="229.41" rx="14.12" ry="10.88" transform="translate(-8.45 449.96) rotate(-87.24)"/>
    <ellipse class="cls-9" cx="216.66" cy="249.32" rx="10.88" ry="14.05" transform="translate(-31.94 31.83) rotate(-7.83)"/>
    <ellipse class="cls-9" cx="241.49" cy="209.76" rx="10.88" ry="14.04" transform="translate(-77.61 187.6) rotate(-37.01)"/>
    <ellipse class="cls-8" cx="255.59" cy="228.47" rx="10.88" ry="14.32" transform="translate(-86.03 199.86) rotate(-37.01)"/>
    <ellipse class="cls-9" cx="320" cy="246.85" rx="11.63" ry="14.85" transform="translate(-84.12 242.32) rotate(-37.01)"/>
    <ellipse class="cls-11" cx="305.3" cy="272.47" rx="10.88" ry="14.03"/>
    <ellipse class="cls-2" cx="201.68" cy="220.22" rx="10.62" ry="8.57" transform="translate(-61.9 79.88) rotate(-19.48)"/>
    <ellipse class="cls-2" cx="232.91" cy="218.3" rx="8.5" ry="10.71" transform="translate(-79.22 151.39) rotate(-31.05)"/>
    <ellipse class="cls-4" cx="217.2" cy="213.15" rx="8.5" ry="10.71" transform="translate(-78.82 142.55) rotate(-31.05)"/>
    <ellipse class="cls-2" cx="238.84" cy="203.99" rx="8.57" ry="10.62" transform="translate(-21.76 379.32) rotate(-74.43)"/>
    <ellipse class="cls-2" cx="265.5" cy="220.36" rx="10.71" ry="8.5" transform="translate(27.14 469.82) rotate(-86)"/>
    <ellipse class="cls-4" cx="255.6" cy="207.12" rx="10.71" ry="8.5" transform="translate(31.13 447.62) rotate(-86)"/>
  </g>
</svg>