<?xml version="1.0" encoding="UTF-8"?>
<svg id="_レイヤー_2" data-name="レイヤー 2" xmlns="http://www.w3.org/2000/svg" xmlns:xlink="http://www.w3.org/1999/xlink" viewBox="0 0 259.65 325.02">
  <defs>
    <style>
      .cls-1 {
        fill: #d6a400;
        stroke-width: .75px;
      }

      .cls-1, .cls-2, .cls-3, .cls-4, .cls-5, .cls-6 {
        stroke-miterlimit: 10;
      }

      .cls-1, .cls-5, .cls-6 {
        stroke: #69183e;
      }

      .cls-7 {
        fill: #edb623;
      }

      .cls-7, .cls-8, .cls-9 {
        stroke-width: 0px;
      }

      .cls-8 {
        fill: #040000;
      }

      .cls-2 {
        fill: url(#_名称未設定グラデーション_43-3);
      }

      .cls-2, .cls-3 {
        stroke: #231815;
        stroke-linecap: round;
      }

      .cls-2, .cls-3, .cls-6 {
        stroke-width: 1.06px;
      }

      .cls-3 {
        fill: url(#_名称未設定グラデーション_43-2);
      }

      .cls-4 {
        fill: #f4d931;
        stroke: #d7b42b;
        stroke-width: .69px;
      }

      .cls-5 {
        fill: url(#_名称未設定グラデーション_43);
        stroke-width: .68px;
      }

      .cls-10 {
        fill: #000;
        font-family: KaiseiOpti-Bold, 'Kaisei Opti';
        font-size: 39px;
        font-weight: 700;
      }

      .cls-9 {
        fill: #ffff64;
      }

      .cls-6 {
        fill: none;
      }
    </style>
    <linearGradient id="_名称未設定グラデーション_43" data-name="名称未設定グラデーション 43" x1="175.19" y1="209.96" x2="265.32" y2="223.86" gradientTransform="translate(92.77 -46) rotate(26.01)" gradientUnits="userSpaceOnUse">
      <stop offset="0" stop-color="#9f185f"/>
      <stop offset="1" stop-color="#981b5d"/>
    </linearGradient>
    <linearGradient id="_名称未設定グラデーション_43-2" data-name="名称未設定グラデーション 43" x1="192.71" y1="223.36" x2="202" y2="229.81" gradientTransform="matrix(1,0,0,1,0,0)" xlink:href="#_名称未設定グラデーション_43"/>
    <linearGradient id="_名称未設定グラデーション_43-3" data-name="名称未設定グラデーション 43" x1="215.53" y1="220.49" x2="218.05" y2="222.24" gradientTransform="translate(18.72 -20.42) rotate(7.78)" xlink:href="#_名称未設定グラデーション_43"/>
  </defs>
  <ellipse class="cls-9" cx="125.61" cy="163.11" rx="125.61" ry="72.34"/>
  <text class="cls-10" transform="translate(54.1 178.08)"><tspan x="0" y="0">メーカー</tspan></text>
  <g>
    <g>
      <path class="cls-6" d="M166.95,238.19c-6.81-5.15-15.37-13.58-19.31-26.04-.43-1.37-.79-2.72-1.08-4.05"/>
      <ellipse class="cls-1" cx="147.16" cy="206.73" rx="5.33" ry="5.89" transform="translate(-30.91 25.94) rotate(-9.12)"/>
    </g>
    <path class="cls-5" d="M216.16,210.72c-19.92-9.72-35.84-19.32-38.9-23.26-2.36,3.32-4.5,6.85-6.33,10.61-17.68,36.23-1.94,81.48,2.9,93.63.72,1.81,2.7,2.78,4.57,2.23,12.55-3.66,57.9-19.11,75.57-55.34,1.83-3.76,3.3-7.61,4.47-11.52-4.99.02-22.36-6.62-42.28-16.34Z"/>
    <path class="cls-4" d="M258.9,227.65c-2.91,4.32-20.78-4.02-22.16-4.92-2.2-1.44-1.88-1.62-4.37-3.2-8.13-5.16-10.43-2.5-17.1-6.66,0,0-9.31-5.79-12.07-6.18-.41-.06-.77-.1-1.1-.12-.89-.07-1.55-.06-1.63-.07-1.97,0-9.81-5.88-15.79-8.77-2.06-1-2.7-1.06-3.97-2.07-2.96-2.36-5.12-6.49-3.94-8.08.65-.87,2.22-.7,6.11-.1,6.6,1.01,12.7,5.52,14.82,5.12.18-.03.94-.21,1.6.18.43.26.59.62.73.83.95,1.44,4.09.26,6.98,1.46.59.24,1.43.7,2.32,1.6,1.43,1.16,3.27,2.47,5.55,3.68,2.03,1.07,3.92,1.81,5.53,2.33,0,0,10.78,3.11,16.28,5.21.26.1.86.34,1.47.86.93.8,1.3,1.74,1.44,2.06.45.99,1.67,2.27,5.11,3.39,1.27,0,5.49.13,9.24,3.21,3.31,2.72,6.51,7.93,4.95,10.24Z"/>
    <path class="cls-3" d="M191.76,224.16c-.18.17,2.76,6.84,11.52,3.64"/>
    <line class="cls-2" x1="202.85" y1="226.61" x2="204.18" y2="229.79"/>
    <g>
      <path class="cls-6" d="M228.35,258.67c6.81,5.15,15.37,13.58,19.31,26.04.43,1.37.79,2.72,1.08,4.05"/>
      <ellipse class="cls-1" cx="248.15" cy="290.14" rx="5.33" ry="5.89" transform="translate(-42.85 43) rotate(-9.12)"/>
    </g>
    <g>
      <path class="cls-6" d="M170.96,282.74c-4.9,7-10.45,17.65-10.37,30.72,0,1.44.08,2.83.22,4.18"/>
      <ellipse class="cls-1" cx="161.79" cy="318.76" rx="5.33" ry="5.89" transform="translate(-46.7 28.39) rotate(-8.77)"/>
    </g>
    <g>
      <path class="cls-6" d="M196.63,284.41c3.55,7.76,9.92,17.95,21.23,24.5,1.24.72,2.49,1.36,3.72,1.93"/>
      <ellipse class="cls-1" cx="223.05" cy="310.56" rx="5.33" ry="5.89" transform="translate(-147.91 403.24) rotate(-68.34)"/>
    </g>
    <ellipse class="cls-8" cx="191.75" cy="219.52" rx="2.92" ry="1.86"/>
    <ellipse class="cls-8" cx="206.18" cy="224.16" rx="2.06" ry="2.75" transform="translate(-98.38 223.92) rotate(-47.35)"/>
    <path class="cls-7" d="M190.42,191.19c-.28-.1-.72-.27-1.26-.45-3.07-1.04-7.49-2.54-8.46-1.22-.61.83.28,2.59.51,3.05.19.38.51,1,1.14,1.49,1.58,1.22,4.22.92,4.45.17.25-.8-2.29-1.82-2.06-2.61.15-.54,1.58-.82,5.68-.43Z"/>
    <path class="cls-7" d="M229.86,209.1c2.29-.61,5.42.05,6.62,2.03.81,1.33.38,2.66,1.21,2.99.92.37,2.03-1,2.68-.56.48.32-.03,1.14.34,1.77.89,1.49,5.02-1.21,8.43.51,1.71.86,1.36,1.88,4.22,3.66,1.32.82,1.82.87,2.75,1.74.47.45,2.51,2.36,1.97,4.17-.29.98-1.22,1.5-1.65,1.73-2.36,1.3-5.99.5-7.04-1.43-.54-1,.03-1.54-.56-2.68-.59-1.14-1.75-1.75-3.89-2.43-4.3-1.37-4.69-.53-6.88-1.49-2.98-1.3-2.28-2.88-6.38-5.52-2.4-1.54-4.24-2.04-4.16-2.96.08-.92,1.95-1.42,2.35-1.53Z"/>
    <path class="cls-7" d="M238.53,221.1c.42-1.03,3.89-1.42,5.84.14.98.79.92,1.54,2.77,3.35.63.62,1.05.94.98,1.08-.15.28-1.86-.84-4.76-1.52-1.99-.47-3.06-.37-4.04-1.37-.16-.16-1.03-1.05-.78-1.68Z"/>
    <path class="cls-7" d="M195.19,193.58c1.96.52,2.59.03,3.57.74.69.5.55.87,1.19,1.11.85.33,1.37-.2,2.25.17.21.09.26.15,1.08.93,1.49,1.41,1.74,1.59,1.68,1.75-.13.34-1.5.21-2.68-.11-3.25-.87-3.94-2.84-6.03-2.68-1.25.1-1.7.85-2.44.48-1-.51-1.3-2.5-.7-2.94.33-.25.7.18,2.07.54Z"/>
    <path class="cls-7" d="M203.37,204.05c.02.72,4.85.03,7.65,3.2.68.77.65,1.1,1.63,2.13.58.61,2.01,2.08,4.32,2.91,2.11.76,4.96.99,5.15.38.24-.75-3.86-1.49-8.26-5.5-2.31-2.1-2.86-3.42-4.97-4.03-2.75-.79-5.53.36-5.52.91Z"/>
  </g>
</svg>