<?xml version="1.0" encoding="UTF-8"?>
<svg xmlns="http://www.w3.org/2000/svg" viewBox="0 0 251.22 286.35">
  <defs>
    <style>
      .cls-1 {
        fill: #cfc3b8;
      }

      .cls-1, .cls-2, .cls-3, .cls-4, .cls-5, .cls-6, .cls-7, .cls-8, .cls-9, .cls-10, .cls-11, .cls-12, .cls-13, .cls-14, .cls-15, .cls-16, .cls-17, .cls-18, .cls-19, .cls-20, .cls-21, .cls-22 {
        stroke-width: 0px;
      }

      .cls-2 {
        fill: #f9f4f3;
      }

      .cls-3 {
        fill: #af4534;
      }

      .cls-4 {
        fill: #d56c43;
      }

      .cls-5 {
        fill: #f8f2f0;
      }

      .cls-6 {
        fill: #fbf8f6;
      }

      .cls-7 {
        fill: #c75a3f;
      }

      .cls-8 {
        fill: #827c72;
      }

      .cls-9 {
        fill: #f9f3f1;
      }

      .cls-10 {
        fill: #cfc4b8;
      }

      .cls-11 {
        fill: #e3d9ce;
      }

      .cls-12 {
        fill: #fcfbfa;
      }

      .cls-13 {
        fill: #fdfcfb;
      }

      .cls-23 {
        fill: #000;
        font-family: KaiseiOpti-Bold, 'Kaisei Opti';
        font-size: 39px;
        font-weight: 700;
      }

      .cls-14 {
        fill: #ffff64;
      }

      .cls-15 {
        fill: #f7f5f2;
      }

      .cls-16 {
        fill: #fbf7f6;
      }

      .cls-17 {
        fill: #827c71;
      }

      .cls-18 {
        fill: #c05232;
      }

      .cls-19 {
        fill: #faf6f5;
      }

      .cls-20 {
        fill: #fbfaf9;
      }

      .cls-21 {
        fill: #f8f1ef;
      }

      .cls-22 {
        fill: #fefefe;
      }
    </style>
  </defs>
  <g id="_レイヤー_4" data-name="レイヤー 4">
    <g>
      <path class="cls-15" d="M123.89,28.63c0,.1,0,.2,0,.3-1.45.76-2.9.77-4.36,0,0-.1,0-.2,0-.29h4.34Z"/>
      <path class="cls-11" d="M119.54,28.92c1.45,0,2.9,0,4.36,0,4.35.04,8.6.63,12.77,1.91,6.34,1.94,10.13,6.07,11.77,12.52,1.46,5.74,3.31,11.43,5.88,16.76,3.5,7.25,9.34,12.18,16.88,15.1,1.72.67,3.57,1.03,5.18,1.98,3.27,1.92,5.13,5.06,6.76,8.27,5.19,10.2,8.92,20.95,11.36,32.12.79,3.6,1.04,7.31,1.44,10.99.57,5.35.55,10.7.59,16.06.04,4.9-.37,9.77-.91,14.63-1.17.23-1.96.88-2.18,2.07-.26,1.35.52,2.21,1.52,2.93.34.41.22.88.15,1.33-1.12,6.65-2.74,13.18-5.1,19.51-1.6.67-3.36.41-4.99.88-.24-.88.25-1.61.52-2.37,3.12-8.74,5.08-17.74,5.95-26.98.14-1.54.16-3.09.39-4.62.32-5.29.53-10.55.22-15.87-.33-5.77-.96-11.48-1.81-17.18-.28-3.53-1.53-6.83-2.55-10.18-1.23-4.05-2.66-8.04-4.2-11.98-1.86-4.7-3.74-9.39-6.79-13.49-1.12-1.5-2.49-2.55-4.31-3.09-1.97-.59-3.87-1.41-5.74-2.28-2.96-1.37-5.69-3.1-8.17-5.23-.59-.51-1.13-1.05-1.62-1.65-1.79-1.74-3.28-3.72-4.74-5.73-1.62-2.31-2.77-4.84-3.53-7.55-.06-.29-.17-.55-.28-.82-.25-.6-.47-1.22-.62-1.85-.11-.57-.29-1.11-.58-1.61-.33-.6-.54-1.25-.71-1.91-.98-3.05-2.02-6.08-2.89-9.16-.95-3.4-3.3-5.4-6.32-6.79-3.09-1.42-6.43-1.85-9.77-2.26-10.16-1.25-19.61,1.05-28.56,5.72-6.08,3.17-11.48,7.28-16.43,12.06-6.86,6.62-12.17,14.29-16.33,22.81-1.12,2.02-1.88,4.2-2.81,6.29-.37.9-.65,1.83-.98,2.74-3.9,10.42-6.18,21.21-7.42,32.23-.82,7.23-1.25,14.51-.99,21.79.26,7.43.82,14.84,2.03,22.18.14.86.43,1.71.21,2.6-.09.17-.28.44-.42.31-1.08-1.07-2.5-1.06-3.86-1.26-.8-3.62-1.13-7.31-1.53-10.98-.83-7.71-.77-15.46-.61-23.2.16-7.31.98-14.57,2.22-21.77,1.28-7.42,3.19-14.68,5.69-21.79,3.69-10.52,8.79-20.28,15.97-28.81,8.92-10.6,19.66-18.79,33.03-23.11,4.18-1.35,8.46-2.21,12.87-2.29Z"/>
      <path class="cls-11" d="M182.23,191.57c1.63-.49,3.34-.33,5-.59-1.79,4.58-4.05,8.93-6.55,13.15-3.36,5.69-7.71,10.58-12.56,15.02-3.65,3.35-7.72,6.16-11.95,8.74-1.52-.02-2.77.43-3.46,1.91-3.52,1.45-6.96,3.09-10.62,4.19-6.48,1.95-13.05,3.41-19.86,3.19-6.38-.21-12.5-1.74-18.42-4.11-.95-.38-1.91-.74-2.87-1.11-.85-1.48-2.06-2.1-3.75-1.58-.39-1.19-1.59-1.39-2.46-1.93-4.88-3.01-9.26-6.63-13.53-10.44-7.11-6.34-12.71-13.82-17.46-22.01-.18-.31-.26-.67-.39-1,1.66-.75,3.19.18,4.78.35,1.05.83,1.47,2.1,2.16,3.17,8.29,12.69,19.03,22.7,32.64,29.44,5.74,2.84,11.88,4.49,18.32,4.82,8.75.44,17.04-1.63,25.03-4.92,12.75-5.25,22.82-13.81,30.34-25.35,2.1-3.21,3.66-6.71,5.36-10.14.1-.26.19-.53.23-.8Z"/>
      <g>
        <path class="cls-1" d="M195.62,159.27c6.18.18,11.82,5.01,13.58,11.65.08.29.01.63.35.81v4.35c-.86,2.52-1.79,4.97-3.68,7-3.72,4.01-8.55,5.73-13.66,6.94-1.64.39-3.32.66-4.98.98-1.5,1.02-3.28.52-4.9.91-.86.21-1.71.49-2.62.44-.54,0-1.09.03-1.63.02-2.71.59-5.46.23-8.2.32-1.2-.08-2.39-.03-3.59-.03-.62.04-1.24.04-1.85-.02-1.7-.17-2.98.31-4.16,1.7-1.81,2.13-4.88,2.6-6.96,1.4-.1-.15-.16-.32-.18-.5.37-2.65,1.24-5.2,1.54-7.86.15-1.27-.16-2.59.39-3.81,1.19-.88,2.29-.21,3.41.2,1.14.55,1.95,1.48,2.82,2.36.39.43.91.4,1.43.39.93-.02,1.86-.05,2.79,0,2.07.29,4.14-.21,6.21-.02,4.36-.02,8.69-.49,13.01-.97,1.68-.22,3.38-.38,5.04-.71,2.89-.75,5.8-1.44,8.45-2.91,1.84-1.02,3.43-2.35,4.52-4.13,2.44-3.98.5-9.56-4.02-11.94-1.25-.66-2.65-.85-3.94-1.36-1.68-1.12-2.24-2.53-1.47-3.96.47-.87,1.08-1.64,2.28-1.25Z"/>
        <path class="cls-10" d="M68.36,195.64c-1.7.07-3.31-.59-5-.62-4.67-1.05-9.29-2.23-13.59-4.45-6.52-3.36-8.84-9.07-7.87-16.25.81-6,4.35-10.05,9.39-13.01.22-.13.41-.3.61-.45,1.67-.64,3.04-.32,4.03,1.24.13.1.22.23.28.39.35,1.51-.3,2.56-1.55,3.34-.65.4-1.33.76-1.95,1.22-4.39,3.15-6.15,7.34-5.11,12.69.43,2.23,1.68,3.83,3.53,5.06,2.76,1.83,5.86,2.8,8.99,3.71,1.67.28,3.3.75,4.99.91,7.52,1.28,15.1,1.54,22.7,1.31,1.09-.07,1.9-.57,2.61-1.42,1.12-1.33,2.48-2.31,4.38-2.08.11.13.19.28.23.44.26,3.88,1,7.65,2.33,11.31.16.43.31.88.29,1.35-.03.19-.12.33-.28.44-2.92.71-5.35-.21-7.13-2.5-.99-1.28-2.07-1.76-3.56-1.57-5.41.7-10.79-.12-16.18-.35-.78-.03-1.54-.16-2.16-.71Z"/>
      </g>
      <path class="cls-1" d="M152.72,229.81c.4-2.1,1.33-2.61,3.46-1.91,1.02.79,1.16,2.04,1.56,3.13,1.93,5.28,3.85,10.56,5.69,15.87.38,1.09.85,1.21,1.94,1,4.03-.75,7.82-.23,10.9,2.76,2.87,2.79,2.51,7.03-.71,9.42-4.15,3.08-10.84,3.07-14.96-.03-2.88-2.17-3.47-5.87-1.26-8.73.56-.73.44-1.28.19-1.97-2.14-5.91-4.29-11.82-6.42-17.74-.21-.57-.27-1.2-.4-1.8Z"/>
      <path class="cls-1" d="M97.2,230.39c1.89-1.2,3.27-.61,3.75,1.58-.81,3.48-2.5,6.64-3.68,9.99-.89,2.53-1.92,5-2.93,7.49-.25.63-.3,1.12.13,1.71,2.78,3.75,1.18,7.29-2.15,9.47-4.38,2.86-11.47,2.17-14.91-1.44-2.67-2.81-2.26-7.01.92-9.27,3.07-2.19,6.51-2.82,10.13-2.03,1.34.29,1.74-.16,2.14-1.2,1.87-4.86,3.77-9.7,5.66-14.55.24-.62.42-1.28.95-1.74Z"/>
      <path class="cls-9" d="M158.65,184.14c-1.11-.26-2.17-.79-3.36-.65-.62-.14-.67-.65-.76-1.14,0-1.27-1.15-2.27-.85-3.6,11.54-7.99,18.79-18.95,21.89-32.54,2.66-11.67,1.6-23.08-3.23-34.13-2.56-5.86-6.06-11.06-10.37-15.71-3.21-3.46-6.96-6.35-11.05-8.71-5.69-3.28-11.74-5.56-18.29-6.53-10.13-1.5-19.84-.15-28.98,4.37-17.26,8.53-27.17,22.66-29.77,41.55-2.26,16.39,2.48,31,13.35,43.53,2.34,2.7,5.04,5.04,7.93,7.15.45.33.99.58,1.23,1.14-.27,2.27-1.18,4.39-1.47,6.66-.91.64-1.52-.1-2.14-.52-1.76-1.22-3.42-2.57-5.13-3.85-7.44-6.58-13.26-14.34-16.91-23.61-2.63-6.68-4.14-13.59-4.43-20.82-.42-10.72,1.59-20.9,6.39-30.44,6.79-13.51,17.19-23.26,31.23-29,7.83-3.2,16.03-4.54,24.44-3.99,12.98.85,24.5,5.46,34.43,13.98,10.38,8.91,16.86,20.16,19.84,33.4,1.28,5.69,1.72,11.49,1.32,17.39-.58,8.66-2.77,16.82-6.66,24.52-4.3,8.49-10.42,15.49-17.96,21.25-.21.16-.43.28-.7.32Z"/>
      <path class="cls-5" d="M158.65,184.14c1.62-2.04,3.83-3.42,5.73-5.15,2.8-2.55,5.28-5.36,7.5-8.37,4.88-6.63,8.28-14,10.15-22.04.8-3.45,1.23-6.95,1.51-10.5.72-9.05-.77-17.74-3.91-26.16-2.47-6.62-6.07-12.58-10.69-17.97-5-5.85-10.91-10.49-17.67-14.03-4.9-2.57-10.14-4.31-15.59-5.32-4.16-.77-8.36-1.14-12.59-.94-7.48.34-14.65,1.97-21.48,5.09-6.74,3.08-12.72,7.24-17.83,12.58-7.1,7.42-12.11,16.08-14.84,26.03-1.3,4.73-1.93,9.53-2.16,14.44-.56,11.63,2.22,22.43,7.71,32.6,2.99,5.54,6.95,10.33,11.54,14.62.68.63,1.26,1.35,1.89,2.04-.03,1.29-1.06,1.81-1.92,2.41-.58.41-1.07-.09-1.5-.46-4.9-4.35-9.13-9.28-12.5-14.92-3.09-5.18-5.48-10.67-7.01-16.5-1.01-3.84-1.75-7.73-2.07-11.72-.19-2.43-.29-4.85-.23-7.27.24-8.87,2.08-17.39,5.71-25.53,3.59-8.06,8.73-14.99,15.11-21,6.09-5.74,13.11-10.04,21.02-12.82,5.28-1.86,10.68-3.07,16.3-3.48,10.33-.74,20.14,1.04,29.53,5.33,12.45,5.69,21.83,14.68,28.74,26.41,2.99,5.08,5.06,10.53,6.55,16.19,1.84,6.95,2.4,14.07,1.89,21.21-.61,8.63-2.84,16.9-6.7,24.67-2.54,5.11-5.75,9.78-9.57,14.05-2.57,2.86-5.35,5.46-8.31,7.88-.54.44-1.03,1.06-1.88.86-.81-.73-1.62-1.47-2.43-2.2Z"/>
      <path class="cls-5" d="M190.61,118.65c.41,2.42.97,4.83,1.2,7.27.64,6.61,1.19,13.24.91,19.88-.09,2.12.02,4.29-.56,6.39-.99,3.93-2.25,7.78-3.89,11.49-3.93,8.89-9.34,16.73-16.6,23.25-2.07-.17-4.14.45-6.21,0-.45-.92.32-1.34.82-1.77,12.06-10.49,19.34-23.69,22.14-39.37,1.96-10.98,1.15-21.8-2.22-32.45-2.76-8.71-7.05-16.56-13.04-23.42-10.16-11.63-22.81-18.99-38.13-21.44-12.97-2.07-25.45-.22-37.27,5.51-8.59,4.16-15.85,10.07-21.89,17.48-.66.81-1.16,1.9-2.48,1.87-.73-.57-1.07-1.34-1.13-2.24,1.88-1.93,3.57-4.02,5.29-6.09,1.68-.65,2.24-2.41,3.47-3.51,1.88-1.02,3.39-2.53,5.08-3.79,8.85-6.59,18.73-10.76,29.65-12.22,19.62-2.61,37.06,2.51,52.24,15.23,8.88,7.44,15.13,16.77,19.44,27.44,1.25,3.1,2.17,6.34,2.86,9.63.06.31.11.61.32.86Z"/>
      <path class="cls-5" d="M73.31,93.19c1.6-.44,2.2-1.96,3.14-3.06,4.62-5.35,9.86-9.93,15.9-13.62,6.85-4.2,14.24-6.95,22.13-8.34,2.72-.48,5.5-.65,8.28-.79,6.64-.34,13.12.48,19.47,2.25,7.98,2.23,15.24,5.92,21.78,11.05,6.55,5.14,11.99,11.23,16.25,18.4,4.26,7.17,7.03,14.85,8.55,23.05.74,3.97,1.14,7.97,1.11,11.95-.06,8.91-1.67,17.59-5.07,25.88-3.88,9.45-9.6,17.63-17.11,24.56-.81.75-2.02,1.12-2.26,2.41-1.03,0-2.07-.01-3.1-.02-.46-.96.4-1.32.89-1.72,6.15-4.92,11.25-10.75,15.24-17.55,4.06-6.92,6.72-14.33,8.14-22.24.97-5.38,1.17-10.8.79-16.17-.69-9.66-3.36-18.8-8.16-27.3-5.04-8.93-11.75-16.3-20.24-22-7.82-5.24-16.4-8.5-25.78-9.75-11.79-1.58-23,.22-33.76,5.17-8.93,4.11-16.32,10.16-22.49,17.78-6.18,7.64-10.26,16.27-12.54,25.8-1.53,6.41-2.09,12.94-1.65,19.48.62,9.29,3.03,18.16,7.44,26.41,1.21,2.27.75,2.72-.06,3.08-1.63.71-1.84-.92-2.3-1.8-4.39-8.41-7.03-17.36-7.66-26.81-.92-13.68,1.78-26.66,8.5-38.69.6-1.07.74-1.87-.12-2.76.35-.38.83-.35,1.29-.41,1.89-.26,2.71-1.08,2.99-2.95.07-.45.03-.94.43-1.28Z"/>
      <path class="cls-5" d="M68.65,97.85c1.67.63,1.64.62.59,2.56-4.09,7.59-6.91,15.59-8.11,24.18-.69,4.95-.79,9.9-.47,14.82.49,7.64,2.37,15.02,5.5,22.04.82,1.84,1.68,3.66,2.61,5.45.2.38.36,1.28,1.16.84.68-.38.98-.92.51-1.79-1.9-3.5-3.51-7.13-4.71-10.93-1.52-4.81-2.55-9.71-3.03-14.76-1.07-11.38.73-22.29,5.18-32.74,3.8-8.92,9.46-16.57,16.74-22.95,6.18-5.42,13.21-9.5,21.02-12.12,4.49-1.51,9.1-2.43,13.85-2.89,8.43-.8,16.64.1,24.66,2.74,8.43,2.77,15.9,7.17,22.5,13.17,6.19,5.63,11.04,12.21,14.69,19.67,2.98,6.09,4.84,12.55,5.9,19.27.78,4.99.82,10,.5,14.97-.5,7.74-2.49,15.19-5.74,22.29-3.75,8.18-8.95,15.28-15.57,21.36-.91.83-1.88,1.6-2.84,2.37-.52.42-1.13.75-1.21,1.52-.51,0-1.12.22-1.29-.56,7.53-5.48,13.49-12.33,18.04-20.45,2.05-3.66,3.73-7.48,4.96-11.47,1.39-4.51,2.41-9.11,2.87-13.85.35-3.62.4-7.24.19-10.82-.43-7.28-2.13-14.32-4.92-21.08-2.3-5.57-5.34-10.72-9.14-15.36-5.1-6.22-11.04-11.51-18.11-15.48-6.58-3.7-13.58-6.17-21.04-7.26-8.45-1.24-16.79-.67-25.03,1.68-8.75,2.51-16.57,6.64-23.45,12.63-6.35,5.52-11.5,11.95-15.32,19.4-2.79,5.42-4.72,11.17-5.86,17.19-1.05,5.5-1.48,11.04-1.15,16.6.39,6.38,1.67,12.62,3.9,18.64,2.5,6.72,5.93,12.91,10.49,18.46,2.23,2.71,4.75,5.13,7.25,7.57.61.6,1.02.73,1.58.01.48-.6,1.03-1.15,1.55-1.72,1.73.81,3.01,2.24,4.58,3.28.73.48,1.44.97,2.21,1.37.47.52.48,1.03-.01,1.53-1.91.66-3.69,1.46-4.75,3.35-.37.65-1.1.38-1.69.41-.82.35-1.49.04-2.15-.44-7.91-5.8-14.16-13.06-18.98-21.59-4.24-7.51-7.04-15.53-8.27-24.04-.74-5.1-.95-10.23-.62-15.43.46-7.36,2.05-14.4,4.64-21.25,1.37-3.63,3.1-7.09,5.1-10.42.24-.14.48-.14.7.04Z"/>
      <path class="cls-5" d="M153.41,195.64c3.28.82,5.48.06,7.49-2.65.4-.54.84-.83,1.53-.8,1.23.05,2.46.04,3.68.05,1.23.2,2.46.21,3.69,0,2.8-.16,5.61.19,8.39-.31.43.76-.2,1.15-.61,1.56-4.48,4.42-9.6,7.97-14.99,11.17-4.78,2.84-9.91,4.85-15.16,6.57-1.28.42-2.7,1.25-4.07.09.3-.84,1.15-1.12,1.74-1.65,1.26-1.14,2.46-2.32,3.39-3.75,1.79-2.78,3.05-5.79,3.99-8.95.16-.53.25-1.13.91-1.31Z"/>
      <path class="cls-5" d="M171.68,186.92c.02-.72.6-1.07,1.03-1.48,6.12-5.77,10.8-12.57,14.41-20.13,2.02-4.24,3.53-8.68,4.7-13.23.02-.08.08-.16.13-.24.07.11.14.23.21.34-.21,8.24-1.72,16.28-3.89,24.2-.9,3.27-1.83,6.52-3.26,9.61-4.44.42-8.86,1.04-13.34.93Z"/>
      <path class="cls-21" d="M179.75,191.89c-1.17,2.37-3.39,3.75-5.3,5.34-5.23,4.39-10.97,8.03-17.2,10.88-5.12,2.34-10.42,4.14-15.92,5.37-.78.17-1.14-.27-1.67-.5,1.01-1.12,2.21-1.84,3.78-1.73,1.19.59,2.4.12,3.46-.22,8.75-2.78,16.86-6.84,24.16-12.45,2.16-1.66,4.27-3.37,6.2-5.29.39-.39.92-.71.94-1.36.52-.01,1.04-.02,1.56-.04Z"/>
      <path class="cls-3" d="M153.36,195.31c-2.3-.49-3.87-2.55-4.02-5.29-.02-.41,0-.82,0-1.23-.09-.13-.09-.27,0-.4.11-.09.24-.17.38-.22,2.48-.71,4.13-2.18,4.46-4.86.15-.4.04-.96.69-1.02.03.44.08.87.42,1.2.1,4.06-.74,7.97-1.93,11.82Z"/>
      <path class="cls-21" d="M169.81,192.24c-1.23.45-2.46.44-3.69,0,1.23,0,2.46,0,3.69,0Z"/>
      <path class="cls-5" d="M68.03,97.85c.03.42-.07.82-.29,1.19-3.83,6.44-6.33,13.4-7.86,20.71-.63,3.01-1.03,6.05-1.21,9.14-.14,2.32-.32,4.63-.25,6.94.32,9.4,2.25,18.43,6.1,27.05,3.11,6.99,7.32,13.19,12.39,18.9,3,3.38,6.59,6.03,9.98,8.93.4.34.88.23,1.34.26-.47.46-1.07.26-1.62.28-5.7.2-11.39-.18-17.07-.65-1.55-.13-3.14-.29-4.63-.87-.62-.35-.93-.94-1.21-1.56-3.18-7.07-5.58-14.41-7.24-21.98-.28-1.26-.23-2.55-.52-3.79,0-.1,0-.2-.02-.3-.43-3.2-.89-6.4-1.28-9.61-.33-2.7-.76-5.4-.84-8.11-.15-5.21-.64-10.42-.32-15.62.39-6.46.77-12.91,1.76-19.32,1.2-7.8,2.96-15.44,5.36-22.94.42-1.31,1.01-2.57,1.52-3.86.72-.63,1.15-1.49,1.77-2.2-.25-.25-.63,0-.83-.28.8-2.13,1.5-4.3,2.78-6.21,3.54-2.97,6.8-6.27,10.53-9.04,2.4-1.78,4.87-3.45,7.43-4.98.47-.28.97-.63,1.58-.34.24.36.1.72-.11,1-1.07,1.43-2.01,2.98-3.42,4.13-.89-.14-.87.35-.68.96-1.05,1.99-1.98,4.06-3.71,5.6-.3.04-.6.01-.88.16-.17.09-.36.17-.47.35.37.03.79-.05.99.4-.61,1.87-1.71,3.5-2.52,5.27-.36.8-.75,1.58-.86,2.46-.31,2.41.52,3.74,2.85,4.59.38.14.8.22,1.05.59-1.48,2.22-2.93,4.46-5.28,5.9-.49.24-.89-.07-1.31-.21-1.75-.59-3.23-.15-4.2,1.26-.9,1.31-.76,3.1.29,4.44.33.42.99.63.89,1.33Z"/>
      <path class="cls-21" d="M85.41,59.67c-2.39.88-4.39,2.41-6.45,3.83-4.22,2.93-8.07,6.31-11.75,9.88-.39.38-.8.63-1.36.56,1.89-4.67,4.71-8.8,7.53-12.93,3.16-4.63,7.03-8.66,11.18-12.37,8.47-7.57,18.08-13.11,29.38-15.27,4.98-.95,9.99-.88,15.04-.17,4.02.57,7.91,1.31,11.28,3.76,1.54,1.12,2.75,2.48,3.33,4.33,1.08,3.44,2.18,6.87,3.27,10.31-.75.62-1.55.35-2.36.16-6.59-1.58-13.26-2.57-20.05-2.49-6.01.07-11.91.93-17.76,2.29-1.15.27-2.26.74-3.48.66-.64-.11-.88-.64-1.2-1.11-1.47-2.16-3.24-2.55-5.46-1.18-3.73,2.31-6.75,5.4-9.58,8.71-.42.48-.71,1.2-1.56,1.04Z"/>
      <path class="cls-5" d="M102.79,51.91c1.21.05,2.32-.42,3.46-.7,4.39-1.09,8.83-1.71,13.33-2.13,8.7-.82,17.18.31,25.59,2.41.54.13,1.12.08,1.69.11.21.62.42,1.24.63,1.86-.18.98-.9.62-1.41.48-.49-.14-1.01-.14-1.49-.37-.4-.19-.87-.12-1.28-.31,1.56.71,3.49.32,4.79,1.75.21.62.42,1.24.63,1.86-.2.19-.44.31-.7.23-2.02-.63-4.1-1.07-6.15-1.62,2.39.63,4.82,1.15,7.15,2.01.56,2.84,2.02,5.29,3.43,7.76-.96.63-1.81.02-2.63-.3-5.08-1.98-10.35-3.2-15.75-3.95-9.51-1.32-18.84-.47-28.05,2.13-5.7,1.61-11.11,3.87-16.17,6.98-.64.39-1.31.91-2.14.41-.48-.49-.21-.99.08-1.4,2.48-3.55,5.09-7,8.33-9.92.15-.14.35-.22.54-.28.59.04,1.03-.11,1.05-.81.47-.94,1.37-1.39,2.21-1.83,1.53-.81,2.5-1.91,2.53-3.71,0-.26.12-.5.33-.67Z"/>
      <path class="cls-5" d="M87.58,70.22c.86.56,1.5-.09,2.11-.47,7.56-4.68,15.81-7.42,24.54-8.86,4.46-.74,8.95-1.13,13.46-.89,7.48.39,14.8,1.66,21.82,4.39.95.37,1.9.82,2.95.86,1.55,1.86,3.1,3.72,4.65,5.58-.15,1.2-.93.71-1.48.48-1.43-.6-2.8-1.33-4.23-1.94-6.61-2.85-13.49-4.7-20.67-5.17-10.98-.73-21.66.68-31.83,5.17-5,2.21-9.6,5.03-14.03,8.2-.82.59-1.25,1.7-2.42,1.79-.62-.42-.29-.93-.08-1.37,1.19-2.53,2.69-4.88,4.21-7.22.22-.33.49-.69,1-.54Z"/>
      <path class="cls-5" d="M82.3,79.22c2.24-2.04,4.73-3.73,7.28-5.35,7.35-4.66,15.29-7.71,23.86-9.3,5.73-1.06,11.49-1.1,17.22-.79,7.18.39,14.1,2.21,20.69,5.13,1.51.67,2.99,1.39,4.49,2.08.45.21.93.62,1.26-.16,2.5,2.48,5.25,4.62,8.46,6.12.41.19.77.47,1.16.71,6.59,4.74,11.58,10.94,16.01,17.64.31.47.5,1.03,1.06,1.29,1.92,4.17,3.23,8.56,4.61,12.92.79,2.5,1.64,4.99,2.05,7.59.08.51.1,1.02.15,1.53-1.09-1.15-1.08-2.73-1.48-4.11-2.61-9.04-6.84-17.19-12.71-24.55-6.59-8.27-14.73-14.5-24.27-18.95-5.49-2.56-11.29-4.17-17.26-5.16-4.5-.75-9.05-.8-13.57-.58-7.6.36-14.88,2.2-21.89,5.19-6.32,2.69-11.98,6.39-17.2,10.82-.33.28-.63.71-1.18.41-.26-1.16.12-2.01,1.24-2.48Z"/>
      <path class="cls-5" d="M183.79,96.6c-.58.34-.77-.05-1.03-.49-2.99-4.93-6.63-9.34-10.63-13.48-1.7-1.76-3.9-2.99-5.41-4.97,2.4.89,4.8,1.78,7.2,2.68,1.79.68,2.86,2.18,3.84,3.67,2.59,3.91,4.54,8.15,6.04,12.59Z"/>
      <path class="cls-21" d="M148.09,55.01c-1.91-.85-3.99-1.16-5.94-1.93,1.28-.41,2.41.32,3.61.49.6.08,1.18.44,1.72-.11.41.43.49,1,.61,1.55Z"/>
      <path class="cls-21" d="M63.07,80.16c.1-.01.2-.04.3-.04.42.01.72-.87,1.14-.27.31.45-.22.84-.55,1.12-.63.54-.74,1.64-1.83,1.67.26-.85.41-1.74.94-2.48Z"/>
      <path class="cls-21" d="M149.02,57.5c-2.49-.63-4.99-1.25-7.48-1.88l.07-.3c2.37.52,4.74,1.04,7.11,1.56.1.21.2.41.3.62Z"/>
      <path class="cls-11" d="M59.97,188.82c-.94-2.55-1.85-5.1-2.81-7.64-1.57-4.13-2.73-8.38-3.76-12.68-.15-.61.08-1.53-.89-1.78.51-.34.99-.74,1.54-.99,1.47-.66,2.08-1.75,1.89-3.33.76,3.08,1.48,6.17,2.29,9.24,1.66,6.24,3.89,12.27,6.68,18.1-1.71.02-3.32-.51-4.94-.92Z"/>
      <path class="cls-18" d="M99.69,199.04c-.45.95-1.38,1.03-2.23,1.27-1.64-4.09-2.73-8.3-2.69-12.75.71,0,1.42,0,2.12,0,.45.26.61.7.67,1.16.36,2.73,1.21,5.33,2.02,7.95.24.76.67,1.56.11,2.37Z"/>
      <path class="cls-2" d="M96.93,177.4c.11.64-.75.84-.67,1.46-3.69-2.16-6.76-5.1-9.56-8.25-3.47-3.9-6.29-8.27-8.51-13.02-2.66-5.7-4.24-11.65-4.9-17.91-.96-9.16.26-17.99,3.78-26.46,2.55-6.13,5.99-11.73,10.61-16.58,4.61-4.84,9.85-8.75,15.9-11.6,5.31-2.5,10.86-4.02,16.71-4.6,13.43-1.33,25.35,2.47,36.07,10.4,5.7,4.22,10.11,9.62,13.67,15.75,3.59,6.19,5.94,12.81,6.84,19.87.74,5.78.69,11.59-.36,17.38-1.62,8.97-5.29,16.99-10.76,24.2-3.13,4.13-6.95,7.59-11.15,10.63-.22.16-.59.14-.88.2-.22-.39-.45-.79-.67-1.18-.39-1.04.51-1.36,1.07-1.8,3.27-2.56,6.27-5.4,8.92-8.59,6.28-7.56,9.82-16.31,11.34-25.97,1.67-10.64-.39-20.7-4.84-30.31-2.02-4.37-4.81-8.29-8.08-11.88-4.27-4.69-9.13-8.55-14.81-11.31-7.77-3.77-16.01-5.75-24.64-5.01-11.63,1-21.82,5.39-30.4,13.56-9.47,9.03-14.46,20.12-15.95,32.93-1.02,8.78.69,17.19,4,25.3,3.47,8.48,9,15.39,16.22,20.99.57.45,1.44.79,1.06,1.82Z"/>
      <path class="cls-22" d="M82.3,79.22c-.62.73-1,1.57-1.24,2.48-.98,1.3-1.44,3.11-3.41,3.42-4.38-.38-5.08-3.74-3.93-6.59.9-2.23,1.99-4.41,3.3-6.45-.2-.41,0-.69.32-.93,1.5-1.69,2.39-3.79,3.72-5.59-.16-.56.17-.78.62-.93,1.26-1.64,2.72-3.13,3.73-4.97,1.09-1.15,2.24-2.25,3.27-3.45,2.15-2.51,4.68-4.55,7.36-6.46,2.38-1.69,5.57-1.36,6.75,2.15.18,2.07-.47,3.62-2.48,4.59-.91.44-1.93.94-2.49,1.93-.13.47-.5.6-.93.62-3.72,3.21-6.66,7.07-9.31,11.17-2.17,2.76-3.95,5.75-5.28,9Z"/>
      <path class="cls-22" d="M68.03,97.85c-2.7-2.16-3-4.86-.73-6.86,1.67-1.47,3.39-.98,5.07.03.3.73.83,1.36.94,2.17-.03,1.25.14,2.48-.88,3.57-1.1,1.18-2.41,1.12-3.78,1.09-.21,0-.41,0-.62,0Z"/>
      <path class="cls-21" d="M74.59,73.44c-2.3,1.98-4.53,4.04-6.27,6.6,2.09-2.2,4.18-4.4,6.27-6.6Z"/>
      <path class="cls-21" d="M65.55,82.41c-.92,1.34-1.67,2.72-2.93,3.71.85-1.35,1.62-2.77,2.93-3.71Z"/>
      <path class="cls-21" d="M77.34,71.16c-.11.31-.21.62-.32.93-.53.05-1.07.1-1.84.18.79-.54.91-1.84,2.16-1.11Z"/>
      <path class="cls-21" d="M72.7,71.75c-.3-.04-.57-.08-.5-.33.16-.56.58-.94,1.12-1.13.27-.1.58.07.47.37-.2.54-.66.87-1.09,1.09Z"/>
      <path class="cls-21" d="M66.4,78.06c-.16.32-.37.72-.83.71-.36,0-.35-.36-.24-.58.18-.36.4-.76.89-.69.21.03.25.28.18.55Z"/>
      <path class="cls-21" d="M75.84,68.67c-.25.72-.53,1.19-1.22,1.17-.09,0-.28-.22-.26-.29.2-.71.74-.91,1.47-.88Z"/>
      <path class="cls-21" d="M75.73,68.67c.25-.72.53-1.19,1.22-1.17.09,0,.28.22.26.29-.2.71-.74.91-1.47.88Z"/>
      <path class="cls-21" d="M65.49,82.36c.26-.88.82-1.25,1.43-1.78.06,1.12-.68,1.42-1.43,1.78Z"/>
      <path class="cls-21" d="M81.68,64.64c-.21.31-.41.62-.62.93-.54-.28-.75-.61-.26-1.14.42-.44.67-.23.88.2Z"/>
      <path class="cls-21" d="M120.32,51.5c1.6-1.07,8.02-1.07,9.65,0-3.36.16-6.3.16-9.65,0Z"/>
      <path class="cls-21" d="M139.11,52.61c-2.73-.31-5.46-.62-8.19-.93.02-.2.04-.4.07-.6,2.77-.21,5.44.61,8.15.95l-.03.58Z"/>
      <path class="cls-21" d="M108.09,53.04c-1.11.55-2.25.96-3.51.87,1.05-.74,2.23-1.01,3.51-.87Z"/>
      <path class="cls-21" d="M110.71,52.46c1.14-.64,1.87-.86,2.68-.55.04.02.07.23.02.27-.71.64-1.51.3-2.7.29Z"/>
      <path class="cls-21" d="M117.11,51.59c.8-.73,1.47-.71,2.4-.33-.78.74-1.44.78-2.4.33Z"/>
      <path class="cls-21" d="M120.76,53.7c-.67.76-1.25.85-1.92.23.55-.5,1.12-.61,1.92-.23Z"/>
      <path class="cls-21" d="M129.5,53.72c.76-.4,1.33-.28,1.95.18-.71.66-1.27.53-1.95-.18Z"/>
      <path class="cls-21" d="M110.7,55.17c-.65.16-1.26.5-2.03.22.64-.21,1.29-.42,1.93-.63.03.14.07.27.1.41Z"/>
      <path class="cls-21" d="M137.55,54.73c.74-.6,1.24.18,1.79.09-.56.19-1.12.32-1.79-.09Z"/>
      <path class="cls-21" d="M115.3,52.14c-.24.03-.46-.07-.47-.27-.03-.39.36-.4.61-.49.2-.07.43.06.45.26.04.41-.39.35-.59.5Z"/>
      <path class="cls-21" d="M115.64,54.29c.59-.44.99-.71,1.53-.32-.36.57-.85.43-1.53.32Z"/>
      <path class="cls-21" d="M96.89,59.05c.31-.21.62-.42.93-.62.33.25.27.51-.01.73-.33.25-.65.25-.91-.11Z"/>
      <path class="cls-21" d="M134.58,54.27c-.58.18-.94.18-1.32-.17.54-.52.86-.16,1.32.17Z"/>
      <path class="cls-21" d="M107.72,55.79c-.7.16-1.04.54-1.58.34.36-.46.78-.57,1.58-.34Z"/>
      <path class="cls-21" d="M100.82,57.65c.33-.27.61-.55,1.13-.33-.34.32-.63.58-1.13.33Z"/>
      <path class="cls-19" d="M146.21,168.67c-1.39-1.31-2.45-2.95-4.03-4.08-.73-.19-1.39-.45-1.39-1.38.17-.6.68-.89,1.15-1.21,4.55-3.12,8.27-6.99,10.96-11.84,1.96-3.53,3.14-7.3,3.72-11.28,1.05-7.19-.03-14.1-3.53-20.42-5.36-9.68-13.46-15.82-24.63-16.99-9.49-1-17.83,1.89-24.79,8.61-5.28,5.1-8.74,11.12-9.79,18.4-1.91,13.25,2.36,24.09,12.91,32.41,1.76,1.39,3.85,2.22,5.61,3.58-.05,1.18-.95,1.3-1.82,1.47-1.92.92-3.57,2.34-5.63,2.99-.81.17-1.38-.33-1.96-.74-10.39-7.42-16.17-17.57-17.35-30.2-1.27-13.57,3.25-25.17,13.08-34.55,5.92-5.65,13.15-8.99,21.28-10,13.8-1.71,25.41,2.87,34.64,13.12,5.79,6.43,8.99,14.16,10.04,22.79.97,7.99-.42,15.62-3.79,22.8-3.05,6.5-7.49,12-13.54,16.07-.35.24-.7.44-1.13.45Z"/>
      <path class="cls-2" d="M146.21,168.67c2.13-1.86,4.55-3.37,6.49-5.44,6-6.4,9.83-13.83,11.27-22.57,1.46-8.87.12-17.28-3.87-25.19-5.43-10.77-14.05-17.91-25.82-20.91-8.52-2.17-16.86-1.24-24.88,2.31-8.58,3.8-14.87,10.09-19.12,18.34-2.44,4.73-3.75,9.86-4.29,15.21-.85,8.27.92,15.98,4.71,23.24,3.32,6.36,7.97,11.59,14.25,15.25-1.6,1.07-3.22,2.11-4.63,3.43-.84.17-1.35-.43-1.91-.85-6.29-4.75-10.95-10.8-14.13-17.98-4.92-11.12-5.67-22.69-1.77-34.07,5.97-17.43,18.03-28.57,36.61-31.29,13.64-2,25.8,1.88,36.01,11.33,8.47,7.83,13.4,17.54,14.69,28.96,1.57,13.87-2.29,26.19-11.27,36.87-2.2,2.62-4.76,4.89-7.58,6.84-.41.28-.79.71-1.38.52-1.13-1.34-2.25-2.67-3.38-4.01Z"/>
      <path class="cls-2" d="M149.59,172.68c8.77-5.96,14.58-14.16,17.95-24.12,1.22-3.61,1.72-7.37,2.02-11.19.54-6.69-.38-13.13-2.6-19.4-2.06-5.8-5.26-10.92-9.39-15.5-5.09-5.64-11.27-9.6-18.36-12.14-3.74-1.34-7.63-2.01-11.63-2.14-6.25-.2-12.34.42-18.19,2.78-9.19,3.71-16.46,9.75-21.67,18.16-3.56,5.75-6,11.94-6.68,18.76-.74,7.47-.39,14.81,2.19,21.93,1.97,5.43,4.75,10.37,8.51,14.79,2.53,2.97,5.37,5.53,8.57,7.73-.62.74-1.23,1.47-1.85,2.21-2.84-1.64-5.28-3.8-7.48-6.19-5.07-5.52-8.73-11.88-11.05-19.02-2.98-9.2-3.22-18.48-.78-27.81,2.51-9.61,7.39-17.86,14.77-24.48,7.22-6.47,15.68-10.55,25.38-11.69,14.96-1.75,27.83,2.82,38.63,13.24,8.24,7.95,12.86,17.79,14.39,29.04,1.22,8.99.05,17.7-3.58,26.08-2.68,6.21-6.35,11.7-11.2,16.41-1.89,1.84-4.07,3.34-6.07,5.05-.63-.83-1.27-1.67-1.9-2.5Z"/>
      <path class="cls-9" d="M96.93,177.4c-.66-1.64-2.32-2.26-3.53-3.3-4.27-3.66-7.9-7.85-10.78-12.65-3.24-5.39-5.33-11.23-6.62-17.39-1.47-7.02-1.3-13.97.21-20.93,1.85-8.51,5.36-16.28,11.07-22.87,6.9-7.97,15.3-13.67,25.7-16.29,5.11-1.29,10.23-1.94,15.43-1.58,5.36.37,10.54,1.71,15.53,3.76,4.27,1.76,8.2,4.09,11.8,6.99,5.06,4.09,9.2,8.95,12.51,14.56,3.78,6.41,5.75,13.41,6.8,20.7.97,6.78.06,13.44-1.76,19.98-1.8,6.48-4.67,12.47-8.78,17.79-3.04,3.93-6.62,7.35-10.57,10.37-.42.32-.89.54-.9,1.15-.42-.64-.84-1.27-1.26-1.91,1.21-1.43,2.85-2.37,4.25-3.58,5.89-5.12,10.18-11.35,13.27-18.47,1.06-2.43,1.66-5,2.59-7.46.3-.37.4-.81.45-1.27.02-.12.06-.25.1-.37.17-.41.15-.86.23-1.29.02-.13.06-.25.1-.37.17-.5.1-1.03.2-1.54.02-.14.06-.27.1-.41.18-.72.05-1.46.19-2.18.02-.16.06-.31.11-.47.1-2.8.08-5.6,0-8.4-.06-.15-.1-.31-.12-.47-.16-.84,0-1.7-.21-2.53-.05-.15-.08-.29-.11-.44-.09-.6-.08-1.21-.3-1.79-1.59-7.24-4.17-14.05-8.59-20.1-8.33-11.4-19.39-18.33-33.44-20.02-13.66-1.65-25.8,2.26-36.21,11.2-10.38,8.91-15.89,20.37-17.3,33.93-.96,9.22.99,17.91,4.7,26.23,1.98,4.45,4.79,8.43,8.09,12.06,2.23,2.46,4.7,4.64,7.32,6.66.28.22.59.42.74.78-.33.64-.66,1.28-1,1.92Z"/>
      <path class="cls-2" d="M97.92,175.48c-1.54-.46-2.6-1.66-3.74-2.64-8.93-7.78-14.52-17.52-16.8-29.14-.78-4-1.27-8.06-.94-12.13.79-9.55,3.49-18.46,9.03-26.43,7.77-11.18,18.29-18.11,31.64-20.6,9.65-1.8,18.99-.4,27.87,3.71,10.01,4.63,17.53,11.96,22.79,21.64,2.55,4.7,4.25,9.7,5.15,14.97.39.57-.09,1.29.31,1.86.41.9-.11,1.9.31,2.79.25,3.1.25,6.21,0,9.31-.43.79.1,1.69-.31,2.48-.4.57.08,1.29-.31,1.86-.38.46.05,1.09-.31,1.55-.38.46.05,1.09-.31,1.55-1.3,3.94-2.54,7.9-4.54,11.58-3,5.51-6.61,10.5-11.46,14.56-1.45,1.21-2.79,2.55-4.53,3.37-.29-.1-.28-.35-.28-.59.03-.71.54-1.1,1.04-1.46,7.14-5.12,12.14-11.88,15.72-19.87,3.46-7.73,4.71-15.85,3.96-24.14-.92-10.05-4.58-19.17-11.06-27.05-6.82-8.3-15.48-13.62-25.88-16.18-3.3-.81-6.71-1.34-10.06-1.25-5.91.16-11.74,1.15-17.27,3.5-6.11,2.59-11.55,6.13-16.13,10.94-6.72,7.04-10.97,15.35-12.93,24.89-.87,4.23-1.14,8.49-.87,12.76.37,5.79,1.75,11.38,4.14,16.68,1.74,3.86,3.81,7.51,6.43,10.88,2.59,3.32,5.58,6.18,8.93,8.69.38.28.75.54.95.98-.18.31-.36.62-.54.93Z"/>
      <path class="cls-7" d="M144.37,184.14c1.03,0,2.07,0,3.1,0-1.03.48-2.07.48-3.1,0Z"/>
      <path class="cls-4" d="M100,199.04c.82-.39,1.17-1.21,1.86-2.18,0,.83,0,1.35,0,1.87,0,.05,0,.1,0,.15-.07.92.26,2.36-.83,2.44-.85.07-.87-1.4-1.03-2.29Z"/>
      <path class="cls-19" d="M113.67,163.69c-.21.55-.82.58-1.2.91-3.2-1.18-5.87-3.18-8.37-5.41-5.49-4.9-8.99-11-10.44-18.2-1.39-6.92-.82-13.7,2.01-20.22,3.42-7.85,9.02-13.65,16.79-17.17,8.24-3.73,16.62-3.65,25-.22,3.78,1.55,7.08,3.86,9.92,6.7,4.92,4.92,8.15,10.81,9.42,17.74,1.36,7.39.38,14.47-2.83,21.2-2.56,5.37-6.53,9.6-11.36,13.03-.58.41-1.31.64-1.67,1.32-.7-.03-.99-.7-1.54-.96.1-1.06,1.03-1.36,1.73-1.83,6.03-4.07,10.52-9.42,12.53-16.45,3.47-12.14,1.42-23.11-7.61-32.39-5.77-5.93-12.88-8.8-21.02-8.77-12.23.04-22.69,7.36-27.27,18.24-4.62,10.98-3.51,21.55,3.16,31.42,2.86,4.22,6.75,7.37,11.28,9.73.58.3,1.47.36,1.46,1.34Z"/>
      <path class="cls-2" d="M173.54,138.82v-9.31c.66,1.04.31,2.19.28,3.27-.06,2.01.42,4.06-.28,6.04Z"/>
      <path class="cls-2" d="M173.54,129.51c-.62-.87-.17-1.87-.31-2.79.62.87.17,1.87.31,2.79Z"/>
      <path class="cls-2" d="M173.23,141.3c.14-.82-.31-1.72.31-2.48-.14.82.31,1.72-.31,2.48Z"/>
      <path class="cls-2" d="M172.92,143.17c.1-.62-.25-1.32.31-1.86-.1.62.25,1.32-.31,1.86Z"/>
      <path class="cls-2" d="M173.23,126.72c-.56-.54-.21-1.24-.31-1.86.56.54.21,1.24.31,1.86Z"/>
      <path class="cls-2" d="M172.61,144.72c.08-.52-.21-1.12.31-1.55-.08.52.21,1.12-.31,1.55Z"/>
      <path class="cls-2" d="M172.3,146.27c.08-.52-.21-1.12.31-1.55-.08.52.21,1.12-.31,1.55Z"/>
      <path class="cls-16" d="M113.67,163.69c-2.18-1.45-4.61-2.49-6.67-4.14-6.63-5.32-10.74-12.11-11.96-20.57-.96-6.58-.2-12.96,2.75-18.96,3.5-7.13,8.91-12.29,16.28-15.33,3.86-1.6,7.92-2.35,12.06-2.14,7.38.36,13.91,2.88,19.38,8.04,4.97,4.68,8.32,10.26,9.5,16.96,1.72,9.78.05,18.84-6.36,26.75-2.27,2.8-4.91,5.11-7.93,7.04-.47.3-.87.72-1.3,1.08-2.67-1.19-5.49-1.68-8.38-1.86.04-1.16,1.06-1.13,1.77-1.37,5.77-1.93,10.25-5.49,13.55-10.57,6.74-10.35,5.15-24.32-3.35-33.18-9.68-10.08-26.61-10.28-36.3.72-.1.12-.22.22-.34.31-.45.23-.77-.08-1.13-.27-2.1-1.12-3.72-.5-4.63,1.77-.22.53-.23,1.07-.02,1.61.05,1.24,1.49,1.52,1.79,2.59-.88,2.69-1.97,5.31-2.35,8.17-.93,6.97.59,13.36,4.56,19.12,3.59,5.23,8.54,8.6,14.69,10.21.63.17,1.53.11,1.53,1.17-2.51.61-4.73,1.93-7.12,2.85Z"/>
      <path class="cls-6" d="M106.14,116.59c.47-1.54,1.77-2.42,2.89-3.33,5.26-4.25,11.31-6.31,18.08-5.76,5.63.46,10.64,2.55,14.87,6.41,4.32,3.94,7.21,8.68,8.36,14.45,1.62,8.12.08,15.56-4.87,22.2-3.29,4.42-7.61,7.47-12.9,9.11-.56.17-1.27.17-1.55.88-3.41.26-6.82.39-10.24.29-.22-.5-.68-.53-1.14-.65-10.55-2.84-17.09-9.63-19.64-20.21-1.5-6.22-.62-12.23,2.17-17.97.21-.26.53-.29.82-.38,2.29-.7,3.09-1.81,2.98-4.17-.01-.31-.06-.62.16-.88Z"/>
      <path class="cls-8" d="M106.14,116.59c.71,3.4-.55,5.13-3.96,5.43-.95-.59-1.82-1.24-1.96-2.47-.09-.5-.11-1,.01-1.51.24-2.88,4.38-3.97,5.91-1.45Z"/>
      <path class="cls-19" d="M100.23,118.05c0,.5,0,1-.01,1.51-.33-.5-.34-1.01.01-1.51Z"/>
      <path class="cls-20" d="M102.79,134.06c-.12-12.9,10.15-23.46,22.68-23.12,13.17.36,22.15,10.44,22.16,23.12,0,13.44-9.91,23.27-22.51,23.27s-22.37-9.99-22.33-23.27Z"/>
      <path class="cls-12" d="M113.27,133.85c-.67-.39-.63-1.05-.52-1.65,1.22-6.76,6.31-11.49,13.28-10.99,6.37.46,10.66,4.95,11.52,11.2.7,5.1-1.12,9.31-5.17,12.26-4.71,3.42-10.42,3.29-15.11-.54-1.92-1.57-3.18-3.63-3.98-5.98-.18-.53-.52-1.07.12-1.53,1.2-.27,2.25.12,3.23.77,1.02,2.29,2.5,4.12,4.84,5.22,5.66,2.66,12.4-1.58,12.6-7.83.13-3.92-1.34-6.9-4.64-8.83-5.07-2.96-11.48-.03-12.97,5.76-.19.74-.1,1.56-.59,2.22-.88.32-1.73,0-2.6-.07Z"/>
      <path class="cls-17" d="M116.47,137.5c-1.02-.29-2.04-.59-3.06-.88-.84-.88-.71-1.82-.13-2.77.85-.63,1.7-.04,2.55,0,.9-.35,1.84-.09,2.75-.11,2.47-.05,4.8-.54,6.88-1.96.38-.26.78-.51,1.24-.63.94-.25,1.76,0,2.31.81.53.78.38,1.56-.18,2.29-.78,1.03-1.93,1.52-3.03,2.07-2.4,1.21-4.96,1.65-7.62,1.67-.6,0-1.26.09-1.7-.5Z"/>
      <path class="cls-17" d="M132.79,121.13c-1.81.03-3.44-1.67-3.49-3.65-.04-1.62,1.21-3.05,2.71-3.12,1.81-.08,3.53,1.69,3.62,3.71.07,1.63-1.24,3.03-2.84,3.06Z"/>
      <path class="cls-13" d="M116.47,137.5c3.49.16,6.86-.24,9.98-1.95.54-.29,1.06-.63,1.56-.99.92-.64,1.35-1.51.64-2.5-.71-.98-1.63-.81-2.57-.17-3.13,2.14-6.55,2.8-10.26,1.96-.08-4.83,3.73-9.41,9.22-9.54,5.12-.12,9.27,4.29,9.44,9,.12,3.33-.79,6.13-3.32,8.29-5.45,4.66-13.32,1.4-14.69-4.12Z"/>
    </g>
    <g id="_レイヤー_2" data-name="レイヤー 2">
      <ellipse class="cls-14" cx="125.61" cy="214.01" rx="125.61" ry="72.34"/>
      <text class="cls-23" transform="translate(46.1 231.43)"><tspan x="0" y="0">商品一覧</tspan></text>
    </g>
  </g>
  <g id="_レイヤー_5" data-name="レイヤー 5">
    <g>
      <path class="cls-1" d="M197.52,143.9c6.18.18,11.82,5.01,13.58,11.65.08.29.01.63.35.81v4.35c-.86,2.52-1.79,4.97-3.68,7-3.72,4.01-8.55,5.73-13.66,6.94-1.64.39-3.32.66-4.98.98-1.5,1.02-3.28.52-4.9.91-.86.21-1.71.49-2.62.44-.54,0-1.09.03-1.63.02-2.71.59-5.46.23-8.2.32-1.2-.08-2.39-.03-3.59-.03-.62.04-1.24.04-1.85-.02-1.7-.17-2.98.31-4.16,1.7-1.81,2.13-4.88,2.6-6.96,1.4-.1-.15-.16-.32-.18-.5.37-2.65,1.24-5.2,1.54-7.86.15-1.27-.16-2.59.39-3.81,1.19-.88,2.29-.21,3.41.2,1.14.55,1.95,1.48,2.82,2.36.39.43.91.4,1.43.39.93-.02,1.86-.05,2.79,0,2.07.29,4.14-.21,6.21-.02,4.36-.02,8.69-.49,13.01-.97,1.68-.22,3.38-.38,5.04-.71,2.89-.75,5.8-1.44,8.45-2.91,1.84-1.02,3.43-2.35,4.52-4.13,2.44-3.98.5-9.56-4.02-11.94-1.25-.66-2.65-.85-3.94-1.36-1.68-1.12-2.24-2.53-1.47-3.96.47-.87,1.08-1.64,2.28-1.25Z"/>
      <ellipse class="cls-1" cx="157.87" cy="173.85" rx="6.38" ry="7.11"/>
    </g>
    <path class="cls-1" d="M48.86,143.9c-6.18.18-11.82,5.01-13.58,11.65-.08.29-.01.63-.35.81v4.35c.86,2.52,1.79,4.97,3.68,7,3.72,4.01,8.55,5.73,13.66,6.94,1.64.39,3.32.66,4.98.98,1.5,1.02,3.28.52,4.9.91.86.21,1.71.49,2.62.44.54,0,1.09.03,1.63.02,2.71.59,5.46.23,8.2.32,1.2-.08,2.39-.03,3.59-.03.62.04,1.24.04,1.85-.02,1.7-.17,2.98.31,4.16,1.7,1.81,2.13,4.88,2.6,6.96,1.4.1-.15.16-.32.18-.5-.37-2.65-1.24-5.2-1.54-7.86-.15-1.27.16-2.59-.39-3.81-1.19-.88-2.29-.21-3.41.2-1.14.55-1.95,1.48-2.82,2.36-.39.43-.91.4-1.43.39-.93-.02-1.86-.05-2.79,0-2.07.29-4.14-.21-6.21-.02-4.36-.02-8.69-.49-13.01-.97-1.68-.22-3.38-.38-5.04-.71-2.89-.75-5.8-1.44-8.45-2.91-1.84-1.02-3.43-2.35-4.52-4.13-2.44-3.98-.5-9.56,4.02-11.94,1.25-.66,2.65-.85,3.94-1.36,1.68-1.12,2.24-2.53,1.47-3.96-.47-.87-1.08-1.64-2.28-1.25Z"/>
    <ellipse class="cls-1" cx="88.51" cy="173.85" rx="6.38" ry="7.11"/>
  </g>
</svg>