<?xml version="1.0" encoding="UTF-8"?>
<svg id="_レイヤー_1" data-name="レイヤー 1" xmlns="http://www.w3.org/2000/svg" xmlns:xlink="http://www.w3.org/1999/xlink" viewBox="0 0 325.36 344.65">
  <defs>
    <style>
      .cls-1, .cls-2 {
        fill: #5f5b51;
      }

      .cls-1, .cls-2, .cls-3, .cls-4, .cls-5, .cls-6, .cls-7, .cls-8 {
        stroke-miterlimit: 10;
      }

      .cls-1, .cls-2, .cls-3, .cls-8 {
        stroke-width: 7px;
      }

      .cls-1, .cls-5 {
        stroke: #827c71;
      }

      .cls-2 {
        stroke: #827c72;
      }

      .cls-3 {
        fill: #cec3b7;
      }

      .cls-3, .cls-5, .cls-6, .cls-7, .cls-8 {
        stroke-linecap: round;
      }

      .cls-3, .cls-7, .cls-8 {
        stroke: #cec3b7;
      }

      .cls-4 {
        fill: url(#_名称未設定グラデーション_111);
        stroke: #e3dad0;
        stroke-width: 6px;
      }

      .cls-5 {
        stroke-width: 5px;
      }

      .cls-5, .cls-6, .cls-7, .cls-8 {
        fill: none;
      }

      .cls-9 {
        fill: #fff;
      }

      .cls-10 {
        fill: #231815;
        font-family: KaiseiOpti-Bold, 'Kaisei Opti';
        font-size: 39px;
        font-weight: 700;
      }

      .cls-11 {
        fill: #ffff64;
      }

      .cls-6 {
        stroke: #cfc5b9;
      }

      .cls-6, .cls-7 {
        stroke-width: 8px;
      }
    </style>
    <radialGradient id="_名称未設定グラデーション_111" data-name="名称未設定グラデーション 111" cx="156.18" cy="133.6" fx="156.18" fy="144.9" r="145.56" gradientTransform="translate(17.6 44.65) scale(.92 .83)" gradientUnits="userSpaceOnUse">
      <stop offset="0" stop-color="#fff"/>
      <stop offset=".97" stop-color="#f2e5e2" stop-opacity=".5"/>
    </radialGradient>
  </defs>
  <g>
    <g>
      <path class="cls-4" d="M47.34,154.1c0-1.22-.01-3.08.04-5.47.31-13.84,1.95-76.74,51.35-112.51,9.15-6.63,31.63-20.79,59.29-20.28,2.34.04,27.92.72,33.18,10.93.43.83,1.62,3.41,3.51,8.71.92,2.58,2.24,6.1,4.25,11.06,2.46,6.05,3.71,9.11,4.86,10.99.93,1.51,6.45,10.25,17.18,16.34,6.01,3.41,12.42,5.28,14.27,5.81.9.26,1.52.41,1.79.49,6.11,1.7,14.87,12.09,27.04,48.2,0,0,15.93,57.58-12.8,109.13-3.73,6.7-7.65,13.61-15.13,21.46-32.87,34.47-78.17,33.49-78.17,33.49-32.16-.75-54.24-18.34-63.39-25.63-47.04-37.47-47.24-95.58-47.3-112.71Z"/>
      <ellipse class="cls-2" cx="122.28" cy="122.18" rx="1.82" ry="1.22" transform="translate(-40.01 181.72) rotate(-65.12)"/>
      <path class="cls-5" d="M139.44,147.99c2.08,1.25,12.73,2.35,20.02-3.39"/>
      <ellipse class="cls-1" cx="167.36" cy="121.01" rx="1.22" ry="1.82" transform="translate(-35.91 84.49) rotate(-25.68)"/>
    </g>
    <line class="cls-8" x1="115.16" y1="297.68" x2="102.72" y2="329.63"/>
    <line class="cls-8" x1="202.06" y1="294.29" x2="214.55" y2="329.12"/>
    <ellipse class="cls-3" cx="95.11" cy="333.21" rx="12.15" ry="7.93"/>
    <path class="cls-7" d="M267.55,164.8c3.35,1.7,12.51,6.89,17.99,17.99,1.68,3.4,5.52,11.48,3.69,21.68-2.6,14.44-14.54,21.83-16.61,23.06"/>
    <ellipse class="cls-3" cx="222.47" cy="333.21" rx="12.15" ry="7.93"/>
    <path class="cls-6" d="M40.62,168.03c-4.02,2.31-10.5,6.72-16.14,14.3-2.8,3.76-7.99,10.9-9.29,21.01-2.03,15.84,6.87,28.01,9.29,31.11"/>
  </g>
  <path class="cls-9" d="M123.54,41.85c-8.84,4.01-16.26,11.5-22.76,18.55-6.78,7.36-12.6,15.41-17.45,24.16-3.71,6.7,6.06,13.68,9.8,6.93,4.3-7.75,9.33-15.07,15.21-21.7,5.64-6.36,12.5-13.54,20.33-17.09,7.03-3.19,1.92-14.05-5.13-10.85Z"/>
  <path class="cls-9" d="M71.43,95.76c-7.72,0-7.73,12,0,12s7.73-12,0-12Z"/>
  <ellipse class="cls-11" cx="150.7" cy="249.98" rx="150.7" ry="90.67"/>
  <text class="cls-10" transform="translate(71.43 267.03)"><tspan x="0" y="0">商品一覧</tspan></text>
</svg>