<?xml version="1.0" encoding="UTF-8"?>
<svg id="_レイヤー_1" data-name="レイヤー 1" xmlns="http://www.w3.org/2000/svg" viewBox="0 0 305.06 301.21">
  <defs>
    <style>
      .cls-1 {
        fill: #494242;
        stroke: #2a2422;
      }

      .cls-1, .cls-2, .cls-3 {
        stroke-miterlimit: 10;
      }

      .cls-2 {
        stroke: #040000;
        stroke-width: .5px;
      }

      .cls-2, .cls-4, .cls-3 {
        fill: #040000;
      }

      .cls-5, .cls-6 {
        fill: #231815;
      }

      .cls-6 {
        font-family: KaiseiOpti-Bold, 'Kaisei Opti';
        font-size: 39px;
        font-weight: 700;
      }

      .cls-3 {
        stroke: #231815;
      }

      .cls-7 {
        fill: #ffff64;
      }

      .cls-8 {
        fill: #5a5857;
      }
    </style>
  </defs>
  <ellipse class="cls-7" cx="154.36" cy="210.54" rx="150.7" ry="90.67"/>
  <circle class="cls-2" cx="4.7" cy="57.55" r="4.45"/>
  <g>
    <path class="cls-1" d="M271.31,133.56c-25.73,11.49-63.04,24.86-109.64,30.98-48.08,6.32-88.7,2.65-116.96-2.09-5.64-44.21-11.27-88.42-16.91-132.63,18.82,8.07,59.78,22.62,112.43,17.05C198.43,40.72,238.21,13.45,254.4.93c5.64,44.21,11.27,88.42,16.91,132.63Z"/>
    <ellipse class="cls-3" cx="199.23" cy="61.69" rx="2.11" ry="2.69" transform="translate(40.87 197.4) rotate(-57.8)"/>
    <ellipse class="cls-3" cx="206.16" cy="88.39" rx="2.87" ry="2.08" transform="translate(21.51 215.74) rotate(-57.8)"/>
    <path class="cls-4" d="M196.74,79.18l-1.39-6.58c-.42-1.98-2.74-3.13-4.61-2.62-2.05.56-3.04,2.62-2.62,4.61l1.39,6.58c.42,1.98,2.74,3.13,4.61,2.62,2.05-.56,3.04-2.62,2.62-4.61h0Z"/>
    <path class="cls-5" d="M210.15,56.48c-.64,1.5-1.29,2.99-1.93,4.49l-.27.63c-.13.31-.09.67.22.86.26.15.72.09.86-.22.64-1.5,1.29-2.99,1.93-4.49l.27-.63c.13-.31.09-.67-.22-.86-.26-.15-.72-.09-.86.22h0Z"/>
    <path class="cls-5" d="M213.76,87.04c1.46.86,2.91,1.71,4.37,2.57l.62.36c.69.41,1.32-.67.63-1.08-1.46-.86-2.91-1.71-4.37-2.57l-.62-.36c-.69-.41-1.32.67-.63,1.08h0Z"/>
    <path class="cls-8" d="M51.53,43.35c1,.26,2.2.62,2.84,1.51s.14,2.11.5,3.13c.22.62.57,1.16,1.06,1.61s1.03.82,1.42,1.36c.76,1.04.94,2.32.9,3.59-.02.8,1.23.8,1.25,0,.04-1.39-.18-2.83-.94-4.02s-2.44-1.87-2.63-3.41c-.08-.61.09-1.21-.04-1.82-.1-.5-.34-.95-.66-1.34-.83-1.01-2.15-1.49-3.38-1.81-.78-.2-1.11,1.01-.33,1.21h0Z"/>
    <path class="cls-8" d="M161.47,52.2c-.79,2.43-1.14,5.86,2.04,6.61,1.4.33,2.98.1,4.25.89,1.49.93,1.7,2.88,1.66,4.47-.02.8,1.23.8,1.25,0,.05-1.57-.16-3.25-1.15-4.53s-2.49-1.67-4.04-1.83c-1.11-.11-2.57-.11-3.12-1.28s-.07-2.81.31-4c.25-.77-.96-1.1-1.21-.33h0Z"/>
    <path class="cls-8" d="M141.01,149.08c.78.03,1.73.08,2.38.56.57.43.43,1.05.19,1.63-.51,1.23-1.48,2.59-.68,3.92.68,1.12,2.16,1.24,3.3,1.53.62.16,1.28.36,1.73.86.62.69.61,1.65.44,2.51-.16.79,1.05,1.12,1.21.33.28-1.43.14-3.01-1.06-4-.94-.77-2.14-.91-3.28-1.21-.41-.11-.94-.23-1.21-.59-.34-.44-.14-1.02.05-1.48.44-1.05,1.25-2.16.89-3.36-.48-1.63-2.53-1.9-3.96-1.96-.8-.03-.8,1.22,0,1.25h0Z"/>
    <path class="cls-8" d="M135.22,82.81c1.43.61,2.95,1.3,4.09,2.38.32.3.6.62.8,1.01.12.23.22.58.23.75.04.73-.37,1.36-.57,2.04-.22.77-.19,1.59.1,2.33.59,1.5,1.96,2.51,3.31,3.28.7.4,1.33-.68.63-1.08-1.29-.73-2.98-1.88-2.95-3.55.01-.74.44-1.37.62-2.07.13-.51.14-1.05.01-1.57-.61-2.42-3.61-3.74-5.65-4.61-.73-.31-1.37.77-.63,1.08h0Z"/>
    <path class="cls-8" d="M195.63,138.09c1.21.32,2.58.83,3.22,1.99.72,1.31-.11,2.9.04,4.31.28,2.57,2.44,4.28,4.56,5.44.71.39,1.34-.69.63-1.08-1.25-.68-2.53-1.52-3.32-2.74-.64-1-.74-2.07-.55-3.24.24-1.49.26-2.83-.8-4.03-.88-1-2.2-1.52-3.45-1.85-.78-.2-1.11,1-.33,1.21h0Z"/>
    <path class="cls-8" d="M104.14,124.88c-.37,1.37-.38,3.03.87,3.97,1.01.76,2.63.47,3.47,1.44.47.55.4,1.23.4,1.91,0,.79.09,1.56.42,2.29.61,1.35,1.79,2.29,3.1,2.9.72.34,1.36-.74.63-1.08-1.22-.57-2.38-1.44-2.77-2.79-.35-1.24.15-2.58-.59-3.72-.71-1.08-1.86-1.28-3.02-1.58-.6-.15-1.12-.39-1.37-1.01s-.11-1.36.07-2c.21-.78-.99-1.11-1.21-.33h0Z"/>
    <path class="cls-8" d="M154.48,114.93c-.66,1.3-1.01,3.11.62,3.84.56.25,1.19.28,1.74.53.77.36.52,1.03.35,1.69-.17.69-.2,1.38.27,1.97.42.52,1.04.7,1.67.8.71.11,1.5.15,2.03.71s.65,1.43.64,2.2,1.25.81,1.25,0c0-1.47-.45-3.03-1.89-3.7-.66-.31-1.35-.32-2.05-.47s-.89-.48-.72-1.17.37-1.32.1-2c-.24-.62-.75-1.02-1.36-1.24-.52-.2-1.15-.21-1.63-.5-.72-.43-.24-1.46.05-2.02.36-.72-.71-1.35-1.08-.63h0Z"/>
    <path class="cls-8" d="M65.24,121.14c-.23,1.38-.29,2.85.38,4.12.55,1.04,1.49,1.55,2.57,1.89,1.56.49,2.78,1.34,3.7,2.72.69,1.04,1.13,2.17,1.32,3.41.12.79,1.33.46,1.21-.33-.4-2.62-2.04-5.35-4.5-6.48-.97-.45-2.28-.54-2.97-1.43-.76-.99-.7-2.39-.5-3.55.13-.79-1.07-1.13-1.21-.33h0Z"/>
    <path class="cls-8" d="M82.53,78.22c-.21,1.23-.2,2.48.38,3.61s1.57,1.65,2.62,2.21c.85.45,1.61,1.02,2.14,1.84.64.99.93,2.16,1.07,3.33.09.79,1.34.8,1.25,0-.23-2.06-.9-4.12-2.58-5.45-.88-.7-2.07-1.02-2.88-1.81-.9-.88-.99-2.23-.79-3.4.14-.79-1.07-1.12-1.21-.33h0Z"/>
    <path class="cls-8" d="M236.77,111.38c1.08.16,2.27.5,2.9,1.47.66,1.02.37,2.4.59,3.54.43,2.23,2.22,3.74,4.19,4.67.72.34,1.36-.74.63-1.08-1.06-.5-2.12-1.14-2.83-2.1-.63-.85-.84-1.82-.89-2.86-.06-1.28-.18-2.5-1.14-3.45-.83-.83-1.99-1.23-3.13-1.39-.34-.05-.67.08-.77.44-.08.29.1.72.44.77h0Z"/>
    <path class="cls-8" d="M227.5,34.45c-.37,1.37-.38,3.03.87,3.97,1.01.76,2.63.47,3.47,1.44.47.55.4,1.23.4,1.91,0,.79.09,1.56.42,2.29.61,1.35,1.79,2.29,3.1,2.9.72.34,1.36-.74.63-1.08-1.22-.57-2.38-1.44-2.77-2.79-.35-1.24.15-2.58-.59-3.72-.71-1.08-1.86-1.28-3.02-1.58-.6-.15-1.12-.39-1.37-1.01s-.11-1.36.07-2c.21-.78-.99-1.11-1.21-.33h0Z"/>
    <path class="cls-8" d="M229.65,67.9c-.55,1.7-1.02,4.32.96,5.31.74.37,1.6.36,2.4.32s1.82-.2,2.48.32c.7.55.55,1.58.45,2.36-.11.94-.29,1.87-.18,2.82.24,2.13,1.92,3.39,3.91,3.83.78.17,1.12-1.03.33-1.21-.9-.2-1.83-.54-2.42-1.28s-.66-1.73-.57-2.67c.13-1.47.7-3.26-.4-4.51s-2.82-.88-4.28-.9c-.81-.01-1.58-.2-1.83-1.08-.27-.97.06-2.07.36-2.98.25-.77-.96-1.1-1.21-.33h0Z"/>
    <path class="cls-4" d="M41.44,133.83c-9.5-4.15-20.71-1.72-27.49,6.18-1.04,1.22.72,2.99,1.77,1.77,5.99-6.98,15.95-9.5,24.46-5.79,1.46.64,2.73-1.52,1.26-2.16h0Z"/>
    <path class="cls-4" d="M29.68,58.18c-3.12,3.12-7.64,4.95-12.05,4.79-4.72-.18-9.15-2.61-12.05-6.31-.99-1.26-2.75.52-1.77,1.77,3.29,4.2,8.49,6.85,13.82,7.04,5.05.18,10.25-1.95,13.82-5.52,1.14-1.14-.63-2.91-1.77-1.77h0Z"/>
    <circle class="cls-2" cx="14.83" cy="140.89" r="4.45"/>
    <path class="cls-4" d="M167.56,42.54c-.66-7.49,2.54-15.07,8.47-19.63.54-.41.81-1.07.45-1.71-.3-.53-1.18-.86-1.71-.45-6.67,5.12-10.46,13.36-9.71,21.78.14,1.59,2.64,1.6,2.5,0h0Z"/>
    <path class="cls-4" d="M198.32,158.24c-.54-8.62,3.15-16.96,9.86-22.39,1.25-1.01-.53-2.77-1.77-1.77-7.18,5.81-11.16,14.95-10.59,24.16.1,1.6,2.6,1.61,2.5,0h0Z"/>
    <circle class="cls-2" cx="208.76" cy="131.62" r="4.45"/>
    <circle class="cls-2" cx="176.49" cy="19.38" r="4.45"/>
  </g>
  <text class="cls-6" transform="translate(83.02 230.47)"><tspan x="0" y="0">詳細検索</tspan></text>
</svg>